SplineFontDB: 3.0
FontName: StickNoBillsDraft-Bold
FullName: Stick No Bills
FamilyName: Stick No Bills
OS2StyleName: "regular"
Weight: Bold
Copyright: Copyright (c) 2013 STICK NO BILLS, Copyright (c) 2015 mooniak\n
UComments: "2015-2-15: Created with FontForge (http://fontforge.org) The  Free Font Editor"
Version: 001
ItalicAngle: 0
UnderlinePosition: -102
UnderlineWidth: 51
Ascent: 819
Descent: 205
InvalidEm: 0
UFOAscent: 819
UFODescent: -205
LayerCount: 2
Layer: 0 0 "Back" 1
Layer: 1 0 "Fore" 0
PreferredKerning: 4
FSType: 0
OS2Version: 0
OS2_WeightWidthSlopeOnly: 0
OS2_UseTypoMetrics: 0
CreationTime: 1429518268
<<<<<<< HEAD
ModificationTime: 1432415797
=======
ModificationTime: 1430239998
>>>>>>> origin/master
PfmFamily: 16
TTFWeight: 400
TTFWidth: 5
LineGap: 94
VLineGap: 0
OS2TypoAscent: 819
OS2TypoAOffset: 0
OS2TypoDescent: -205
OS2TypoDOffset: 0
OS2TypoLinegap: 94
OS2WinAscent: 918
OS2WinAOffset: 0
OS2WinDescent: 205
OS2WinDOffset: 0
HheadAscent: 918
HheadAOffset: 0
HheadDescent: -205
HheadDOffset: 0
OS2CapHeight: 0
OS2XHeight: 0
OS2Vendor: 'PfEd'
OS2UnicodeRanges: 00000002.00000000.00000000.00000000
Lookup: 258 0 0 "'kern' Horizontal Kerning lookup 0" { "'kern' Horizontal Kerning lookup 0-1" [153,15,0] } ['kern' ('DFLT' <'dflt' > 'hani' <'dflt' > 'latn' <'dflt' > ) ]
MarkAttachClasses: 1
DEI: 91125
KernClass2: 7 7 "'kern' Horizontal Kerning lookup 0-1"
 1 A
 7 T Y P F
 9 f r v w y
 1 L
 3 W V
 0 
 7 W V T Y
 12 period comma
 17 a e s o q d c g u
 1 A
 5 w v t
 15 semicolon colon
 0 {} 0 {} 0 {} 0 {} 0 {} 0 {} 0 {} 0 {} -70 {} 61 {} -23 {} 0 {} -68 {} 45 {} 0 {} 16 {} -80 {} -30 {} -100 {} -23 {} -63 {} 0 {} 0 {} -41 {} 0 {} 0 {} 0 {} 0 {} 0 {} -82 {} 0 {} 84 {} 0 {} -77 {} 62 {} 0 {} 0 {} -109 {} -55 {} -130 {} 0 {} -75 {} 0 {} 0 {} 0 {} 0 {} 0 {} 0 {} 0 {}

StartChar: A
Encoding: 65 65 0
GlifName: A_
Width: 576
VWidth: 0
GlyphClass: 2
Flags: HW
HStem: 0 21G<26 199.93 384.009 557.275> 679 20G<200.975 404.301> 679 20G<200.975 404.301>
VStem: 162 40<583.694 612>
LayerCount: 2
Back
SplineSet
155 582 m 257x90
 170 582 l 257
 230 302 l 257
 164 0 l 257
 26 0 l 257
 155 582 l 257x90
200 699 m 257xd0
 339 699 l 257
 490 0 l 257
 353 0 l 257
 333 85 l 257
 239 85 l 257
 269 223 l 257
 305 223 l 257
 200 699 l 257xd0
EndSplineSet
Fore
SplineSet
26 0 m 1x90
 162 612 l 1
 202 612 l 1
 277 317 l 1
 195 0 l 1
 26 0 l 1x90
325 243 m 1
 201 699 l 1
 400 699 l 1xd0
 557 -0 l 1
 390 0 l 1
 366 82 l 1
 247 82 l 1
 290 243 l 1
 325 243 l 1
EndSplineSet
EndChar

StartChar: AE
Encoding: 198 198 1
GlifName: A_E_
Width: 817
VWidth: 0
GlyphClass: 2
Flags: HW
LayerCount: 2
Back
SplineSet
701 141 m 257
 701 0 l 257
 337 0 l 257
 337 148 l 257
 272 148 l 257
 301 268 l 257
 337 268 l 257
 337 560 l 257
 320 560 l 257
 182 0 l 257
 26 0 l 257
 206 700 l 257
 701 700 l 257
 701 560 l 257
 483 560 l 257
 478 560 l 257
 478 418 l 257
 607 418 l 257
 607 277 l 257
 478 277 l 257
 478 141 l 257
 701 141 l 257
EndSplineSet
Fore
SplineSet
557 171 m 1
 795 171 l 1
 795 0 l 1
 361 0 l 1
 361 148 l 1
 281 148 l 1
 323 298 l 1
 361 298 l 1
 371 520 l 1
 213 -0 l 1
 26 0 l 1
 224 700 l 1
 795 700 l 1
 795 530 l 1
 550 530 l 1
 550 433 l 1
 701 433 l 1
 701 262 l 1
 557 262 l 1
 557 171 l 1
EndSplineSet
EndChar

StartChar: Aring
Encoding: 197 197 6
GlifName: A_ring
Width: 576
VWidth: 0
GlyphClass: 2
Flags: HW
LayerCount: 2
Back
SplineSet
173 765 m 256xbe
 173 818 216 861 269 861 c 256
 322 861 365 818 365 765 c 256
 365 739 355 716 339 699 c 257
 490 0 l 257
 353 0 l 257
 333 85 l 257
 239 85 l 257
 269 223 l 257
 305 223 l 257
 200 698 l 257
 183 715 173 739 173 765 c 256xbe
237 765 m 256
 237 747 251 733 269 733 c 256xde
 287 733 301 747 301 765 c 256
 301 783 287 797 269 797 c 256
 251 797 237 783 237 765 c 256
155 582 m 257
 170 582 l 257
 230 302 l 257
 164 0 l 257
 26 0 l 257
 155 582 l 257
EndSplineSet
Fore
SplineSet
207 679 m 1
 186 699 177 723 177 750 c 0
 177 811 233 861 305 861 c 0
 377 861 429 811 429 750 c 0
 429 724 419 701 404 683 c 1
 557 -0 l 1
 390 0 l 1
 366 82 l 1
 247 82 l 1
 290 243 l 1
 325 243 l 1
 207 679 l 1
305 767 m 0
 293 767 284 760 284 750 c 0
 284 740 293 733 305 733 c 0
 317 733 325 740 325 750 c 0
 325 760 317 767 305 767 c 0
26 0 m 1
 162 612 l 1
 202 612 l 1
 277 317 l 1
 195 0 l 1
 26 0 l 1
EndSplineSet
EndChar

StartChar: B
Encoding: 66 66 8
GlifName: B_
Width: 574
VWidth: 0
GlyphClass: 2
Flags: HW
LayerCount: 2
Back
SplineSet
221 122 m 257
 308 122 324 179 324 205 c 256
 324 227 311 289 221 289 c 257
 221 411 l 257
 281 411 322 446 322 497 c 256
 322 547 280 576 221 577 c 257
 221 700 l 257
 229 701 237 701 245 701 c 256
 397 701 454 574 454 514 c 258
 454 513 l 258
 453 421 420 378 385 352 c 257
 423 322 458 285 458 201 c 256
 458 199 458 198 458 197 c 256
 457 86 366 -2 249 -2 c 256
 240 -2 230 -1 221 0 c 257
 221 122 l 257
26 700 m 257
 167 700 l 257
 167 0 l 257
 26 0 l 257
 26 700 l 257
EndSplineSet
Fore
SplineSet
242 152 m 1
 262 152 l 2
 369 152 384 195 384 213 c 0
 384 228 373 274 262 274 c 0
 242 274 l 1
 245 426 l 1
 266 426 l 0
 334 426 381 454 381 493 c 0
 381 530 335 554 266 555 c 0
 245 555 l 1
 245 698 l 1
 264 700 l 0
 273 701 282 701 290 701 c 0
 482 701 544 571 544 507 c 0
 544 506 l 1
 543 426 516 380 484 352 c 1
 519 322 548 282 548 207 c 0
 548 203 l 1
 547 88 449 -2 301 -2 c 0
 287 -2 273 -1 260 0 c 0
 242 2 l 1
 242 152 l 1
26 0 m 1
 26 700 l 1
 210 700 l 1
 208 0 l 1
 26 0 l 1
EndSplineSet
EndChar

StartChar: C
Encoding: 67 67 9
GlifName: C_
Width: 554
VWidth: 0
GlyphClass: 2
Flags: HW
HStem: 685 20G<173.878 275.433 304.019 375.45>
VStem: 32 177<164.979 534.075>
LayerCount: 2
Back
SplineSet
283 564 m 257
 283 705 l 257
 375 705 468 612 468 516 c 257
 330 480 l 257
 330 495 l 258
 330 509 330 520 325 532 c 256
 315 555 283 564 283 564 c 257
283 136 m 257
 283 136 315 143 325 166 c 256
 330 178 330 189 330 203 c 258
 330 215 l 257
 468 182 l 257
 468 76 375 -5 283 -5 c 257
 283 136 l 257
229 705 m 257
 229 564 l 257
 183 563 173 523 173 518 c 257
 173 181 l 257
 173 176 183 136 229 136 c 257
 229 -5 l 257
 86 -5 32 121 32 181 c 257
 32 518 l 257
 32 578 86 705 229 705 c 257
EndSplineSet
Fore
SplineSet
317 535 m 0
 304 538 l 1
 304 705 l 1
 322 705 l 0
 429 705 528 606 528 501 c 0
 528 489 l 1
 360 446 l 1
 360 480 l 0
 360 494 359 502 355 511 c 1
 348 525 317 535 317 535 c 0
304 163 m 1
 318 166 l 2
 318 166 348 173 355 187 c 1
 359 196 360 204 360 218 c 0
 360 249 l 1
 528 209 l 1
 528 197 l 0
 528 82 428 -5 322 -5 c 0
 304 -5 l 1
 304 163 l 1
258 705 m 0
 275 705 l 1
 275 541 l 1
 258 541 l 0
 220 540 210 516 209 511 c 1
 209 188 l 1
 210 182 221 159 258 159 c 0
 275 159 l 1
 275 -5 l 1
 258 -5 l 0
 91 -5 32 125 32 188 c 0
 32 511 l 0
 32 574 91 705 258 705 c 0
EndSplineSet
EndChar

StartChar: D
Encoding: 68 68 11
GlifName: D_
Width: 542
VWidth: 0
GlyphClass: 2
Flags: HW
LayerCount: 2
Back
SplineSet
227 0 m 257xb8
 227 141 l 257
 233 141 282 149 283 197 c 258
 283 503 l 257
 283 508 275 558 227 559 c 257
 227 700 l 257
 370 700 424 566 424 503 c 257
 424 197 l 257
 424 50 287 0 227 0 c 257xb8
32 0 m 257
 32 700 l 257
 173 700 l 257
 173 0 l 257
 32 0 l 257
EndSplineSet
Fore
SplineSet
272 0 m 0
 257 0 l 1
 257 164 l 1
 272 164 l 1
 284 165 342 171 343 203 c 1
 343 496 l 1
 342 503 329 535 272 536 c 0
 257 536 l 1
 257 700 l 1
 272 700 l 0
 456 700 514 562 514 497 c 0
 514 203 l 0
 514 51 367 0 272 0 c 0
220 0 m 1
 32 0 l 1
 32 700 l 1
 220 700 l 1
 220 0 l 1
EndSplineSet
EndChar

StartChar: E
Encoding: 69 69 12
GlifName: E_
Width: 452
VWidth: 0
GlyphClass: 2
Flags: HW
HStem: 0 171<203 426> 262 171<203 332> 530 170<203 426>
VStem: 32 394<0 171 530 700> 32 171<171 262 433 530>
LayerCount: 2
Back
SplineSet
396 141 m 257xf0
 396 0 l 257
 32 0 l 257
 32 700 l 257
 396 700 l 257
 396 560 l 257xf0
 173 560 l 257
 173 418 l 257
 302 418 l 257
 302 277 l 257
 173 277 l 257
 173 141 l 257xe8
 396 141 l 257xf0
EndSplineSet
Fore
SplineSet
203 171 m 1xe8
 426 171 l 1
 426 0 l 1
 32 0 l 1
 32 700 l 1
 426 700 l 1
 426 530 l 1xf0
 203 530 l 1
 203 433 l 1
 332 433 l 1
 332 262 l 1
 203 262 l 1
 203 171 l 1xe8
EndSplineSet
EndChar

StartChar: EURO
Encoding: 256 8364 13
GlifName: E_U_R_O_
Width: 567
VWidth: 0
GlyphClass: 2
Flags: HW
LayerCount: 2
Back
SplineSet
278 698 m 257
 278 558 l 257
 239 543 236 532 236 488 c 258
 236 436 l 257
 408 436 l 257
 408 376 l 257
 236 376 l 257
 236 317 l 257
 408 317 l 257
 408 258 l 257
 236 258 l 257
 236 202 l 258
 236 155 254 154 278 141 c 257
 278 2 l 257
 197 8 168 45 134 90 c 256
 113 118 101 149 99 182 c 258
 99 258 l 257
 50 258 l 257
 50 317 l 257
 99 317 l 257
 99 377 l 257
 50 377 l 257
 50 436 l 257
 99 436 l 257
 99 496 l 258
 99 540 106 576 134 613 c 256
 172 666 217 696 278 698 c 257
338 698 m 257
 387 697 426 675 464 636 c 256
 501 598 517 544 517 514 c 257
 380 463 l 257
 381 501 l 258
 381 535 366 549 338 558 c 257
 338 698 l 257
338 2 m 257
 338 142 l 257
 366 151 381 165 381 199 c 258
 380 237 l 257
 517 186 l 257
 517 156 501 102 464 64 c 256
 426 25 387 3 338 2 c 257
EndSplineSet
Fore
SplineSet
323 -13 m 1
 323 153 l 1
 333 156 l 2
 357 164 366 172 366 199 c 2
 365 243 l 1
 251 243 l 1
 251 202 l 2
 251 162 259 168 285 154 c 2
 293 150 l 1
 293 -14 l 1
 277 -13 l 2
 191 -7 156 36 122 81 c 0
 99 111 86 145 84 181 c 2
 84 182 l 1
 84 243 l 1
 35 243 l 1
 35 332 l 1
 84 332 l 1
 84 362 l 1
 35 362 l 1
 35 451 l 1
 84 451 l 1
 84 496 l 2
 84 542 92 582 122 622 c 0
 162 677 212 711 278 713 c 2
 293 713 l 1
 293 548 l 1
 283 544 l 2
 249 531 251 530 251 488 c 2
 251 451 l 1
 365 451 l 1
 366 501 l 2
 366 528 357 536 333 544 c 2
 323 547 l 1
 323 713 l 1
 338 713 l 2
 392 712 435 687 475 646 c 0
 515 605 532 548 532 514 c 2
 532 504 l 1
 391 451 l 1
 423 451 l 1
 423 361 l 1
 251 361 l 1
 251 332 l 1
 423 332 l 1
 423 243 l 1
 407 243 l 1
 532 196 l 1
 532 186 l 2
 532 152 515 95 475 54 c 0
 435 13 392 -12 338 -13 c 2
 323 -13 l 1
EndSplineSet
EndChar

StartChar: Eth
Encoding: 208 208 18
GlifName: E_th
Width: 591
VWidth: 0
GlyphClass: 2
Flags: HW
LayerCount: 2
Back
SplineSet
278 0 m 257
 278 141 l 257
 284 141 333 149 334 197 c 258
 334 503 l 258
 334 508 326 558 278 559 c 257
 278 700 l 257
 421 700 475 566 475 503 c 258
 475 197 l 258
 475 50 338 0 278 0 c 257
224 420 m 257
 280 420 l 257
 280 292 l 257
 224 292 l 257
 224 0 l 257
 83 0 l 257
 83 292 l 257
 26 292 l 257
 26 420 l 257
 83 420 l 257
 83 700 l 257
 224 700 l 257
 224 420 l 257
EndSplineSet
Fore
SplineSet
323 0 m 0
 308 0 l 1
 308 164 l 1
 323 164 l 1
 335 165 393 171 394 203 c 1
 394 496 l 1
 393 503 380 535 323 536 c 0
 308 536 l 1
 308 700 l 1
 323 700 l 0
 507 700 565 562 565 497 c 0
 565 203 l 0
 565 51 418 0 323 0 c 0
271 700 m 1
 271 435 l 1
 352 435 l 1
 352 277 l 1
 271 277 l 1
 271 0 l 1
 83 0 l 1
 83 277 l 1
 26 277 l 1
 26 435 l 1
 83 435 l 1
 83 700 l 1
 271 700 l 1
EndSplineSet
EndChar

StartChar: F
Encoding: 70 70 19
GlifName: F_
Width: 482
VWidth: 0
GlyphClass: 2
Flags: HW
LayerCount: 2
Back
SplineSet
302 418 m 257xb8
 302 277 l 257
 173 277 l 257
 173 1 l 257
 32 1 l 257
 32 700 l 257
 396 700 l 257
 396 560 l 257
 173 560 l 257
 173 418 l 257
 302 418 l 257xb8
EndSplineSet
Fore
SplineSet
210 433 m 1
 362 433 l 1
 362 262 l 1
 210 262 l 1
 210 1 l 1
 32 1 l 1
 32 700 l 1
 456 700 l 1
 456 530 l 1
 210 530 l 1
 210 433 l 1
EndSplineSet
EndChar

StartChar: G
Encoding: 71 71 20
GlifName: G_
Width: 553
VWidth: 0
GlyphClass: 2
Flags: HW
LayerCount: 2
Back
SplineSet
276 564 m 257xf0
 276 705 l 257xf0
 369 705 461 612 461 516 c 257xe8
 323 465 l 257
 323 495 l 258
 323 509 323 520 318 532 c 256
 308 555 276 564 276 564 c 257xf0
461 353 m 257
 461 176 l 258
 461 95 358 -4 276 -5 c 257
 276 136 l 257xf0
 282 136 319 155 319 190 c 258
 319 223 l 257xe8
 276 223 l 257
 276 353 l 257
 461 353 l 257
222 -5 m 257
 162 -5 26 48 26 192 c 257
 26 524 l 257
 34 589 90 705 222 705 c 257
 222 564 l 257
 176 563 167 513 167 508 c 257
 167 192 l 258
 168 146 217 136 222 136 c 257
 222 -5 l 257
EndSplineSet
Fore
SplineSet
317 535 m 0
 306 538 l 1
 306 705 l 1
 321 705 l 0
 423 705 521 606 521 501 c 0
 521 491 l 1
 353 428 l 1
 353 480 l 0
 353 494 353 502 349 511 c 1
 343 525 317 535 317 535 c 0
306 383 m 1
 521 383 l 1
 521 191 l 0
 521 100 412 -4 321 -5 c 0
 306 -5 l 1
 306 166 l 1
 319 166 l 1
 328 169 349 185 349 205 c 0
 349 223 l 1
 306 223 l 1
 306 383 l 1
275 -5 m 1
 256 -5 l 2
 173 -5 26 49 26 198 c 0
 26 518 l 1
 26 519 l 0
 35 585 94 705 256 705 c 0
 275 705 l 1
 275 543 l 1
 257 543 l 0
 218 542 206 511 205 504 c 1
 205 205 l 1
 206 176 247 167 257 166 c 1
 275 166 l 1
 275 -5 l 1
EndSplineSet
EndChar

StartChar: H
Encoding: 72 72 21
GlifName: H_
Width: 518
VWidth: 0
GlyphClass: 2
Flags: HW
LayerCount: 2
Back
SplineSet
202 421 m 257xb0
 202 283 l 257xb0
 173 283 l 257
 173 0 l 257
 32 0 l 257xa8
 32 700 l 257xb0
 173 700 l 257
 173 421 l 257xa8
 202 421 l 257xb0
285 700 m 257xa2
 426 700 l 257
 426 0 l 257
 285 0 l 257
 285 283 l 257xa2
 256 283 l 257
 256 421 l 257xa4
 285 421 l 257
 285 700 l 257xa2
EndSplineSet
Fore
SplineSet
204 432 m 1
 249 432 l 1
 249 271 l 1
 204 271 l 1
 204 0 l 1
 32 0 l 1
 32 700 l 1
 204 700 l 1
 204 432 l 1
315 432 m 1
 315 700 l 1
 486 700 l 1
 486 0 l 1
 315 0 l 1
 315 271 l 1
 286 271 l 1
 286 432 l 1
 315 432 l 1
EndSplineSet
EndChar

StartChar: HKD
Encoding: 257 22291 22
GlifName: H_K_D_
Width: 843
VWidth: 0
GlyphClass: 2
Flags: HW
LayerCount: 2
Back
SplineSet
101 614 m 257x62
 101 573 l 257x62
 92 573 l 257x52
 92 488 l 257
 50 488 l 257x92
 50 698 l 257xa2
 92 698 l 257x92
 92 614 l 257x52
 101 614 l 257x62
283 698 m 257x82
 325 698 l 257
 299 611 l 257
 326 488 l 257
 284 488 l 257
 257 611 l 257
 283 698 l 257x82
198 698 m 257
 241 698 l 257
 241 488 l 257
 198 488 l 257
 198 698 l 257
126 698 m 257x86
 169 698 l 257
 169 488 l 257
 126 488 l 257x86
 126 573 l 257x46
 117 573 l 257
 117 614 l 257x4a
 126 614 l 257x46
 126 698 l 257x86
EndSplineSet
Refer: 105 36 N 1 0 0 1 322 0 2
Fore
SplineSet
272 713 m 1
 345 713 l 1
 314 610 l 1
 345 473 l 1
 272 473 l 1
 256 546 l 1
 256 473 l 1
 184 473 l 1
 183 473 l 1
 111 473 l 1
 111 558 l 1
 107 558 l 1
 107 473 l 1
 35 473 l 1
 35 713 l 1
 107 713 l 1
 107 629 l 1
 111 629 l 1
 111 713 l 1
 183 713 l 1
 184 713 l 1
 256 713 l 1
 256 660 l 1
 272 713 l 1
EndSplineSet
Refer: 105 36 N 1 0 0 1 322 0 2
EndChar

StartChar: I
Encoding: 73 73 23
GlifName: I_
Width: 239
VWidth: 0
GlyphClass: 2
Flags: HW
HStem: 0 21G<34 205> 680 20G<34 205>
VStem: 34 171<0 700>
LayerCount: 2
Back
SplineSet
34 700 m 257
 175 700 l 257
 175 0 l 257
 34 0 l 257
 34 700 l 257
EndSplineSet
Fore
SplineSet
34 0 m 1
 34 700 l 1
 205 700 l 1
 205 0 l 1
 34 0 l 1
EndSplineSet
EndChar

StartChar: J
Encoding: 74 74 28
GlifName: J_
Width: 555
VWidth: 0
GlyphClass: 2
Flags: HW
LayerCount: 2
Back
SplineSet
213 -5 m 257
 153 -5 26 54 26 193 c 257
 26 242 l 257
 167 242 l 257
 167 193 l 258
 168 147 208 137 213 137 c 257
 213 -5 l 257
267 -5 m 257
 267 137 l 257
 272 137 322 147 323 193 c 258
 323 700 l 257
 463 700 l 257
 463 193 l 257
 463 49 327 -5 267 -5 c 257
EndSplineSet
Fore
SplineSet
258 -5 m 1
 240 -5 l 2
 162 -5 26 58 26 208 c 0
 26 272 l 1
 203 272 l 1
 203 208 l 1
 204 176 233 168 240 167 c 1
 258 167 l 1
 258 -5 l 1
304 -5 m 0
 286 -5 l 1
 286 167 l 1
 304 167 l 1
 315 168 352 178 353 206 c 1
 353 700 l 1
 523 700 l 1
 523 199 l 0
 523 50 377 -5 304 -5 c 0
EndSplineSet
EndChar

StartChar: K
Encoding: 75 75 29
GlifName: K_
Width: 535
VWidth: 0
GlyphClass: 2
Flags: HW
LayerCount: 2
Back
SplineSet
314 700 m 257xb0
 453 700 l 257
 347 341 l 257
 457 0 l 257
 319 0 l 257
 207 341 l 257
 314 700 l 257xb0
26 700 m 257
 167 700 l 257
 167 0 l 257
 26 0 l 257
 26 700 l 257
EndSplineSet
Fore
SplineSet
214 341 m 1
 348 700 l 1
 518 700 l 1
 408 342 l 1
 523 -0 l 1
 353 0 l 1
 214 341 l 1
26 0 m 1
 26 700 l 1
 203 700 l 1
 203 0 l 1
 26 0 l 1
EndSplineSet
EndChar

StartChar: L
Encoding: 76 76 30
GlifName: L_
Width: 488
VWidth: 0
GlyphClass: 2
Flags: HW
LayerCount: 2
Back
SplineSet
402 139 m 257
 402 0 l 257
 26 0 l 257
 26 700 l 257
 167 700 l 257
 167 139 l 257
 402 139 l 257
EndSplineSet
Fore
SplineSet
203 169 m 1
 462 169 l 1
 462 0 l 1
 26 0 l 1
 26 700 l 1
 203 700 l 1
 203 169 l 1
EndSplineSet
EndChar

StartChar: Lslash
Encoding: 258 321 31
GlifName: L_slash
Width: 590
VWidth: 0
GlyphClass: 2
Flags: HW
LayerCount: 2
Back
SplineSet
348 553 m 257
 420 460 l 257
 270 343 l 257
 270 139 l 257
 505 139 l 257
 505 0 l 257
 129 0 l 257
 129 233 l 257
 98 209 l 257
 26 302 l 257
 129 382 l 257
 129 700 l 257
 270 700 l 257
 270 492 l 257
 348 553 l 257
EndSplineSet
Fore
SplineSet
313 518 m 1
 392 567 l 1
 492 456 l 1
 313 341 l 1
 313 169 l 1
 571 169 l 1
 571 0 l 1
 135 0 l 1
 135 208 l 1
 116 195 l 1
 26 307 l 1
 135 388 l 1
 135 700 l 1
 313 700 l 1
 313 518 l 1
EndSplineSet
EndChar

StartChar: M
Encoding: 77 77 32
GlifName: M_
Width: 766
VWidth: 0
GlyphClass: 2
Flags: HW
LayerCount: 2
Back
SplineSet
32 0 m 257xb8
 32 444 l 257
 41 444 l 257
 173 127 l 257
 173 0 l 257
 32 0 l 257xb8
32 700 m 257
 142 700 l 257
 333 237 l 257
 439 476 l 257
 449 476 l 257
 449 151 l 257
 382 0 l 257
 285 0 l 257
 32 608 l 257
 32 700 l 257
503 700 m 257
 644 700 l 257
 644 0 l 257
 503 0 l 257
 503 700 l 257
EndSplineSet
Fore
SplineSet
211 0 m 1
 32 0 l 1
 32 474 l 1
 66 474 l 1
 211 145 l 1
 211 0 l 1
32 595 m 1
 32 700 l 1
 167 700 l 1
 378 278 l 1
 469 485 l 1
 507 485 l 1
 532 156 l 1
 437 -0 l 1
 320 0 l 1
 32 595 l 1
563 0 m 1
 533 700 l 1
 704 700 l 1
 734 0 l 1
 563 0 l 1
EndSplineSet
EndChar

StartChar: N
Encoding: 78 78 33
GlifName: N_
Width: 569
VWidth: 0
GlyphClass: 2
Flags: HW
HStem: 0 21G<32 206.694 432.685 537> 680 20G<32 184.437 366 537>
VStem: 32 175<0 297.281> 366 171<478.719 700>
LayerCount: 2
Back
SplineSet
32 0 m 257
 32 492 l 257
 40 492 l 257
 173 278 l 257
 173 0 l 257
 32 0 l 257
477 700 m 257
 477 284 l 257
 469 284 l 257
 336 498 l 257
 336 700 l 257
 477 700 l 257
32 700 m 257
 147 700 l 257
 477 168 l 257
 477 0 l 257
 410 0 l 257
 32 608 l 257
 32 700 l 257
EndSplineSet
Fore
SplineSet
207 0 m 1
 32 0 l 1
 32 522 l 1
 63 522 l 1
 207 297 l 1
 207 0 l 1
366 700 m 1
 537 700 l 1
 537 254 l 1
 506 254 l 1
 366 479 l 1
 366 700 l 1
32 593 m 1
 32 700 l 1
 170 700 l 1
 537 180 l 1
 537 0 l 1
 447 0 l 1
 32 593 l 1
EndSplineSet
EndChar

StartChar: O
Encoding: 79 79 35
GlifName: O_
Width: 568
VWidth: 0
GlyphClass: 2
Flags: HW
HStem: -5 172<213.178 271.361 300.88 357.282> 543 162<220.062 272.542 300.88 358.337>
VStem: 30 176<180.926 533.051> 367 171<180.917 532.874>
LayerCount: 2
Back
SplineSet
226 -5 m 257
 166 -5 30 51 30 195 c 258
 30 524 l 258
 30 584 95 705 227 705 c 257
 227 564 l 257
 181 563 171 513 171 508 c 258
 171 195 l 258
 171 149 221 137 226 137 c 257
 226 -5 l 257
281 -5 m 257
 281 137 l 257
 286 137 336 149 337 195 c 258
 337 508 l 258
 337 513 327 563 281 564 c 257
 281 705 l 257
 412 705 478 583 478 524 c 258
 478 195 l 258
 478 51 341 -5 281 -5 c 257
EndSplineSet
Fore
SplineSet
271 -5 m 1
 254 -5 l 2
 177 -5 30 52 30 201 c 0
 30 517 l 0
 30 581 100 705 255 705 c 0
 273 705 l 1
 273 543 l 1
 255 543 l 0
 218 542 207 511 206 504 c 1
 206 208 l 0
 206 179 244 168 254 167 c 1
 271 167 l 1
 271 -5 l 1
319 -5 m 0
 301 -5 l 1
 301 167 l 1
 318 167 l 1
 329 169 366 180 367 208 c 1
 367 504 l 1
 366 512 354 542 318 543 c 0
 301 543 l 1
 301 705 l 1
 319 705 l 0
 468 705 538 581 538 517 c 0
 538 201 l 0
 538 52 392 -5 319 -5 c 0
EndSplineSet
EndChar

StartChar: OE
Encoding: 259 338 36
GlifName: O_E_
Width: 814
VWidth: 0
GlyphClass: 2
Flags: HW
LayerCount: 2
Back
SplineSet
698 141 m 257
 698 0 l 257
 277 0 l 257
 277 142 l 257
 334 142 l 257
 334 559 l 257
 277 559 l 257
 277 700 l 257
 698 700 l 257
 698 560 l 257
 475 560 l 257
 475 418 l 257
 604 418 l 257
 604 277 l 257
 475 277 l 257
 475 141 l 257
 698 141 l 257
222 0 m 257
 162 0 26 56 26 200 c 258
 26 519 l 258
 26 579 91 700 223 700 c 257
 223 559 l 257
 177 558 167 508 167 503 c 258
 167 200 l 258
 167 154 217 142 222 142 c 257
 222 0 l 257
EndSplineSet
Fore
SplineSet
565 171 m 1
 788 171 l 1
 788 0 l 1
 316 0 l 1
 316 172 l 1
 394 172 l 1
 394 529 l 1
 316 529 l 1
 316 700 l 1
 788 700 l 1
 788 530 l 1
 565 530 l 1
 565 433 l 1
 694 433 l 1
 694 262 l 1
 565 262 l 1
 565 171 l 1
282 0 m 1
 267 0 l 2
 173 0 26 57 26 206 c 0
 26 512 l 0
 26 576 96 700 268 700 c 0
 283 700 l 1
 283 538 l 1
 268 538 l 0
 224 537 211 506 210 499 c 1
 210 213 l 0
 210 184 256 173 268 172 c 1
 282 172 l 1
 282 0 l 1
EndSplineSet
EndChar

StartChar: Oslash
Encoding: 216 216 41
GlifName: O_slash
Width: 722
VWidth: 0
GlyphClass: 2
Flags: HW
LayerCount: 2
Back
SplineSet
584 658 m 257
 662 570 l 257
 556 474 l 257
 556 195 l 258
 556 51 419 -5 359 -5 c 257
 359 137 l 257
 364 137 414 149 415 195 c 258
 415 347 l 257
 249 197 l 257
 249 195 l 258
 249 149 299 137 304 137 c 257
 304 -5 l 257
 261 -5 178 24 135 94 c 257
 78 43 l 257
 0 131 l 257
 108 228 l 257
 108 524 l 258
 108 584 173 705 305 705 c 257
 305 564 l 257
 259 563 249 513 249 508 c 258
 249 356 l 257
 415 505 l 257
 415 508 l 258
 415 513 405 563 359 564 c 257
 359 705 l 257
 441 705 497 658 528 607 c 257
 584 658 l 257
EndSplineSet
Fore
SplineSet
579 619 m 1
 636 666 l 1
 734 560 l 1
 622 463 l 1
 652 201 l 0
 652 52 476 -5 407 -5 c 0
 390 -5 l 1
 390 167 l 1
 406 167 l 1
 416 169 450 180 451 210 c 1
 451 328 l 1
 302 206 l 1
 305 179 338 168 347 167 c 1
 362 167 l 1
 362 -5 l 1
 346 -5 l 0
 296 -5 209 21 156 83 c 1
 98 35 l 1
 0 141 l 1
 114 239 l 1
 114 517 l 0
 114 581 184 705 333 705 c 0
 349 705 l 1
 349 534 l 1
 333 534 l 0
 299 533 289 500 288 493 c 1
 288 375 l 1
 436 496 l 1
 432 510 421 533 392 534 c 0
 376 534 l 1
 376 705 l 1
 392 705 l 0
 479 705 542 665 579 619 c 1
EndSplineSet
EndChar

StartChar: P
Encoding: 80 80 43
GlifName: P_
Width: 564
VWidth: 0
GlyphClass: 2
Flags: HW
LayerCount: 2
Back
SplineSet
221 457 m 257x3c
 254 457 l 258
 261 457 305 458 305 508 c 256
 305 559 263 561 254 561 c 258
 221 561 l 257
 221 700 l 257
 402 700 448 626 448 512 c 256
 448 369 378 318 221 318 c 257
 221 457 l 257x3c
26 700 m 257
 167 700 l 257
 167 0 l 257
 26 0 l 257xbc
 26 700 l 257
EndSplineSet
Fore
SplineSet
251 303 m 1
 251 472 l 1
 313 472 l 0
 323 472 365 472 365 501 c 0
 365 531 325 531 313 531 c 0
 251 531 l 1
 251 700 l 1
 266 700 l 0
 483 700 538 621 538 504 c 0
 538 358 457 303 266 303 c 0
 251 303 l 1
26 0 m 1
 26 700 l 1
 214 700 l 1
 214 0 l 1
 26 0 l 1
EndSplineSet
EndChar

StartChar: Percent_sign
Encoding: 37 37 44
GlifName: P_ercent_sign
Width: 689
VWidth: 0
GlyphClass: 2
Flags: HW
LayerCount: 2
Back
SplineSet
160 -23 m 257
 335 716 l 257
 461 716 l 257
 287 -23 l 257
 160 -23 l 257
26 575 m 256
 26 635 74 683 134 683 c 256
 194 683 242 635 242 575 c 256
 242 515 194 467 134 467 c 256
 74 467 26 515 26 575 c 256
387 117 m 256
 387 177 435 225 495 225 c 256
 555 225 603 177 603 117 c 256
 603 57 555 9 495 9 c 256
 435 9 387 57 387 117 c 256
EndSplineSet
Fore
SplineSet
335 -23 m 1
 157 -23 l 1
 354 716 l 1
 524 716 l 1
 335 -23 l 1
149 452 m 0
 81 452 26 507 26 575 c 0
 26 643 81 698 149 698 c 0
 223 698 282 643 282 575 c 0
 282 507 223 452 149 452 c 0
540 -6 m 0
 472 -6 417 49 417 117 c 0
 417 185 472 240 540 240 c 0
 608 240 663 185 663 117 c 0
 663 49 608 -6 540 -6 c 0
EndSplineSet
EndChar

StartChar: Q
Encoding: 81 81 45
GlifName: Q_
Width: 560
VWidth: 0
GlyphClass: 2
Flags: HW
LayerCount: 2
Back
SplineSet
222 -5 m 257
 162 -5 26 51 26 195 c 258
 26 524 l 258
 26 584 91 705 223 705 c 257
 223 564 l 257
 177 563 167 513 167 508 c 258
 167 195 l 258
 167 149 217 137 222 137 c 257
 222 -5 l 257
405 47 m 257
 460 -32 l 257
 348 -107 l 257
 277 -5 l 257
 277 137 l 257
 282 137 332 149 333 195 c 258
 333 508 l 258
 333 513 323 563 277 564 c 257
 277 705 l 257
 408 705 474 583 474 524 c 258
 474 195 l 258
 474 127 444 79 405 47 c 257
EndSplineSet
Fore
SplineSet
267 -5 m 1
 250 -5 l 2
 173 -5 26 52 26 201 c 0
 26 517 l 0
 26 581 96 705 251 705 c 0
 269 705 l 1
 269 541 l 1
 251 541 l 0
 214 540 203 508 202 501 c 1
 202 201 l 0
 202 172 240 161 250 160 c 1
 267 160 l 1
 267 -5 l 1
534 201 m 0
 534 137 507 89 470 56 c 1
 526 -21 l 1
 389 -113 l 1
 297 5 l 1
 297 160 l 1
 314 160 l 1
 325 162 362 173 363 202 c 1
 363 501 l 1
 362 509 350 540 314 541 c 0
 297 541 l 1
 297 705 l 1
 315 705 l 0
 464 705 534 581 534 517 c 0
 534 201 l 0
EndSplineSet
EndChar

StartChar: R
Encoding: 82 82 46
GlifName: R_
Width: 585
VWidth: 0
GlyphClass: 2
Flags: HW
LayerCount: 2
Back
SplineSet
227 411 m 257xbc
 240 411 l 258
 300 411 326 447 326 488 c 256
 326 536 289 567 240 567 c 258
 227 567 l 257
 227 700 l 257
 377 700 453 616 453 496 c 256
 453 428 432 381 386 352 c 257
 422 325 448 266 452 217 c 258
 469 0 l 257
 343 0 l 257
 328 178 l 258
 321 257 298 285 227 286 c 257
 227 411 l 257xbc
32 700 m 257
 173 700 l 257
 173 0 l 257
 32 0 l 257
 32 700 l 257
EndSplineSet
Fore
SplineSet
248 276 m 1
 257 426 l 1
 290 426 l 0
 361 426 386 452 386 481 c 0
 386 515 348 537 290 537 c 0
 257 537 l 1
 257 700 l 1
 272 700 l 0
 459 700 543 613 543 490 c 0
 543 429 525 382 485 351 c 1
 518 318 538 268 542 224 c 1
 560 -0 l 1
 404 0 l 1
 388 185 l 1
 380 258 357 275 269 276 c 0
 248 276 l 1
32 0 m 1
 32 700 l 1
 220 700 l 1
 215 0 l 1
 32 0 l 1
EndSplineSet
EndChar

StartChar: S
Encoding: 83 83 47
GlifName: S_
Width: 587
VWidth: 0
GlyphClass: 2
Flags: HW
HStem: 680 20G<260.899 276.194 331.194 404.585>
VStem: 393 171<161.241 243.81>
LayerCount: 2
Back
SplineSet
216 700 m 257
 216 568 l 257
 195 562 175 537 175 513 c 256
 175 446 279 434 346 394 c 256
 407 358 474 311 474 209 c 256
 474 96 379 -3 271 -3 c 257
 271 127 l 257
 295 130 333 150 333 203 c 256
 333 278 224 294 164 323 c 256
 93 357 41 403 41 508 c 256
 41 647 165 699 216 700 c 257
271 700 m 257
 377 700 440 589 446 553 c 257
 316 510 l 257
 311 557 271 568 271 568 c 257
 271 700 l 257
216 -3 m 257
 107 -3 34 103 33 158 c 257
 160 203 l 257
 162 147 216 127 216 127 c 257
 216 -3 l 257
EndSplineSet
Fore
SplineSet
261 700 m 0
 276 700 l 1
 276 548 l 1
 265 545 l 0
 246 541 221 522 221 506 c 0
 221 456 353 449 429 405 c 1
 490 370 564 321 564 215 c 0
 564 99 463 -3 346 -3 c 0
 331 -3 l 1
 331 149 l 1
 344 150 l 0
 363 152 393 167 393 209 c 0
 393 266 271 279 173 311 c 1
 99 345 41 394 41 501 c 0
 41 645 174 699 261 700 c 0
331 700 m 1
 346 700 l 2
 463 700 529 581 536 540 c 0
 538 528 l 1
 378 475 l 1
 376 493 l 0
 372 529 343 539 342 539 c 1
 331 542 l 1
 331 700 l 1
276 -3 m 1
 261 -3 l 2
 113 -3 34 109 33 173 c 0
 33 184 l 1
 197 239 l 1
 198 219 l 0
 200 175 265 157 266 156 c 0
 276 152 l 1
 276 -3 l 1
EndSplineSet
EndChar

StartChar: T
Encoding: 84 84 49
GlifName: T_
Width: 575
VWidth: 0
GlyphClass: 2
Flags: HW
LayerCount: 2
Back
SplineSet
459 700 m 257xb0
 459 562 l 257
 313 562 l 257
 313 0 l 257
 172 0 l 257
 172 562 l 257
 26 562 l 257
 26 700 l 257
 459 700 l 257xb0
EndSplineSet
Fore
SplineSet
26 700 m 1
 549 700 l 1
 549 532 l 1
 390 532 l 1
 390 0 l 1
 202 0 l 1
 202 532 l 1
 26 532 l 1
 26 700 l 1
EndSplineSet
EndChar

StartChar: Thorn
Encoding: 222 222 50
GlifName: T_horn
Width: 534
VWidth: 0
GlyphClass: 2
Flags: HW
LayerCount: 2
Back
SplineSet
221 347 m 257x3e
 254 347 l 258
 261 347 305 348 305 398 c 256
 305 449 263 451 254 451 c 258
 221 451 l 257
 221 590 l 257
 402 590 448 516 448 402 c 256
 448 259 378 208 221 208 c 257
 221 347 l 257x3e
26 700 m 257
 167 700 l 257
 167 0 l 257
 26 0 l 257xbe
 26 700 l 257
EndSplineSet
Fore
SplineSet
233 193 m 1
 233 362 l 1
 291 362 l 0
 299 362 335 362 335 398 c 0
 335 436 301 436 291 436 c 0
 233 436 l 1
 233 605 l 1
 251 605 l 0
 453 605 508 523 508 402 c 0
 508 250 427 193 251 193 c 0
 233 193 l 1
26 0 m 1
 26 700 l 1
 204 700 l 1
 204 0 l 1
 26 0 l 1
EndSplineSet
EndChar

StartChar: TradeMarkSign
Encoding: 261 8482 51
GlifName: T_radeM_arkS_ign
Width: 403
VWidth: 0
GlyphClass: 2
Flags: HW
LayerCount: 2
Back
SplineSet
188 484 m 257
 188 628 l 257
 191 628 l 257
 236 522 l 257
 236 484 l 257
 188 484 l 257
188 700 m 257
 225 700 l 257
 281 564 l 257
 313 636 l 257
 317 636 l 257
 317 529 l 257
 298 484 l 257
 265 484 l 257
 188 669 l 257
 188 700 l 257
330 700 m 257
 377 700 l 257
 377 484 l 257
 330 484 l 257
 330 700 l 257
165 700 m 257
 165 653 l 257
 120 653 l 257
 120 484 l 257
 72 484 l 257
 72 653 l 257
 26 653 l 257
 26 700 l 257
 165 700 l 257
EndSplineSet
Fore
SplineSet
315 715 m 1
 392 715 l 1
 392 469 l 1
 315 469 l 1
 315 486 l 1
 308 469 l 1
 255 469 l 1
 251 479 l 1
 251 469 l 1
 173 469 l 1
 173 638 l 1
 135 638 l 1
 135 469 l 1
 57 469 l 1
 57 638 l 1
 11 638 l 1
 11 715 l 1
 173 715 l 1
 180 715 l 1
 235 715 l 1
 282 602 l 1
 303 651 l 1
 315 651 l 1
 315 715 l 1
180 649 m 1
 180 643 l 1
 183 643 l 1
 180 649 l 1
EndSplineSet
EndChar

StartChar: U
Encoding: 85 85 52
GlifName: U_
Width: 572
VWidth: 0
GlyphClass: 2
Flags: HW
HStem: -5 172<216.408 274.542 302.88 359.467> 680 20G<32 208.422 369 539>
VStem: 32 176<178.939 700> 369 170<178.831 700>
LayerCount: 2
Back
SplineSet
229 -5 m 257
 169 -5 32 49 32 193 c 258
 32 700 l 257
 173 700 l 257
 173 193 l 257
 174 147 224 137 229 137 c 257
 229 -5 l 257
283 -5 m 257
 283 137 l 257
 288 137 338 147 339 193 c 257
 339 700 l 257
 479 700 l 257
 479 193 l 258
 479 48 344 -5 283 -5 c 257
EndSplineSet
Fore
SplineSet
275 -5 m 1
 257 -5 l 2
 180 -5 32 50 32 199 c 0
 32 700 l 1
 208 700 l 1
 208 206 l 1
 209 177 247 168 257 167 c 1
 275 167 l 1
 275 -5 l 1
321 -5 m 0
 303 -5 l 1
 303 167 l 1
 320 167 l 1
 331 168 368 178 369 206 c 1
 369 700 l 1
 539 700 l 1
 539 199 l 0
 539 49 395 -5 321 -5 c 0
EndSplineSet
EndChar

StartChar: V
Encoding: 86 86 57
GlifName: V_
Width: 568
VWidth: 0
GlyphClass: 2
Flags: HW
LayerCount: 2
Back
SplineSet
26 700 m 257xa0
 170 700 l 257
 329 158 l 257
 276 0 l 257
 229 0 l 257
 26 700 l 257xa0
482 700 m 257
 442 569 401 430 359 290 c 257
 349 290 l 257
 283 514 l 257
 338 700 l 257
 482 700 l 257
EndSplineSet
Fore
SplineSet
245 0 m 1
 26 700 l 1
 201 700 l 1
 395 166 l 1
 329 0 l 1
 245 0 l 1
552 700 m 1
 546 681 l 2
 506 550 465 411 423 271 c 0
 420 260 l 1
 388 260 l 1
 305 499 l 1
 377 700 l 1
 552 700 l 1
EndSplineSet
EndChar

StartChar: W
Encoding: 87 87 58
GlifName: W_
Width: 815
VWidth: 0
GlyphClass: 2
Flags: HW
LayerCount: 2
Back
SplineSet
26 700 m 257xa0
 170 700 l 257
 328 158 l 257
 276 0 l 257
 229 0 l 257
 26 700 l 257xa0
239 700 m 257
 383 700 l 257
 541 158 l 257
 489 0 l 257
 442 0 l 257
 239 700 l 257
699 700 m 257
 576 290 l 257
 566 290 l 257
 500 514 l 257
 555 700 l 257
 699 700 l 257
EndSplineSet
Fore
SplineSet
238 0 m 1
 26 700 l 1
 201 700 l 1
 376 166 l 1
 307 -0 l 1
 238 0 l 1
481 0 m 1
 269 700 l 1
 444 700 l 1
 607 166 l 1
 550 -0 l 1
 481 0 l 1
624 700 m 1
 799 700 l 1
 637 260 l 1
 605 260 l 1
 552 499 l 1
 624 700 l 1
EndSplineSet
EndChar

StartChar: X
Encoding: 88 88 59
GlifName: X_
Width: 524
VWidth: 0
GlyphClass: 2
Flags: HW
LayerCount: 2
Back
SplineSet
426 700 m 257xa0
 302 361 l 257
 438 0 l 257
 293 0 l 257
 232 167 l 257
 171 0 l 257
 26 0 l 257
 162 361 l 257
 38 700 l 257
 175 700 l 257
 232 548 l 257
 289 700 l 257
 426 700 l 257xa0
EndSplineSet
Fore
SplineSet
330 700 m 1
 499 700 l 1
 370 361 l 1
 511 0 l 1
 334 0 l 1
 269 138 l 1
 203 0 l 1
 26 0 l 1
 168 361 l 1
 38 700 l 1
 207 700 l 1
 269 576 l 1
 330 700 l 1
EndSplineSet
EndChar

StartChar: Y
Encoding: 89 89 60
GlifName: Y_
Width: 539
VWidth: 0
GlyphClass: 2
Flags: HW
HStem: 0 21G<162.015 368.015> 680 20G<26 211.7 339.415 523.086>
VStem: 162 206<0 259.035>
LayerCount: 2
Back
SplineSet
26 700 m 257
 173 700 l 257
 303 253 l 257
 303 0 l 257
 157 0 l 257
 157 252 l 257
 26 700 l 257
269 565 m 257
 308 700 l 257
 453 700 l 257
 344 331 l 257
 335 331 l 257
 269 565 l 257
EndSplineSet
Fore
SplineSet
162 254 m 1
 26 700 l 1
 204 700 l 1
 368 259 l 1
 368 0 l 1
 162 0 l 1
 162 254 l 1
374 301 m 1
 292 550 l 1
 347 700 l 1
 523 700 l 1
 405 301 l 1
 374 301 l 1
EndSplineSet
EndChar

StartChar: Z
Encoding: 90 90 63
GlifName: Z_
Width: 448
VWidth: 0
GlyphClass: 2
Flags: HW
HStem: 0 174<221.297 422> 530 170<26 226.703>
VStem: 26 396<0 151.001 552.845 700>
LayerCount: 2
Back
SplineSet
182 144 m 257
 392 144 l 257
 392 0 l 257
 26 0 l 257
 26 141 l 257
 236 560 l 257
 26 560 l 257
 26 700 l 257
 392 700 l 257
 392 563 l 257
 182 144 l 257
EndSplineSet
Fore
SplineSet
422 553 m 1
 221 174 l 1
 422 174 l 1
 422 0 l 1
 26 0 l 1
 26 151 l 1
 227 530 l 1
 26 530 l 1
 26 700 l 1
 422 700 l 1
 422 553 l 1
EndSplineSet
EndChar

StartChar: a
Encoding: 97 97 65
GlifName: a
Width: 585
VWidth: 0
GlyphClass: 2
Flags: HW
HStem: 1 142<172.77 240 289 355.945 527.809 560> 390 129<286.421 356.628>
VStem: 26 214<68.1842 143 377 432.927> 358 170<147.813 218.155 334.063 380.993>
LayerCount: 2
Back
SplineSet
228 519 m 257
 231 519 l 258
 334 519 384 424 384 380 c 258
 384 143 l 258
 384 138 386 114 407 114 c 258
 410 114 l 257
 410 1 l 257
 407 1 l 258
 370 1 341 13 321 30 c 257
 298 12 268 1 232 1 c 258
 229 1 l 257
 229 113 l 257
 232 113 l 258
 262 114 268 146 268 149 c 258
 268 227 l 257
 230 205 153 190 139 183 c 256
 133 180 127 173 127 162 c 258
 127 149 l 258
 127 129 137 113 163 113 c 258
 180 113 l 257
 180 1 l 257
 83 1 26 64 26 121 c 258
 26 167 l 258
 26 200 33 233 75 257 c 256
 118 282 268 311 268 351 c 256
 268 355 268 359 268 363 c 256
 268 387 266 404 231 407 c 256
 228 408 l 257
 228 519 l 257
181 407 m 257
 178 407 l 258
 155 405 138 390 138 353 c 258
 138 349 l 257
 33 389 l 257
 33 391 l 258
 33 462 110 519 178 519 c 258
 181 519 l 257
 181 407 l 257
EndSplineSet
Fore
SplineSet
286 390 m 1
 286 519 l 1
 306 519 l 0
 449 519 528 423 528 376 c 0
 528 157 l 0
 528 151 533 144 542 144 c 0
 560 144 l 1
 560 1 l 1
 542 1 l 0
 479 1 448 11 426 26 c 1
 401 10 371 1 307 1 c 0
 289 1 l 1
 289 143 l 1
 307 143 l 1
 342 143 355 159 358 165 c 1
 358 218 l 1
 281 201 186 189 176 185 c 0
 174 184 170 182 170 177 c 0
 170 164 l 0
 170 150 175 143 200 143 c 0
 240 143 l 1
 240 1 l 1
 225 1 l 0
 92 1 26 65 26 129 c 0
 26 172 l 0
 26 205 35 243 83 269 c 1
 142 299 358 326 358 346 c 0
 358 357 l 0
 358 378 360 383 305 385 c 0
 303 385 l 1
 286 390 l 1
243 519 m 1
 243 377 l 1
 223 377 l 1
 202 376 186 369 186 338 c 0
 186 312 l 1
 33 364 l 1
 33 376 l 0
 33 458 119 519 222 519 c 0
 243 519 l 1
EndSplineSet
EndChar

StartChar: acute
Encoding: 180 180 68
GlifName: acute
Width: 263
VWidth: 0
GlyphClass: 2
Flags: HW
LayerCount: 2
Back
SplineSet
141 605 m 257
 50 605 l 257
 87 757 l 257
 214 757 l 257
 141 605 l 257
EndSplineSet
Fore
SplineSet
150 590 m 1
 31 590 l 1
 75 772 l 1
 238 772 l 1
 150 590 l 1
EndSplineSet
EndChar

StartChar: ae
Encoding: 230 230 70
GlifName: ae
Width: 816
VWidth: 0
GlyphClass: 2
Flags: HW
LayerCount: 2
Back
SplineSet
482 402 m 258
 478 402 l 257
 478 516 l 257
 484 516 l 258
 554 516 639 450 639 378 c 258
 639 208 l 257
 384 208 l 257
 384 143 l 258
 384 121 400 109 425 108 c 258
 484 108 l 258
 517 108 536 134 541 157 c 257
 640 120 l 257
 624 55 555 0 484 0 c 258
 425 0 l 258
 380 0 345 9 321 30 c 257
 298 12 268 1 232 1 c 258
 229 1 l 257
 229 113 l 257
 232 113 l 258
 262 114 268 146 268 149 c 258
 268 227 l 257
 230 205 153 190 139 183 c 256
 133 180 127 173 127 162 c 258
 127 149 l 258
 127 129 137 113 163 113 c 258
 180 113 l 257
 180 1 l 257
 83 1 26 53 26 110 c 258
 26 180 l 258
 26 213 33 233 75 257 c 256
 118 282 268 311 268 351 c 258
 268 363 l 258
 268 387 266 407 231 407 c 258
 178 407 l 258
 155 407 138 390 138 353 c 258
 138 349 l 257
 33 389 l 257
 33 391 l 258
 33 462 110 519 178 519 c 258
 233 519 l 258
 273 519 305 504 329 483 c 257
 353 502 385 516 424 516 c 258
 429 516 l 257
 429 400 l 257
 426 400 l 258
 400 400 387 385 384 373 c 258
 384 324 l 257
 525 324 l 257
 525 369 l 258
 525 396 502 402 482 402 c 258
EndSplineSet
Fore
SplineSet
555 360 m 0
 555 370 544 372 521 372 c 2
 498 372 l 1
 498 516 l 1
 523 516 l 0
 605 516 699 449 699 370 c 0
 789 193 l 1
 520 193 l 1
 520 147 l 0
 520 136 529 129 560 128 c 1
 619 128 l 0
 643 128 657 146 661 163 c 0
 665 178 l 1
 793 134 l 1
 790 122 l 0
 772 55 697 0 619 0 c 0
 560 0 l 0
 496 0 453 7 426 26 c 1
 401 10 371 1 307 1 c 0
 289 1 l 1
 289 143 l 1
 307 143 l 1
 342 143 355 159 358 165 c 1
 358 218 l 1
 281 201 186 189 176 185 c 0
 174 184 170 182 170 177 c 0
 170 164 l 0
 170 150 175 143 200 143 c 0
 240 143 l 1
 240 1 l 1
 225 1 l 0
 93 1 26 53 26 118 c 0
 26 184 l 0
 26 219 38 245 83 269 c 1
 138 299 268 326 268 346 c 0
 268 357 l 0
 268 379 270 385 246 385 c 0
 193 385 l 0
 180 385 168 378 168 348 c 0
 168 324 l 1
 33 372 l 1
 33 384 l 0
 33 461 119 519 193 519 c 0
 248 519 l 0
 287 519 319 506 344 487 c 1
 370 504 405 516 451 516 c 0
 475 516 l 1
 475 370 l 1
 453 370 l 0
 431 370 423 364 420 360 c 1
 420 339 l 1
 555 339 l 1
 555 360 l 0
EndSplineSet
EndChar

StartChar: ampersand
Encoding: 38 38 72
GlifName: ampersand
Width: 687
VWidth: 0
GlyphClass: 2
Flags: HW
LayerCount: 2
Back
SplineSet
257 578 m 257xb0
 257 578 231 569 231 536 c 256xb0
 231 501 251 495 257 489 c 257
 257 269 l 257
 233 297 l 257
 208 275 183 251 183 204 c 256
 183 160 210 135 257 135 c 257
 257 3 l 257
 107 3 26 93 26 214 c 256xd0
 26 306 81 370 151 404 c 257
 124 424 94 486 94 528 c 256
 94 621 153 681 257 702 c 257
 257 578 l 257xb0
317 700 m 257
 424 681 477 618 477 520 c 256
 477 445 417 383 363 361 c 257
 431 280 l 257
 443 299 451 320 455 345 c 257
 594 345 l 257
 584 274 559 227 520 180 c 257
 661 16 l 257
 464 16 l 257
 417 72 l 257
 393 50 352 26 317 16 c 257
 317 168 l 257
 324 173 325 174 332 180 c 257
 317 198 l 257
 317 486 l 257
 328 495 344 504 344 533 c 256
 344 557 340 570 317 582 c 257
 317 700 l 257
EndSplineSet
Fore
SplineSet
<<<<<<< HEAD
262 564 m 2
 260 563 246 557 246 536 c 0
 246 507 257 511 268 500 c 0
 272 495 l 1
 272 228 l 1
 232 276 l 1
 212 257 198 238 198 204 c 0
 198 168 217 150 257 150 c 0
 272 150 l 1
 272 -12 l 1
 257 -12 l 0
 100 -12 11 85 11 214 c 0
 11 304 61 370 126 408 c 1
 100 439 79 488 79 528 c 0
 79 629 145 695 254 717 c 0
 272 720 l 1
 272 567 l 1
 262 564 l 2
320 715 m 2
 433 695 492 625 492 520 c 0
 492 445 439 384 387 356 c 1
 428 307 l 1
 434 321 438 332 440 347 c 0
 442 360 l 1
 611 360 l 1
 609 343 l 0
 599 274 575 225 540 180 c 1
 694 1 l 1
 457 1 l 1
 415 51 l 1
 388 30 354 11 321 2 c 0
 302 -4 l 1
 302 176 l 1
 308 180 l 0
 309 181 311 182 311 182 c 1
 302 193 l 1
 302 493 l 1
 308 498 l 0
 321 508 329 511 329 533 c 0
 329 555 328 560 310 569 c 0
 302 573 l 1
 302 718 l 1
 320 715 l 2
=======
244 533 m 0
 244 513.021484375 251.880859375 500.333007812 272 492.212890625 c 1
 272 233.451171875 l 1
 231.646866389 275.529794737 l 1
 211.508939082 256.289119794 198 238.361206525 198 204 c 0
 198 164.414954858 230.458007812 148 272 152 c 1
 272 -5 l 1
 105.728515625 -5 8 86.2421875 8 218 c 0
 8 308.432617188 61.179475637 369.678279006 125.881669424 407.604018817 c 1
 100.200846313 438.587606826 79 487.936817948 79 528 c 0
 79 639.290981708 159.4609375 697.799804688 272 705.33203125 c 1
 272 568.432617188 l 1
 260.139648438 567.908203125 244 549.698242188 244 533 c 0
492 520 m 0
 492 444.939450495 438.439350389 384.175526109 386.920281775 355.83594973 c 1
 428.289045338 306.558451956 l 1
 435.929428055 323.843112408 438.909579057 339.377285868 442.209213319 360 c 1
 611.26072544 360 l 1
 600.339195822 282.457139709 580.494140625 229.846679688 546.529296875 180.293945312 c 1
 693.677734375 0 l 1
 457.006835938 0 l 1
 415.180664062 45.8349609375 l 1
 383.579101562 23.6005859375 343.72265625 5.3203125 301 -3.8857421875 c 1
 301 170.719726562 l 1
 314.793945312 182.016601562 l 1
 301 195.569335938 l 1
 301 492.108398438 l 1
 318.861328125 498.44921875 330 512.801757812 330 532 c 0
 330 553.287109375 313.356445312 566.287109375 301 568.907226562 c 1
 301 704.8984375 l 1
 405.387695312 701.34375 492 635.478451276 492 520 c 0
>>>>>>> origin/master
EndSplineSet
EndChar

StartChar: asciicircum
Encoding: 94 94 74
GlifName: asciicircum
Width: 374
VWidth: 0
GlyphClass: 2
Flags: HW
LayerCount: 2
Back
SplineSet
27 460 m 257
 176 756 l 257
 264 756 l 257
 413 460 l 257
 290 460 l 257
 219 603 l 257
 149 460 l 257
 27 460 l 257
EndSplineSet
Fore
SplineSet
3 445 m 1
 167 771 l 1
 273 771 l 1
 437 445 l 1
 281 445 l 1
 219 569 l 1
 158 445 l 1
 3 445 l 1
EndSplineSet
EndChar

StartChar: asciitilde
Encoding: 126 126 75
GlifName: asciitilde
Width: 568
VWidth: 0
GlyphClass: 2
Flags: HW
LayerCount: 2
Back
SplineSet
518 281 m 257x80
 462 247 418 235 381 235 c 256x80
 289 235 239 308 157 308 c 256
 127 308 92 299 50 272 c 257
 50 405 l 257
 95 431 132 440 163 440 c 256x40
 250 440 299 367 387 367 c 256
 422 367 464 379 518 412 c 257
 518 281 l 257x80
EndSplineSet
Fore
SplineSet
526 268 m 2
 468 233 421 220 381 220 c 0
 280 220 229 293 157 293 c 0
 130 293 98 285 58 259 c 0
 35 245 l 1
 35 414 l 1
 42 418 l 0
 89 445 129 455 163 455 c 0
 259 455 308 382 387 382 c 0
 418 382 458 393 510 425 c 0
 533 439 l 1
 533 273 l 1
 526 268 l 2
EndSplineSet
EndChar

StartChar: asterisk
Encoding: 42 42 76
GlifName: asterisk
Width: 394
VWidth: 0
GlyphClass: 2
Flags: HW
LayerCount: 2
Back
SplineSet
231 478 m 257xa0
 160 478 l 257xa0
 160 564 l 257
 92 517 l 257x60
 51 574 l 257
 138 633 l 257
 50 691 l 257
 92 748 l 257
 160 704 l 257
 160 785 l 257
 231 785 l 257
 231 702 l 257
 302 748 l 257
 344 691 l 257
 256 632 l 257
 343 572 l 257
 302 515 l 257
 231 565 l 257
 231 478 l 257xa0
EndSplineSet
Fore
SplineSet
246 463 m 1
 145 463 l 1
 145 535 l 1
 88 496 l 1
 30 578 l 1
 111 633 l 1
 29 687 l 1
 88 768 l 1
 145 732 l 1
 145 800 l 1
 246 800 l 1
 246 730 l 1
 306 768 l 1
 365 687 l 1
 283 632 l 1
 364 576 l 1
 306 494 l 1
 246 536 l 1
 246 463 l 1
EndSplineSet
EndChar

StartChar: at
Encoding: 64 64 77
GlifName: at
Width: 803
VWidth: 0
GlyphClass: 2
Flags: HW
LayerCount: 2
Back
SplineSet
667 103 m 257xbe
 717 12 l 257
 658 -45 538 -87 423 -87 c 256
 195 -87 16 47 16 309 c 256
 16 533 191 715 448 715 c 256
 610 715 786 612 786 412 c 256
 786 201 654 116 532 116 c 256xde
 494 116 463 137 453 161 c 257
 439 139 407 116 344 116 c 256xbe
 268 116 205 193 205 289 c 256
 205 444 327 519 409 519 c 256xde
 473 519 495 493 510 477 c 257
 518 504 l 257
 602 504 l 257
 552 308 l 258
 549 297 545 280 545 266 c 256
 545 249 549 240 563 240 c 256
 598 240 666 280 666 412 c 256
 666 530 549 602 451 602 c 256
 284 602 136 481 136 312 c 256
 136 122 260 22 414 22 c 256
 501 22 587 47 667 103 c 257xbe
EndSplineSet
Fore
SplineSet
618 507 m 1
 567 304 l 1
 564 293 560 277 560 266 c 0
 560 260 561 256 561 255 c 1
 562 255 562 255 563 255 c 0
 587 255 651 285 651 412 c 0
 651 449 638 481 618 507 c 1
608 519 m 1
 568 562 506 587 451 587 c 0
 291 587 151 471 151 312 c 0
 151 130 267 37 414 37 c 0
 498 37 580 61 658 115 c 0
 672 125 l 1
 736 9 l 1
 727 1 l 0
 664 -60 541 -102 423 -102 c 0
 189 -102 1 38 1 309 c 0
 1 541 183 730 448 730 c 0
 615 730 801 623 801 412 c 0
 801 193 662 101 532 101 c 0
 498 101 469 116 451 136 c 1
 429 116 396 101 344 101 c 0
 257 101 190 187 190 289 c 0
 190 453 319 534 409 534 c 0
 456 534 486 519 503 505 c 1
 507 519 l 1
 608 519 l 1
EndSplineSet
EndChar

StartChar: b
Encoding: 98 98 79
GlifName: b
Width: 504
VWidth: 0
GlyphClass: 2
Flags: HW
LayerCount: 2
Back
SplineSet
30 0 m 257xec
 30 699 l 257
 155 699 l 257
 155 0 l 257
 30 0 l 257xec
270 373 m 257
 270 375 264 397 237 398 c 258
 203 398 l 257
 203 516 l 257
 236 516 l 258
 338 516 387 422 388 377 c 257
 388 141 l 258
 388 97 339 0 236 0 c 258
 203 0 l 257
 203 118 l 257
 236 118 l 258
 264 118 270 142 270 143 c 257
 270 373 l 257
EndSplineSet
Fore
SplineSet
204 0 m 1
 30 0 l 1
 30 699 l 1
 193 699 l 1
 204 0 l 1
330 159 m 1
 300 358 l 1
 298 361 293 368 277 368 c 1
 216 368 l 1
 216 516 l 1
 276 516 l 0
 393 516 447 420 448 371 c 1
 478 147 l 0
 478 99 424 0 281 0 c 0
 233 0 l 1
 233 148 l 1
 281 148 l 0
 317 148 327 156 330 159 c 1
EndSplineSet
EndChar

StartChar: backslash
Encoding: 92 92 80
GlifName: backslash
Width: 402
VWidth: 0
GlyphClass: 2
Flags: HW
LayerCount: 2
Back
SplineSet
351 -23 m 257
 224 -23 l 257
 50 716 l 257
 176 716 l 257
 351 -23 l 257
EndSplineSet
Fore
SplineSet
370 -38 m 1
 212 -38 l 1
 31 731 l 1
 188 731 l 1
 370 -38 l 1
EndSplineSet
EndChar

StartChar: bar
Encoding: 124 124 81
GlifName: bar
Width: 205
VWidth: 0
GlyphClass: 2
Flags: HW
LayerCount: 2
Back
SplineSet
50 754 m 257
 155 754 l 257
 155 -134 l 257
 50 -134 l 257
 50 754 l 257
EndSplineSet
Fore
SplineSet
35 769 m 1
 170 769 l 1
 170 -149 l 1
 35 -149 l 1
 35 769 l 1
EndSplineSet
EndChar

StartChar: braceleft
Encoding: 123 123 82
GlifName: braceleft
Width: 407
VWidth: 0
GlyphClass: 2
Flags: HW
LayerCount: 2
Back
SplineSet
307 735 m 257
 307 635 l 257
 239 635 240 591 239 469 c 257
 239 383 l 258
 239 366 219 354 195 348 c 257
 220 340 239 325 239 304 c 258
 239 207 l 258
 239 86 253 61 307 61 c 257
 307 -38 l 257
 301 -38 295 -38 289 -38 c 256
 200 -38 112 -31 112 192 c 258
 112 290 l 258
 112 322 86 329 50 348 c 257
 86 363 111 370 112 408 c 258
 112 504 l 258
 112 715 198 735 307 735 c 257
EndSplineSet
Fore
SplineSet
322 750 m 1
 322 620 l 1
 307 620 l 0
 254 620 255 596 254 469 c 1
 254 383 l 0
 254 366 241 354 231 347 c 1
 244 337 254 322 254 304 c 0
 254 207 l 0
 254 84 266 76 307 76 c 0
 322 76 l 1
 322 -53 l 1
 289 -53 l 0
 196 -53 97 -38 97 192 c 0
 97 290 l 0
 97 310 83 314 43 335 c 0
 15 350 l 1
 44 362 l 0
 83 378 96 381 97 408 c 1
 97 504 l 0
 97 722 193 750 307 750 c 0
 322 750 l 1
EndSplineSet
EndChar

StartChar: braceright
Encoding: 125 125 83
GlifName: braceright
Width: 407
VWidth: 0
GlyphClass: 2
Flags: HW
LayerCount: 2
Back
SplineSet
100 735 m 257
 209 735 295 715 295 504 c 258
 295 408 l 258
 296 370 321 363 357 348 c 257
 321 329 295 322 295 290 c 258
 295 192 l 258
 295 -31 207 -38 118 -38 c 256
 112 -38 106 -38 100 -38 c 257
 100 61 l 257
 154 61 168 87 168 208 c 258
 168 304 l 258
 168 325 187 340 212 348 c 257
 188 354 168 366 168 383 c 256
 168 384 168 384 168 384 c 256
 168 469 l 258
 167 591 168 635 100 635 c 257
 100 735 l 257
EndSplineSet
Fore
SplineSet
100 750 m 2
 214 750 310 722 310 504 c 0
 310 408 l 1
 311 381 324 378 363 362 c 0
 392 350 l 1
 364 335 l 0
 324 314 310 310 310 290 c 0
 310 192 l 0
 310 -38 211 -53 118 -53 c 0
 85 -53 l 1
 85 76 l 1
 100 76 l 0
 141 76 153 85 153 208 c 0
 153 304 l 0
 153 323 164 338 176 347 c 1
 164 355 153 366 153 383 c 0
 153 469 l 1
 152 596 153 620 100 620 c 0
 85 620 l 1
 85 750 l 1
 100 750 l 2
EndSplineSet
EndChar

StartChar: bracketleft
Encoding: 91 91 84
GlifName: bracketleft
Width: 258
VWidth: 0
GlyphClass: 2
Flags: HW
LayerCount: 2
Back
SplineSet
244 739 m 257xe0
 244 629 l 257xe0
 183 629 l 257
 180 74 l 257xd0
 244 74 l 257
 244 -36 l 257
 50 -36 l 257
 50 739 l 257
 244 739 l 257xe0
EndSplineSet
Fore
SplineSet
259 754 m 1
 259 614 l 1
 198 614 l 1
 195 89 l 1
 259 89 l 1
 259 -51 l 1
 35 -51 l 1
 35 754 l 1
 259 754 l 1
EndSplineSet
EndChar

StartChar: bracketright
Encoding: 93 93 85
GlifName: bracketright
Width: 258
VWidth: 0
GlyphClass: 2
Flags: HW
LayerCount: 2
Back
SplineSet
14 739 m 257xe0
 208 739 l 257
 208 -36 l 257
 14 -36 l 257
 14 74 l 257xe0
 78 74 l 257xd0
 75 629 l 257
 14 629 l 257
 14 739 l 257xe0
EndSplineSet
Fore
SplineSet
-1 754 m 1
 223 754 l 1
 223 -51 l 1
 -1 -51 l 1
 -1 89 l 1
 63 89 l 1
 60 614 l 1
 -1 614 l 1
 -1 754 l 1
EndSplineSet
EndChar

StartChar: breve
Encoding: 264 728 86
GlifName: breve
Width: 244
VWidth: 0
GlyphClass: 2
Flags: HW
LayerCount: 2
Back
SplineSet
218 526 m 257
 218 473 175 430 122 430 c 256
 69 430 26 473 26 526 c 257
 90 526 l 257
 90 508 104 494 122 494 c 256
 140 494 154 508 154 526 c 257
 218 526 l 257
EndSplineSet
Fore
SplineSet
233 526 m 2
 233 465 183 415 122 415 c 0
 61 415 11 465 11 526 c 0
 11 541 l 1
 105 541 l 1
 105 526 l 0
 105 516 112 509 122 509 c 0
 132 509 139 516 139 526 c 0
 139 541 l 1
 233 541 l 1
 233 526 l 2
EndSplineSet
EndChar

StartChar: brokenbar
Encoding: 166 166 87
GlifName: brokenbar
Width: 222
VWidth: 0
GlyphClass: 2
Flags: HW
LayerCount: 2
Back
SplineSet
50 754 m 257
 172 754 l 257
 172 399 l 257
 50 399 l 257
 50 754 l 257
50 221 m 257
 172 221 l 257
 172 -134 l 257
 50 -134 l 257
 50 221 l 257
EndSplineSet
Fore
SplineSet
35 769 m 1
 187 769 l 1
 187 384 l 1
 35 384 l 1
 35 769 l 1
35 236 m 1
 187 236 l 1
 187 -149 l 1
 35 -149 l 1
 35 236 l 1
EndSplineSet
EndChar

StartChar: bullet
Encoding: 265 8226 88
GlifName: bullet
Width: 352
VWidth: 0
GlyphClass: 2
Flags: HW
LayerCount: 2
Back
SplineSet
26 344 m 256
 26 428 92 496 176 496 c 256
 260 496 326 428 326 344 c 256
 326 260 260 194 176 194 c 256
 92 194 26 260 26 344 c 256
EndSplineSet
Fore
SplineSet
11 344 m 0
 11 436 84 511 176 511 c 0
 268 511 341 436 341 344 c 0
 341 252 268 179 176 179 c 0
 84 179 11 252 11 344 c 0
EndSplineSet
EndChar

StartChar: c
Encoding: 99 99 89
GlifName: c
Width: 478
VWidth: 0
GlyphClass: 2
Flags: HW
HStem: -1 147<198.126 259 273 307.975> 496 20G<155.164 251 263 324.75>
VStem: 30 164<146.506 380.218>
LayerCount: 2
Back
SplineSet
266 383 m 257
 261 397 239 399 239 399 c 258
 238 399 237 399 236 399 c 258
 233 399 l 257
 233 516 l 257
 239 516 l 258
 312 516 381 448 381 376 c 258
 381 372 l 257
 270 330 l 257
 270 360 l 258
 270 370 270 375 266 383 c 257
243 -1 m 257
 243 116 l 257
 249 116 l 257
 251 116 272 119 277 132 c 257
 281 140 281 146 281 156 c 258
 281 186 l 257
 392 144 l 257
 392 140 l 258
 392 68 323 -1 250 -1 c 258
 243 -1 l 257
30 377 m 257
 31 421 80 516 185 516 c 258
 191 516 l 257
 191 400 l 257
 185 400 l 258
 154 400 149 377 149 375 c 258
 149 141 l 258
 149 139 154 115 194 115 c 256
 199 114 l 257
 199 0 l 257
 194 0 l 258
 79 0 30 97 30 141 c 258
 30 377 l 257
EndSplineSet
Fore
SplineSet
297 362 m 1
 297 363 l 2
 297 364 287 368 283 369 c 1
 263 369 l 1
 263 516 l 1
 284 516 l 0
 366 516 441 442 441 361 c 0
 441 347 l 1
 300 293 l 1
 300 345 l 0
 300 355 301 356 298 361 c 0
 297 362 l 1
295 -1 m 0
 273 -1 l 1
 273 146 l 1
 293 146 l 1
 298 147 308 151 308 152 c 0
 308 153 l 1
 309 154 l 0
 311 159 311 161 311 171 c 0
 311 223 l 1
 452 169 l 1
 452 155 l 0
 452 74 377 -1 295 -1 c 0
30 147 m 0
 30 371 l 2
 31 419 85 516 226 516 c 0
 251 516 l 1
 251 381 l 1
 226 381 l 0
 200 381 195 372 194 370 c 1
 194 157 l 1
 195 155 200 145 239 145 c 0
 240 145 l 1
 259 141 l 1
 259 0 l 1
 239 0 l 0
 84 0 30 98 30 147 c 0
EndSplineSet
EndChar

StartChar: caron
Encoding: 266 711 90
GlifName: caron
Width: 270
VWidth: 0
GlyphClass: 2
Flags: HW
LayerCount: 2
Back
SplineSet
26 666 m 257
 107 666 l 257
 134 609 l 257
 162 666 l 257
 244 666 l 257
 167 514 l 257
 101 514 l 257
 26 666 l 257
EndSplineSet
Fore
SplineSet
2 681 m 1
 116 681 l 1
 134 644 l 1
 153 681 l 1
 268 681 l 1
 176 499 l 1
 92 499 l 1
 2 681 l 1
EndSplineSet
EndChar

StartChar: cedilla
Encoding: 184 184 92
GlifName: cedilla
Width: 219
VWidth: 0
GlyphClass: 2
Flags: HW
LayerCount: 2
Back
SplineSet
102 123 m 257
 194 123 l 257
 194 47 153 -36 26 -36 c 257
 26 55 l 257
 62 55 102 68 102 123 c 257
EndSplineSet
Fore
SplineSet
87 138 m 1
 209 138 l 1
 209 123 l 0
 209 41 162 -51 26 -51 c 0
 11 -51 l 1
 11 70 l 1
 26 70 l 0
 59 70 87 79 87 123 c 0
 87 138 l 1
EndSplineSet
EndChar

StartChar: cent
Encoding: 162 162 93
GlifName: cent
Width: 494
VWidth: 0
GlyphClass: 2
Flags: HW
LayerCount: 2
Back
SplineSet
158 749 m 257x40
 229 749 l 257
 229 705 l 257
 229 595 l 257
 229 564 l 257x40
 183 563 173 523 173 518 c 258
 173 181 l 258x80
 173 176 183 136 229 136 c 257
 229 86 l 257
 229 -5 l 257
 229 -48 l 257
 158 -48 l 257
 158 7 l 257x40
 68 40 32 132 32 181 c 258
 32 518 l 258x80
 32 567 68 660 158 693 c 257
 158 749 l 257x40
283 749 m 257x20
 354 749 l 257
 354 687 l 257x20
 417 656 468 587 468 516 c 257
 330 480 l 257
 330 495 l 258x10
 330 509 330 520 325 532 c 256
 315 555 283 564 283 564 c 257
 283 595 l 257
 283 705 l 257
 283 749 l 257x20
283 136 m 257
 283 136 315 143 325 166 c 256
 330 178 330 189 330 203 c 258
 330 215 l 257
 468 182 l 257x10
 468 104 417 40 354 11 c 257
 354 -48 l 257
 283 -48 l 257
 283 -5 l 257
 283 86 l 257
 283 136 l 257
EndSplineSet
Fore
SplineSet
143 764 m 1
 244 764 l 1
 244 549 l 1
 229 549 l 0
 197 548 189 523 188 517 c 1
 188 182 l 1
 189 176 198 151 229 151 c 0
 244 151 l 1
 244 -63 l 1
 143 -63 l 1
 143 -3 l 1
 52 36 17 128 17 181 c 0
 17 518 l 0
 17 571 53 664 143 703 c 1
 143 764 l 1
268 764 m 1
 369 764 l 1
 369 696 l 1
 433 661 483 591 483 516 c 0
 483 504 l 1
 315 461 l 1
 315 495 l 0
 315 509 315 517 311 526 c 1
 305 540 279 550 279 550 c 0
 268 553 l 1
 268 764 l 1
280 151 m 2
 280 151 305 158 311 172 c 1
 315 181 315 189 315 203 c 0
 315 234 l 1
 483 194 l 1
 483 182 l 0
 483 101 432 35 369 2 c 1
 369 -63 l 1
 268 -63 l 1
 268 148 l 1
 280 151 l 2
EndSplineSet
EndChar

StartChar: circumflex
Encoding: 267 710 94
GlifName: circumflex
Width: 270
VWidth: 0
GlyphClass: 2
Flags: HW
LayerCount: 2
Back
SplineSet
26 514 m 257
 101 666 l 257
 167 666 l 257
 244 514 l 257
 162 514 l 257
 134 571 l 257
 107 514 l 257
 26 514 l 257
EndSplineSet
Fore
SplineSet
2 499 m 1
 92 681 l 1
 176 681 l 1
 268 499 l 1
 153 499 l 1
 134 536 l 1
 116 499 l 1
 2 499 l 1
EndSplineSet
EndChar

StartChar: colon
Encoding: 58 58 95
GlifName: colon
Width: 250
VWidth: 0
GlyphClass: 2
Flags: HW
LayerCount: 2
Back
SplineSet
50 70 m 256
 50 112 83 146 125 146 c 256
 167 146 200 112 200 70 c 256
 200 28 167 -5 125 -5 c 256
 83 -5 50 28 50 70 c 256
50 360 m 256
 50 402 83 436 125 436 c 256
 167 436 200 402 200 360 c 256
 200 318 167 285 125 285 c 256
 83 285 50 318 50 360 c 256
EndSplineSet
Fore
SplineSet
35 70 m 0
 35 120 75 161 125 161 c 0
 175 161 215 120 215 70 c 0
 215 20 175 -20 125 -20 c 0
 75 -20 35 20 35 70 c 0
35 360 m 0
 35 410 75 451 125 451 c 0
 175 451 215 410 215 360 c 0
 215 310 175 270 125 270 c 0
 75 270 35 310 35 360 c 0
EndSplineSet
EndChar

StartChar: comma
Encoding: 44 44 96
GlifName: comma
Width: 265
VWidth: 0
GlyphClass: 2
Flags: HW
LayerCount: 2
Back
SplineSet
178 -23 m 257
 51 -23 l 257
 88 129 l 257
 215 129 l 257
 178 -23 l 257
EndSplineSet
Fore
SplineSet
190 -38 m 1
 32 -38 l 1
 76 144 l 1
 234 144 l 1
 190 -38 l 1
EndSplineSet
EndChar

StartChar: copyright
Encoding: 169 169 97
GlifName: copyright
Width: 859
VWidth: 0
GlyphClass: 2
Flags: HW
LayerCount: 2
Back
SplineSet
412 44 m 257
 412 -49 l 257
 240 -43 56 104 50 327 c 256
 50 331 50 335 50 339 c 256
 50 589 264 725 412 726 c 257
 412 636 l 257
 283 635 139 516 139 339 c 256
 139 337 139 334 139 332 c 256
 142 179 266 51 412 44 c 257
447 476 m 257
 447 566 l 257
 506 566 565 507 565 446 c 257
 477 413 l 257
 477 432 l 258
 477 441 477 448 474 456 c 256
 468 470 447 476 447 476 c 257
447 201 m 257
 447 201 468 207 474 222 c 256
 477 229 477 236 477 245 c 258
 477 264 l 257
 565 232 l 257
 565 171 506 112 447 112 c 257
 447 201 l 257
412 566 m 257
 412 476 l 257
 383 476 377 450 377 447 c 257
 377 231 l 257
 377 228 383 203 412 203 c 257
 412 112 l 257
 321 112 287 193 287 231 c 257
 287 447 l 257
 287 485 321 566 412 566 c 257
447 44 m 257
 593 51 717 179 720 332 c 256
 720 334 720 337 720 339 c 256
 720 516 576 635 447 636 c 257
 447 726 l 257
 595 725 809 589 809 339 c 256
 809 335 809 331 809 327 c 256
 803 104 619 -43 447 -49 c 257
 447 44 l 257
EndSplineSet
Fore
SplineSet
427 58 m 1
 427 -65 l 1
 411 -64 l 0
 232 -58 41 95 35 327 c 1
 35 339 l 0
 35 599 257 740 412 741 c 0
 427 741 l 1
 427 621 l 1
 412 621 l 0
 291 620 154 508 154 339 c 0
 154 332 l 1
 157 187 275 66 413 59 c 0
 427 58 l 1
432 465 m 1
 432 581 l 1
 447 581 l 0
 515 581 580 516 580 446 c 0
 580 436 l 1
 462 391 l 1
 462 432 l 0
 462 441 462 446 460 450 c 1
 457 455 443 462 443 462 c 0
 432 465 l 1
443 215 m 2
 443 215 457 222 460 228 c 1
 462 232 462 236 462 245 c 0
 462 285 l 1
 580 243 l 1
 580 232 l 0
 580 162 515 97 447 97 c 0
 432 97 l 1
 432 212 l 1
 443 215 l 2
427 581 m 1
 427 461 l 1
 412 461 l 0
 397 461 393 450 392 446 c 1
 392 232 l 1
 393 227 397 218 412 218 c 0
 427 218 l 1
 427 97 l 1
 412 97 l 0
 310 97 272 187 272 231 c 0
 272 447 l 0
 272 491 310 581 412 581 c 0
 427 581 l 1
446 59 m 2
 584 66 702 187 705 332 c 1
 705 339 l 0
 705 508 568 620 447 621 c 0
 432 621 l 1
 432 741 l 1
 447 741 l 0
 602 740 824 599 824 339 c 0
 824 327 l 1
 818 95 627 -58 448 -64 c 0
 432 -65 l 1
 432 58 l 1
 446 59 l 2
EndSplineSet
EndChar

StartChar: currency
Encoding: 164 164 98
GlifName: currency
Width: 656
VWidth: 0
GlyphClass: 2
Flags: HW
LayerCount: 2
Back
SplineSet
351 477 m 257
 351 595 l 257
 357 595 l 258
 400 595 434 578 459 555 c 257
 534 622 l 257
 606 540 l 257
 510 456 l 258
 510 455 510 455 510 455 c 256
 510 275 l 256
 510 275 510 275 510 275 c 256
 605 190 l 257
 534 109 l 257
 460 174 l 257
 435 150 401 133 357 133 c 258
 351 133 l 257
 351 247 l 257
 357 247 l 258
 388 248 393 272 393 274 c 258
 393 451 l 258
 393 454 387 477 357 477 c 258
 351 477 l 257
50 540 m 257
 122 622 l 257
 198 555 l 257
 223 578 259 595 304 595 c 258
 310 595 l 257
 310 477 l 257
 304 477 l 258
 271 477 266 453 266 452 c 258
 266 276 l 258
 266 273 274 251 304 251 c 258
 310 251 l 257
 310 133 l 257
 304 133 l 258
 258 133 222 151 197 175 c 257
 122 109 l 257
 51 190 l 257
 146 275 l 256
 146 275 146 275 146 275 c 256
 146 455 l 256
 146 455 146 455 146 456 c 258
 50 540 l 257
EndSplineSet
Fore
SplineSet
336 462 m 1
 336 610 l 1
 357 610 l 0
 398 610 433 595 459 575 c 1
 535 643 l 1
 627 539 l 1
 525 449 l 1
 525 282 l 1
 626 191 l 1
 535 88 l 1
 460 154 l 1
 433 132 399 118 357 118 c 0
 336 118 l 1
 336 262 l 1
 357 262 l 1
 374 263 377 272 378 275 c 1
 378 450 l 1
 377 453 374 462 357 462 c 0
 336 462 l 1
29 539 m 1
 121 643 l 1
 198 575 l 1
 226 596 261 610 304 610 c 0
 325 610 l 1
 325 462 l 1
 304 462 l 0
 285 462 282 452 281 450 c 1
 281 278 l 1
 283 275 287 266 304 266 c 0
 325 266 l 1
 325 118 l 1
 304 118 l 0
 260 118 223 134 197 155 c 1
 121 88 l 1
 30 191 l 1
 131 282 l 1
 131 449 l 1
 29 539 l 1
EndSplineSet
EndChar

StartChar: d
Encoding: 100 100 99
GlifName: d
Width: 504
VWidth: 0
GlyphClass: 2
Flags: HW
LayerCount: 2
Back
SplineSet
180 516 m 258
 210 516 l 257
 210 398 l 257
 180 398 l 257
 153 397 148 375 148 373 c 258
 148 143 l 257
 148 141 154 118 182 118 c 258
 210 118 l 257
 210 0 l 257
 182 0 l 258
 78 0 30 97 30 141 c 258
 30 377 l 257
 31 422 79 516 180 516 c 258
384 0 m 257
 258 0 l 257
 258 698 l 257
 384 698 l 257
 384 0 l 257
EndSplineSet
Fore
SplineSet
30 371 m 1
 31 420 84 516 208 516 c 2
 265 516 l 1
 265 368 l 1
 208 368 l 1
 191 368 187 361 186 358 c 1
 196 158 l 1
 198 154 204 148 227 148 c 0
 270 148 l 1
 270 0 l 1
 227 0 l 0
 82 0 30 99 30 147 c 0
 30 371 l 1
444 698 m 1
 474 0 l 1
 318 0 l 1
 288 698 l 1
 444 698 l 1
EndSplineSet
EndChar

StartChar: dagger
Encoding: 268 8224 100
GlifName: dagger
Width: 453
VWidth: 0
GlyphClass: 2
Flags: HW
LayerCount: 2
Back
SplineSet
427 577 m 257
 427 450 l 257
 297 450 l 257
 297 -56 l 257
 156 -56 l 257
 156 450 l 257
 26 450 l 257
 26 577 l 257
 156 577 l 257
 156 764 l 257
 297 764 l 257
 297 577 l 257
 427 577 l 257
EndSplineSet
Fore
SplineSet
442 592 m 1
 442 435 l 1
 312 435 l 1
 312 -71 l 1
 141 -71 l 1
 141 435 l 1
 11 435 l 1
 11 592 l 1
 141 592 l 1
 141 779 l 1
 312 779 l 1
 312 592 l 1
 442 592 l 1
EndSplineSet
EndChar

StartChar: daggerdbl
Encoding: 269 8225 101
GlifName: daggerdbl
Width: 453
VWidth: 0
GlyphClass: 2
Flags: HW
LayerCount: 2
Back
SplineSet
156 764 m 257
 297 764 l 257
 297 577 l 257
 427 577 l 257
 427 450 l 257
 297 450 l 257
 297 258 l 257
 427 258 l 257
 427 131 l 257
 297 131 l 257
 297 -56 l 257
 156 -56 l 257
 156 131 l 257
 26 131 l 257
 26 258 l 257
 156 258 l 257
 156 450 l 257
 26 450 l 257
 26 577 l 257
 156 577 l 257
 156 764 l 257
EndSplineSet
Fore
SplineSet
141 779 m 1
 312 779 l 1
 312 592 l 1
 442 592 l 1
 442 435 l 1
 312 435 l 1
 312 273 l 1
 442 273 l 1
 442 116 l 1
 312 116 l 1
 312 -71 l 1
 141 -71 l 1
 141 116 l 1
 11 116 l 1
 11 273 l 1
 141 273 l 1
 141 435 l 1
 11 435 l 1
 11 592 l 1
 141 592 l 1
 141 779 l 1
EndSplineSet
EndChar

StartChar: degree
Encoding: 176 176 102
GlifName: degree
Width: 282
VWidth: 0
GlyphClass: 2
Flags: HW
LayerCount: 2
Back
SplineSet
102 583 m 256
 102 562 119 545 140 545 c 256
 162 545 179 562 179 583 c 256
 179 605 162 622 140 622 c 256
 119 622 102 605 102 583 c 256
25 583 m 256
 25 647 77 698 140 698 c 256
 204 698 256 647 256 583 c 256
 256 520 204 468 140 468 c 256
 77 468 25 520 25 583 c 256
EndSplineSet
Fore
SplineSet
117 583 m 0
 117 570 127 560 140 560 c 0
 154 560 164 570 164 583 c 0
 164 597 154 607 140 607 c 0
 127 607 117 597 117 583 c 0
10 583 m 0
 10 655 69 713 140 713 c 0
 212 713 271 655 271 583 c 0
 271 512 212 453 140 453 c 0
 69 453 10 512 10 583 c 0
EndSplineSet
EndChar

StartChar: dieresis
Encoding: 168 168 103
GlifName: dieresis
Width: 320
VWidth: 0
GlyphClass: 2
Flags: HW
LayerCount: 2
Back
SplineSet
170 678 m 256
 170 720 203 754 245 754 c 256
 287 754 320 720 320 678 c 256
 320 636 287 603 245 603 c 256
 203 603 170 636 170 678 c 256
0 678 m 256
 0 720 33 754 75 754 c 256
 117 754 150 720 150 678 c 256
 150 636 117 603 75 603 c 256
 33 603 0 636 0 678 c 256
EndSplineSet
Fore
SplineSet
-15 678 m 0
 -15 728 25 769 75 769 c 0
 115 769 148 743 160 708 c 1
 172 743 205 769 245 769 c 0
 295 769 335 728 335 678 c 0
 335 628 295 588 245 588 c 0
 205 588 172 613 160 648 c 1
 148 613 115 588 75 588 c 0
 25 588 -15 628 -15 678 c 0
EndSplineSet
EndChar

StartChar: divide
Encoding: 247 247 104
GlifName: divide
Width: 710
VWidth: 0
GlyphClass: 2
Flags: HW
LayerCount: 2
Back
SplineSet
550 355 m 257
 550 228 l 257
 100 228 l 257
 100 355 l 257
 550 355 l 257
EndSplineSet
Refer: 175 46 N 1 0 0 1 196 415 2
Refer: 175 46 N 1 0 0 1 196 62 2
Fore
SplineSet
100 370 m 1
 610 370 l 1
 610 213 l 1
 100 213 l 1
 100 370 l 1
EndSplineSet
Refer: 175 46 N 1 0 0 1 196 415 2
Refer: 175 46 N 1 0 0 1 196 62 2
EndChar

StartChar: dollar
Encoding: 36 36 105
GlifName: dollar
Width: 561
VWidth: 0
GlyphClass: 2
Flags: HW
LayerCount: 2
Back
SplineSet
268 428 m 257x20
 294 418 320 407 343 394 c 256
 404 358 471 311 471 209 c 256x10
 471 122 414 44 339 12 c 257
 339 -47 l 257
 268 -47 l 257
 268 -3 l 256
 268 127 l 257x20
 292 130 330 150 330 203 c 256x10
 330 241 303 263 268 280 c 257
 268 428 l 257x20
213 750 m 257x40
 213 568 l 257x40
 192 562 172 537 172 513 c 256x80
 172 486 189 469 213 454 c 257
 213 302 l 257x40
 194 309 176 316 161 323 c 256
 90 357 38 403 38 508 c 256x80
 38 599 91 652 142 679 c 257
 142 750 l 257
 213 750 l 257x40
339 682 m 257x20
 402 649 438 580 443 553 c 257
 313 510 l 257
 308 557 268 568 268 568 c 257
 268 750 l 257
 339 750 l 257
 339 682 l 257x20
213 -47 m 257x40
 142 -47 l 257
 142 13 l 257
 73 45 31 116 30 158 c 257
 157 203 l 257
 159 147 213 127 213 127 c 257
 213 -47 l 257x40
EndSplineSet
Fore
SplineSet
<<<<<<< HEAD
306 442 m 2
 336 432 366 421 394 407 c 1
 457 371 531 319 531 209 c 0
 531 125 474 50 399 16 c 1
 399 -47 l 1
 288 -47 l 1
 288 155 l 1
 303 157 l 0
 325 159 360 170 360 203 c 0
 360 232 337 251 292 267 c 0
 282 271 l 1
 282 450 l 1
 306 442 l 2
254 750 m 1
 254 542 l 1
 241 539 l 0
 225 536 207 524 207 513 c 0
 207 494 220 481 246 467 c 0
 254 462 l 1
 254 280 l 1
 230 288 l 0
 208 295 188 302 170 309 c 1
 96 344 38 396 38 508 c 0
 38 594 90 647 142 675 c 1
 142 750 l 1
 254 750 l 1
398 678 m 1
 464 642 497 582 503 553 c 0
 505 543 l 1
 336 490 l 1
 334 508 l 0
 330 532 296 539 295 539 c 1
 282 542 l 1
 282 750 l 1
 398 750 l 1
 398 678 l 1
259 -47 m 1
 142 -47 l 1
 142 17 l 1
 73 50 31 114 30 158 c 0
 30 169 l 1
 192 224 l 1
 193 204 l 0
 195 170 245 155 247 155 c 0
 259 151 l 1
 259 -47 l 1
=======
369.923828125 406.989257812 m 0
 427.29296875 381.509765625 503.254882812 320.20703125 503.254882812 210 c 0
 503.254882812 125.55078125 445.4609375 49.9638671875 370.254882812 15.833984375 c 1
 370.254882812 -47 l 1
 255.5 -47 l 1
 255.5 151 l 1
 285.563476562 154.213867188 316.254882812 175.70009579 316.254882812 203 c 0
 316.254882812 238.586613999 301.685546875 245.413085938 255.5 265 c 1
 255.5 444 l 1
 295.072265625 434.045898438 345.833984375 417.688476562 369.923828125 406.989257812 c 0
226 750 m 1
 226 556 l 1
 205.314453125 552.5 186.653320312 525.772460938 186.653320312 507 c 0
 186.653320312 481.501953125 199.497070312 464.459960938 226 454 c 1
 226 275 l 1
 198.125976562 283.965820312 164.353728632 298.018989962 132.84375 313.438476562 c 0
 99 330 10.2548828125 390.404296875 10.2548828125 502 c 0
 10.2548828125 588.329101562 62.63671875 646.940429688 114.254882812 674.879882812 c 1
 114.254882812 750 l 1
 226 750 l 1
369.928710938 677.9453125 m 1
 432 660 474.126953125 592.432617188 479.385742188 553.8671875 c 1
 320.138671875 500.91796875 l 1
 314.390625 541.356445312 287.975585938 555.6875 254.5 557 c 1
 254.5 750 l 1
 369.928710938 750 l 1
 369.928710938 677.9453125 l 1
226 -47 m 1
 114.254882812 -47 l 1
 114.254882812 16.9677734375 l 1
 39.6875 52.626953125 6.283203125 114.633789062 5 168.508789062 c 1
 159.212890625 223.966796875 l 1
 161.557617188 167.778320312 203.190429688 153.318359375 226 151 c 1
 226 -47 l 1
>>>>>>> origin/master
EndSplineSet
EndChar

StartChar: dotaccent
Encoding: 270 729 106
GlifName: dotaccent
Width: 202
VWidth: 0
GlyphClass: 2
Flags: HW
LayerCount: 2
Back
SplineSet
26 678 m 256
 26 720 59 754 101 754 c 256
 143 754 176 720 176 678 c 256
 176 636 143 603 101 603 c 256
 59 603 26 636 26 678 c 256
EndSplineSet
Fore
SplineSet
11 678 m 0
 11 728 51 769 101 769 c 0
 151 769 191 728 191 678 c 0
 191 628 151 588 101 588 c 0
 51 588 11 628 11 678 c 0
EndSplineSet
EndChar

StartChar: dotlessi
Encoding: 271 305 107
GlifName: dotlessi
Width: 204
VWidth: 0
GlyphClass: 2
Flags: HW
LayerCount: 2
Back
SplineSet
148 0 m 257
 26 0 l 257
 26 516 l 257
 148 516 l 257
 148 0 l 257
EndSplineSet
Fore
SplineSet
178 516 m 1
 178 0 l 1
 26 0 l 1
 26 516 l 1
 178 516 l 1
EndSplineSet
EndChar

StartChar: e
Encoding: 101 101 108
GlifName: e
Width: 514
VWidth: 0
GlyphClass: 2
Flags: HW
HStem: 0 21G<156.024 248 296 361.418> 193 146<196 313> 372 144<185.616 232.333 255.556 312.506>
VStem: 26 170<129.586 193>
LayerCount: 2
Back
SplineSet
240 402 m 258
 236 402 l 257
 236 516 l 257
 242 516 l 258
 312 516 397 450 397 378 c 258
 397 208 l 257
 148 208 l 257
 148 141 l 258
 148 138 155 109 183 108 c 258
 188 108 l 257
 188 0 l 257
 183 0 l 258
 79 0 26 96 26 141 c 258
 26 377 l 257
 27 422 80 516 182 516 c 258
 187 516 l 257
 187 400 l 257
 184 400 l 258
 155 400 148 380 148 369 c 258
 148 324 l 257
 283 324 l 257
 283 369 l 258
 283 396 260 402 240 402 c 258
236 0 m 257
 236 111 l 257
 242 111 l 258
 273 113 294 132 298 153 c 258
 299 157 l 257
 398 120 l 257
 397 118 l 256
 382 54 312 0 242 0 c 258
 236 0 l 257
EndSplineSet
Fore
SplineSet
313 360 m 0
 313 370 302 372 279 372 c 2
 256 372 l 1
 256 516 l 1
 281 516 l 0
 364 516 457 449 457 370 c 0
 487 193 l 1
 196 193 l 1
 196 146 l 1
 198 140 208 129 228 128 c 1
 248 128 l 1
 248 0 l 1
 228 0 l 0
 84 0 26 97 26 147 c 0
 26 371 l 1
 27 421 85 516 208 516 c 0
 232 516 l 1
 232 370 l 1
 210 370 l 0
 186 370 185 363 185 359 c 0
 185 339 l 1
 313 339 l 1
 313 360 l 0
317 0 m 0
 296 0 l 1
 296 141 l 1
 317 141 l 1
 343 143 356 158 358 171 c 0
 358 171 l 1
 364 192 l 1
 494 143 l 1
 486 128 l 0
 452 61 406 0 317 0 c 0
EndSplineSet
EndChar

StartChar: eight
Encoding: 56 56 113
GlifName: eight
Width: 606
VWidth: 0
GlyphClass: 2
Flags: HW
LayerCount: 2
Back
SplineSet
274 125 m 257xe8
 307 134 332 165 332 201 c 256xe8
 332 251 305 274 273 283 c 257
 273 413 l 257
 309 424 329 446 329 497 c 256
 329 551 290 568 272 571 c 257
 272 698 l 257
 342 698 452 619 452 499 c 256xf0
 452 415 409 352 395 349 c 257
 423 330 460 269 460 199 c 256
 460 53 316 0 276 0 c 258
 275 0 l 257
 274 125 l 257xe8
212 125 m 257
 211 0 l 257
 210 0 l 258
 170 0 26 53 26 199 c 256
 26 269 63 330 91 349 c 257
 77 352 33 415 33 499 c 256
 33 619 144 698 214 698 c 257
 214 571 l 257
 196 568 157 551 157 497 c 256
 157 446 177 424 213 413 c 257
 213 283 l 257
 181 274 154 251 154 201 c 256
 154 165 179 134 212 125 c 257
EndSplineSet
Fore
SplineSet
333 145 m 1
 345 148 l 2
 387 155 422 179 422 207 c 0
 422 248 338 265 306 272 c 0
 293 275 l 1
 293 421 l 1
 306 424 l 0
 342 433 359 447 359 491 c 0
 359 534 323 546 307 548 c 0
 292 550 l 1
 292 698 l 1
 310 698 l 0
 396 698 512 617 512 493 c 0
 512 425 483 372 463 349 c 1
 492 320 520 267 580 205 c 0
 580 54 427 0 351 0 c 0
 335 0 l 1
 333 145 l 1
261 148 m 0
 273 145 l 1
 271 0 l 1
 255 0 l 0
 190 0 26 54 26 205 c 0
 26 267 55 322 83 349 c 1
 61 373 33 426 33 493 c 0
 33 617 151 698 242 698 c 0
 259 698 l 1
 259 550 l 1
 245 548 l 0
 229 546 193 534 193 491 c 0
 193 447 210 433 246 424 c 0
 258 421 l 1
 258 275 l 1
 245 272 l 0
 213 265 197 248 197 207 c 0
 197 179 226 155 261 148 c 0
EndSplineSet
EndChar

StartChar: emdash
Encoding: 272 8212 114
GlifName: emdash
Width: 906
VWidth: 0
GlyphClass: 2
Flags: HW
LayerCount: 2
Back
SplineSet
880 357 m 257
 880 230 l 257
 26 230 l 257
 26 357 l 257
 880 357 l 257
EndSplineSet
Fore
SplineSet
895 372 m 1
 895 215 l 1
 11 215 l 1
 11 372 l 1
 895 372 l 1
EndSplineSet
EndChar

StartChar: endash
Encoding: 273 8211 115
GlifName: endash
Width: 532
VWidth: 0
GlyphClass: 2
Flags: HW
LayerCount: 2
Back
SplineSet
506 357 m 257
 506 230 l 257
 26 230 l 257
 26 357 l 257
 506 357 l 257
EndSplineSet
Fore
SplineSet
521 372 m 1
 521 215 l 1
 11 215 l 1
 11 372 l 1
 521 372 l 1
EndSplineSet
EndChar

StartChar: equal
Encoding: 61 61 116
GlifName: equal
Width: 418
VWidth: 0
GlyphClass: 2
Flags: HW
LayerCount: 2
Back
SplineSet
368 258 m 257
 368 131 l 257
 50 131 l 257
 50 258 l 257
 368 258 l 257
368 452 m 257
 368 325 l 257
 50 325 l 257
 50 452 l 257
 368 452 l 257
EndSplineSet
Fore
SplineSet
383 273 m 1
 383 116 l 1
 35 116 l 1
 35 273 l 1
 383 273 l 1
383 467 m 1
 383 310 l 1
 35 310 l 1
 35 467 l 1
 383 467 l 1
EndSplineSet
EndChar

StartChar: eth
Encoding: 240 240 117
GlifName: eth
Width: 480
VWidth: 0
GlyphClass: 2
Flags: HW
LayerCount: 2
Back
SplineSet
267 558 m 257
 210 541 l 257
 192 598 l 257
 242 614 l 257
 230 627 214 637 192 647 c 257
 192 714 l 257
 250 703 297 679 330 641 c 257
 380 657 l 257
 398 599 l 257
 364 588 l 257
 383 548 392 500 392 442 c 258
 392 376 l 257
 392 364 l 257
 392 141 l 258
 392 96 343 -1 239 -1 c 258
 233 -1 l 257
 233 117 l 257
 239 117 l 258
 270 118 275 141 275 152 c 258
 275 363 l 258
 275 380 269 398 239 398 c 258
 233 398 l 257
 233 516 l 257
 239 516 l 258
 251 516 262 515 273 512 c 257
 271 530 270 545 267 558 c 257
28 376 m 258
 28 421 79 516 186 516 c 258
 192 516 l 257
 192 398 l 257
 186 398 l 258
 153 398 148 373 148 363 c 258
 148 154 l 258
 148 135 156 117 186 117 c 258
 192 117 l 257
 192 -1 l 257
 186 -1 l 258
 78 -1 28 97 28 141 c 258
 28 376 l 258
EndSplineSet
Fore
SplineSet
28 147 m 2
 28 370 l 2
 28 420 84 516 220 516 c 2
 235 516 l 1
 202 593 l 1
 254 605 l 1
 244 610 232 613 219 618 c 2
 208 622 l 1
 208 717 l 1
 232 714 l 2
 297 703 345 680 380 643 c 1
 435 661 l 1
 462 574 l 1
 429 564 l 1
 445 525 452 484 452 434 c 2
 452 148 l 2
 452 99 398 -1 284 -1 c 2
 263 -1 l 1
 263 147 l 1
 284 147 l 2
 304 148 305 158 305 165 c 2
 305 350 l 2
 305 361 304 368 284 368 c 2
 263 368 l 1
 263 513 l 1
 248 509 l 1
 248 368 l 1
 220 368 l 2
 190 368 189 356 189 350 c 2
 189 166 l 2
 189 154 192 147 220 147 c 2
 248 147 l 1
 248 -1 l 1
 220 -1 l 2
 83 -1 28 99 28 147 c 2
300 524 m 2
 274 516 l 1
 284 516 l 2
 289 516 297 515 301 515 c 1
 300 520 300 521 300 524 c 2
EndSplineSet
EndChar

StartChar: exclam
Encoding: 33 33 118
GlifName: exclam
Width: 329
VWidth: 0
GlyphClass: 2
Flags: HW
LayerCount: 2
Back
SplineSet
88 53 m 256
 88 95 121 129 163 129 c 256
 205 129 238 95 238 53 c 256
 238 11 205 -22 163 -22 c 256
 121 -22 88 11 88 53 c 256
100 166 m 257
 100 700 l 257
 229 700 l 257
 229 166 l 257
 100 166 l 257
EndSplineSet
Fore
SplineSet
73 53 m 0
 73 103 113 144 163 144 c 0
 213 144 253 103 253 53 c 0
 253 3 213 -37 163 -37 c 0
 113 -37 73 3 73 53 c 0
85 151 m 1
 85 715 l 1
 244 715 l 1
 244 151 l 1
 85 151 l 1
EndSplineSet
EndChar

StartChar: exclamdown
Encoding: 161 161 119
GlifName: exclamdown
Width: 210
VWidth: 0
GlyphClass: 2
Flags: HW
LayerCount: 2
Back
SplineSet
26 647 m 256x30
 26 689 59 722 101 722 c 256
 143 722 176 689 176 647 c 256
 176 605 143 571 101 571 c 256
 59 571 26 605 26 647 c 256x30
38 534 m 257xa8
 167 534 l 257
 167 0 l 257
 38 0 l 257
 38 534 l 257xa8
EndSplineSet
Fore
SplineSet
11 647 m 0
 11 697 51 737 101 737 c 0
 151 737 191 697 191 647 c 0
 191 597 151 556 101 556 c 0
 51 556 11 597 11 647 c 0
23 549 m 1
 182 549 l 1
 182 -15 l 1
 23 -15 l 1
 23 549 l 1
EndSplineSet
EndChar

StartChar: f
Encoding: 102 102 120
GlifName: f
Width: 334
VWidth: 0
GlyphClass: 2
Flags: HW
LayerCount: 2
Back
SplineSet
89 552 m 258xb8
 89 597 140 695 243 696 c 258
 304 696 l 257
 277 579 l 257
 244 579 l 257
 216 578 211 555 211 552 c 258
 211 515 l 257
 277 516 l 257
 277 400 l 257
 211 400 l 257
 211 0 l 257
 89 0 l 257
 89 400 l 257
 26 400 l 257
 26 516 l 257
 89 516 l 257
 89 552 l 258xb8
EndSplineSet
Fore
SplineSet
89 516 m 1
 89 537 l 2
 89 589 145 695 258 696 c 1
 338 696 l 1
 304 549 l 1
 259 549 l 1
 244 548 242 539 241 536 c 1
 241 515 l 1
 307 516 l 1
 307 370 l 1
 241 370 l 1
 241 0 l 1
 89 0 l 1
 89 370 l 1
 26 370 l 1
 26 516 l 1
 89 516 l 1
EndSplineSet
EndChar

StartChar: fi
Encoding: 274 64257 121
GlifName: fi
Width: 554
VWidth: 0
GlyphClass: 2
Flags: HW
LayerCount: 2
Back
SplineSet
468 630 m 256x36
 468 591 435 558 395 558 c 256
 355 558 322 591 322 630 c 256
 322 670 355 703 395 703 c 256
 435 703 468 670 468 630 c 256x36
89 552 m 258
 89 597 140 695 243 696 c 258
 304 696 l 257
 277 579 l 257
 244 579 l 258
 216 578 211 555 211 552 c 258
 211 516 l 257
 457 516 l 257
 457 0 l 257
 335 0 l 257
 335 400 l 257
 211 400 l 257
 211 0 l 257
 89 0 l 257xad
 89 400 l 257
 26 400 l 257
 26 516 l 257
 89 516 l 257
 89 552 l 258
EndSplineSet
Fore
SplineSet
440 703 m 0
 488 703 528 663 528 615 c 0
 528 568 488 528 440 528 c 0
 392 528 349 568 349 615 c 0
 349 663 392 703 440 703 c 0
89 516 m 1
 89 537 l 2
 89 589 144 695 269 696 c 1
 368 696 l 1
 326 549 l 1
 271 549 l 1
 253 548 249 539 248 536 c 1
 248 516 l 1
 517 516 l 1
 517 0 l 1
 365 0 l 1
 365 370 l 1
 248 370 l 1
 248 0 l 1
 89 0 l 1
 89 370 l 1
 26 370 l 1
 26 516 l 1
 89 516 l 1
EndSplineSet
EndChar

StartChar: five
Encoding: 53 53 122
GlifName: five
Width: 582
VWidth: 0
GlyphClass: 2
Flags: HW
LayerCount: 2
Back
SplineSet
409 574 m 257
 171 573 l 257
 159 442 l 257
 172 445 187 447 204 447 c 257
 204 324 l 257
 170 321 148 301 136 286 c 257
 26 354 l 257
 55 700 l 257
 409 700 l 257
 409 574 l 257
258 447 m 257
 401 444 466 333 466 223 c 256
 466 82 363 2 258 0 c 257
 258 126 l 257
 307 135 338 174 338 224 c 256
 338 280 296 319 258 324 c 257
 258 447 l 257
131 175 m 257
 147 144 177 131 204 126 c 257
 204 0 l 257
 120 0 60 46 28 107 c 257
 131 175 l 257
EndSplineSet
Fore
SplineSet
<<<<<<< HEAD
502 700 m 1
 502 553 l 1
 202 552 l 1
 193 460 l 1
 204 461 212 462 222 462 c 0
 237 462 l 1
 237 310 l 1
 223 309 l 0
 195 306 176 290 165 277 c 0
 157 266 l 1
 28 346 l 1
 59 700 l 1
 502 700 l 1
291 477 m 1
 306 477 l 2
 489 474 559 354 559 238 c 0
 559 89 448 2 306 0 c 0
 291 -0 l 1
 291 153 l 1
 303 156 l 0
 364 164 401 196 401 239 c 0
 401 287 348 320 304 324 c 0
 291 326 l 1
 291 477 l 1
154 212 m 1
 162 197 l 2
 175 172 199 161 224 156 c 0
 237 153 l 1
 237 0 l 1
 222 0 l 0
 132 0 66 50 32 115 c 0
 26 127 l 1
 154 212 l 1
=======
465.584960938 700 m 1
 465.584960938 553.30859375 l 1
 166.279296875 552.362304688 l 1
 157.31640625 460.215820312 l 1
 172.240684773 471.071101181 209.563476562 478 225.584960938 478 c 1
 225.584960938 326.265625 l 1
 181.362304688 322.361328125 139.59375 304.5 120.998046875 281.254882812 c 1
 -8.1318359375 361.081054688 l 1
 22.7890625 700 l 1
 465.584960938 700 l 1
254.584960938 477.318359375 m 1
 446.043455194 473.305244912 522.584960938 363.246384151 522.584960938 238 c 0
 522.584960938 79.5486659732 406.537705103 2.60495761996 254.584960938 -0.2880859375 c 1
 254.584960938 153.49609375 l 1
 318.537897337 165.239855055 360.584960938 187.228515625 360.584960938 239 c 0
 360.584960938 295.40234375 304.282768574 319.303191236 254.584960938 325.844726562 c 1
 254.584960938 477.318359375 l 1
118.255859375 211.717773438 m 1
 137.551024123 174.333084177 183.594726562 161.251953125 225.584960938 153.477539062 c 5
 225.584960938 0 l 1
 115.60546875 0 30.439611723 49.9623980953 -10 127.043945312 c 1
 118.255859375 211.717773438 l 1
>>>>>>> origin/master
EndSplineSet
EndChar

StartChar: fl
Encoding: 275 64258 123
GlifName: fl
Width: 543
VWidth: 0
GlyphClass: 2
Flags: HW
LayerCount: 2
Back
SplineSet
457 0 m 257xbc
 331 0 l 257
 331 579 l 257
 244 579 l 258
 216 578 211 555 211 552 c 258
 211 515 l 257
 277 516 l 257
 277 400 l 257
 211 400 l 257
 211 0 l 257
 89 0 l 257
 89 400 l 257
 26 400 l 257
 26 516 l 257
 89 516 l 257
 89 552 l 258
 89 597 140 695 243 696 c 258
 457 696 l 257
 457 0 l 257xbc
EndSplineSet
Fore
SplineSet
517 696 m 1
 517 0 l 1
 361 0 l 1
 361 549 l 1
 271 549 l 1
 253 548 249 539 248 536 c 1
 248 515 l 1
 331 516 l 1
 331 370 l 1
 248 370 l 1
 248 0 l 1
 89 0 l 1
 89 370 l 1
 26 370 l 1
 26 516 l 1
 89 516 l 1
 89 537 l 0
 89 589 145 695 270 696 c 1
 517 696 l 1
EndSplineSet
EndChar

StartChar: florin
Encoding: 276 402 124
GlifName: florin
Width: 442
VWidth: 0
GlyphClass: 2
Flags: HW
LayerCount: 2
Back
SplineSet
141 552 m 258
 141 597 192 695 295 696 c 258
 356 696 l 257
 329 579 l 257
 296 579 l 258
 268 578 263 555 263 552 c 258
 263 515 l 257
 329 516 l 257
 329 400 l 257
 263 400 l 257
 263 7 l 257
 263 0 l 257
 263 -30 l 258
 263 -92 221 -168 109 -168 c 258
 26 -168 l 257
 53 -63 l 257
 108 -63 l 258
 136 -62 141 -39 141 -36 c 258
 141 0 l 257
 141 7 l 257
 141 400 l 257
 78 400 l 257
 78 516 l 257
 141 516 l 257
 141 552 l 258
EndSplineSet
Fore
SplineSet
145 516 m 1
 145 537 l 2
 145 589 201 695 344 696 c 1
 424 696 l 1
 390 549 l 1
 346 549 l 1
 331 548 328 539 327 536 c 1
 327 515 l 1
 393 516 l 1
 393 370 l 1
 327 370 l 1
 327 -15 l 0
 327 -84 249 -168 128 -168 c 0
 26 -168 l 1
 61 -33 l 1
 127 -33 l 1
 142 -32 144 -23 145 -20 c 1
 145 370 l 1
 82 370 l 1
 82 516 l 1
 145 516 l 1
EndSplineSet
EndChar

StartChar: four
Encoding: 52 52 125
GlifName: four
Width: 543
VWidth: 0
GlyphClass: 2
Flags: HW
LayerCount: 2
Back
SplineSet
216 272 m 257x38
 216 145 l 257
 26 145 l 257
 26 272 l 257
 216 598 l 257
 216 351 l 257
 170 272 l 257
 216 272 l 257x38
457 272 m 257xbc
 457 145 l 257xbc
 403 145 l 257
 403 0 l 257
 273 0 l 257xba
 273 701 l 257xbc
 403 701 l 257
 403 272 l 257xba
 457 272 l 257xbc
EndSplineSet
Fore
SplineSet
<<<<<<< HEAD
211 287 m 1
 262 287 l 1
 262 130 l 1
 26 130 l 1
 26 276 l 1
 262 654 l 1
 262 347 l 1
 211 287 l 1
463 287 m 1
 517 287 l 1
 517 130 l 1
 463 130 l 1
 463 0 l 1
 303 0 l 1
 303 701 l 1
 463 701 l 1
 463 287 l 1
=======
176.091796875 287 m 1
 226.7890625 287 l 1
 226.7890625 130 l 1
 -9 130 l 1
 -9 276.051757812 l 1
 226.7890625 653.525390625 l 1
 226.7890625 346.951171875 l 1
 176.091796875 287 l 1
415 287 m 1
 469 287 l 1
 469 130 l 1
 415 130 l 1
 415 0 l 1
 255 0 l 1
 255 701 l 1
 415 701 l 1
 415 287 l 1
>>>>>>> origin/master
EndSplineSet
EndChar

StartChar: fraction
Encoding: 277 8260 126
GlifName: fraction
Width: 560
VWidth: 0
GlyphClass: 2
Flags: HW
LayerCount: 2
Back
SplineSet
26 -2 m 257
 458 702 l 257
 534 702 l 257
 109 -2 l 257
 26 -2 l 257
EndSplineSet
Fore
SplineSet
-1 -17 m 1
 450 717 l 1
 561 717 l 1
 117 -17 l 1
 -1 -17 l 1
EndSplineSet
EndChar

StartChar: g
Encoding: 103 103 127
GlifName: g
Width: 475
VWidth: 0
GlyphClass: 2
Flags: HW
LayerCount: 2
Back
SplineSet
236 -181 m 257xf4
 26 -181 l 257
 54 -69 l 257
 234 -69 l 257
 265 -68 272 -43 272 -40 c 258
 272 3 l 257xf4
 260 0 248 -1 234 -1 c 258
 231 -1 l 257
 231 109 l 257xf8
 234 109 l 258
 265 110 272 136 272 139 c 258
 272 374 l 258xf4
 272 377 265 403 234 403 c 258
 231 403 l 257
 231 516 l 257xf8
 234 516 l 258
 247 516 261 514 272 511 c 257
 272 516 l 257xf4
 389 516 l 257xf8
 389 -40 l 258
 389 -83 339 -180 236 -181 c 257xf4
189 516 m 258
 192 516 l 257
 192 403 l 257
 189 403 l 258
 157 403 150 378 150 375 c 258
 150 140 l 258
 150 137 158 112 189 112 c 258
 192 112 l 257
 192 -1 l 257
 189 -1 l 258
 84 -1 35 96 35 139 c 258
 35 378 l 257
 36 422 85 516 189 516 c 258
EndSplineSet
Fore
SplineSet
453 -25 m 0
 453 -75 398 -180 285 -181 c 2
 26 -181 l 1
 62 -39 l 1
 283 -39 l 1
 300 -38 305 -28 306 -24 c 1
 306 0 l 1
 297 -1 291 -1 283 -1 c 0
 265 -1 l 1
 265 129 l 1
 283 129 l 1
 300 130 305 140 306 144 c 1
 306 359 l 1
 305 363 300 373 283 373 c 0
 265 373 l 1
 265 516 l 1
 283 516 l 0
 290 516 300 515 306 514 c 1
 306 516 l 1
 453 516 l 1
 453 -25 l 0
39 372 m 1
 40 420 94 516 230 516 c 2
 254 516 l 1
 254 373 l 1
 230 373 l 0
 204 373 198 363 197 360 c 1
 197 155 l 1
 199 151 206 142 230 142 c 0
 254 142 l 1
 254 -1 l 1
 230 -1 l 0
 93 -1 39 98 39 145 c 0
 39 372 l 1
EndSplineSet
EndChar

StartChar: germandbls
Encoding: 223 223 128
GlifName: germandbls
Width: 612
VWidth: 0
GlyphClass: 2
Flags: HW
LayerCount: 2
Back
SplineSet
155 0 m 257xe8
 26 0 l 257
 26 457 l 258
 27 531 16 705 226 705 c 256
 396 705 406 575 406 518 c 258
 406 405 l 257xe8
 342 406 l 257
 308 400 305 368 305 361 c 256
 305 349 310 326 391 299 c 256
 441 282 496 243 496 160 c 256
 496 57 420 0 327 0 c 258
 199 0 l 257
 199 109 l 257
 327 109 l 258
 342 110 379 120 379 153 c 256
 379 198 331 200 276 228 c 256
 228 252 191 287 191 371 c 256xf4
 191 446 244 489 294 507 c 257
 294 519 l 258
 294 572 259 586 225 586 c 256
 174 586 155 554 155 498 c 258
 155 0 l 257xe8
EndSplineSet
Fore
SplineSet
210 487 m 0
 205 0 l 1
 26 0 l 1
 26 453 l 1
 27 521 17 705 271 705 c 0
 454 705 466 561 466 503 c 0
 466 382 l 1
 388 383 l 1
 366 378 365 360 365 355 c 0
 365 352 361 335 441 310 c 1
 494 293 586 251 586 165 c 0
 586 59 501 0 372 0 c 0
 229 0 l 1
 229 139 l 1
 371 139 l 1
 398 140 439 149 439 166 c 0
 439 195 381 193 314 223 c 1
 263 247 221 284 221 367 c 0
 221 439 274 482 324 502 c 1
 324 504 l 0
 324 547 300 556 270 556 c 0
 229 556 210 537 210 487 c 0
EndSplineSet
EndChar

StartChar: grave
Encoding: 96 96 129
GlifName: grave
Width: 263
VWidth: 0
GlyphClass: 2
Flags: HW
LayerCount: 2
Back
SplineSet
122 605 m 257
 49 757 l 257
 176 757 l 257
 213 605 l 257
 122 605 l 257
EndSplineSet
Fore
SplineSet
113 590 m 1
 25 772 l 1
 188 772 l 1
 232 590 l 1
 113 590 l 1
EndSplineSet
EndChar

StartChar: greater
Encoding: 62 62 130
GlifName: greater
Width: 414
VWidth: 0
GlyphClass: 2
Flags: HW
LayerCount: 2
Back
SplineSet
30 500 m 257
 384 322 l 257
 384 258 l 257
 30 79 l 257
 30 206 l 257
 206 292 l 257
 30 370 l 257
 30 500 l 257
EndSplineSet
Fore
SplineSet
15 524 m 1
 399 331 l 1
 399 249 l 1
 15 55 l 1
 15 215 l 1
 170 291 l 1
 15 360 l 1
 15 524 l 1
EndSplineSet
EndChar

StartChar: guillemotleft
Encoding: 171 171 131
GlifName: guillemotleft
Width: 475
VWidth: 0
GlyphClass: 2
Flags: HW
LayerCount: 2
Back
SplineSet
238 477 m 257
 238 352 l 257
 149 292 l 257
 238 224 l 257
 238 102 l 257
 27 259 l 257
 27 321 l 257
 238 477 l 257
449 477 m 257
 449 352 l 257
 360 292 l 257
 449 224 l 257
 449 102 l 257
 238 259 l 257
 238 321 l 257
 449 477 l 257
EndSplineSet
Fore
SplineSet
464 507 m 1
 464 344 l 1
 386 291 l 1
 464 231 l 1
 464 72 l 1
 253 229 l 1
 253 72 l 1
 12 251 l 1
 12 329 l 1
 253 507 l 1
 253 351 l 1
 464 507 l 1
223 254 m 1
 223 324 l 1
 175 291 l 1
 223 254 l 1
EndSplineSet
EndChar

StartChar: guillemotright
Encoding: 187 187 132
GlifName: guillemotright
Width: 414
VWidth: 0
GlyphClass: 2
Flags: HW
LayerCount: 2
Back
SplineSet
26 477 m 257
 237 321 l 257
 237 259 l 257
 26 102 l 257
 26 224 l 257
 115 292 l 257
 26 352 l 257
 26 477 l 257
237 477 m 257
 448 321 l 257
 448 259 l 257
 237 102 l 257
 237 224 l 257
 326 292 l 257
 237 352 l 257
 237 477 l 257
EndSplineSet
Fore
SplineSet
222 507 m 1
 463 329 l 1
 463 251 l 1
 222 72 l 1
 222 229 l 1
 11 72 l 1
 11 231 l 1
 89 291 l 1
 11 344 l 1
 11 507 l 1
 222 351 l 1
 222 507 l 1
252 254 m 1
 300 291 l 1
 252 324 l 1
 252 254 l 1
EndSplineSet
EndChar

StartChar: guilsinglleft
Encoding: 278 8249 133
GlifName: guilsinglleft
Width: 338
VWidth: 0
GlyphClass: 2
Flags: HW
LayerCount: 2
Back
SplineSet
157 500 m 257
 312 500 l 257
 181 292 l 257
 312 79 l 257
 157 79 l 257
 26 292 l 257
 157 500 l 257
EndSplineSet
Fore
SplineSet
149 515 m 1
 339 515 l 1
 199 292 l 1
 339 64 l 1
 149 64 l 1
 8 292 l 1
 149 515 l 1
EndSplineSet
EndChar

StartChar: guilsinglright
Encoding: 279 8250 134
GlifName: guilsinglright
Width: 338
VWidth: 0
GlyphClass: 2
Flags: HW
LayerCount: 2
Back
SplineSet
181 500 m 257
 312 292 l 257
 181 79 l 257
 26 79 l 257
 157 292 l 257
 26 500 l 257
 181 500 l 257
EndSplineSet
Fore
SplineSet
189 515 m 1
 330 292 l 1
 189 64 l 1
 -1 64 l 1
 139 292 l 1
 -1 515 l 1
 189 515 l 1
EndSplineSet
EndChar

StartChar: h
Encoding: 104 104 135
GlifName: h
Width: 481
VWidth: 0
GlyphClass: 2
Flags: HW
LayerCount: 2
Back
SplineSet
145 1 m 257xb6
 30 1 l 257xb6
 30 698 l 257
 144 698 l 257
 144 505 l 257
 147 506 l 258
 159 509 176 511 190 511 c 258
 193 511 l 257
 193 399 l 257xba
 190 399 l 258
 158 396 145 370 145 365 c 258
 145 1 l 257xb6
238 511 m 257
 241 511 l 256
 338 507 395 444 395 374 c 258
 395 1 l 257
 281 1 l 257
 281 365 l 258
 281 369 275 396 241 399 c 258
 238 399 l 257
 238 511 l 257
EndSplineSet
Fore
SplineSet
175 350 m 1
 175 1 l 1
 30 1 l 1
 30 698 l 1
 174 698 l 1
 174 509 l 1
 186 511 195 511 209 511 c 0
 233 511 l 1
 233 369 l 1
 210 369 l 1
 186 367 177 355 175 350 c 1
253 369 m 1
 253 511 l 1
 278 511 l 1
 391 507 455 442 455 367 c 0
 455 1 l 1
 311 1 l 1
 311 351 l 1
 310 355 304 367 277 369 c 1
 253 369 l 1
EndSplineSet
EndChar

StartChar: hungarumlaut
Encoding: 280 733 136
GlifName: hungarumlaut
Width: 336
VWidth: 0
GlyphClass: 2
Flags: HW
LayerCount: 2
Back
SplineSet
109 605 m 257
 26 605 l 257
 55 757 l 257
 167 757 l 257
 109 605 l 257
252 605 m 257
 169 605 l 257
 198 757 l 257
 310 757 l 257
 252 605 l 257
EndSplineSet
Fore
SplineSet
262 590 m 1
 151 590 l 1
 182 755 l 1
 119 590 l 1
 8 590 l 1
 43 772 l 1
 186 772 l 1
 189 772 l 1
 332 772 l 1
 262 590 l 1
EndSplineSet
EndChar

StartChar: hyphen
Encoding: 45 45 137
GlifName: hyphen
Width: 416
VWidth: 0
GlyphClass: 2
Flags: HW
LayerCount: 2
Back
SplineSet
366 357 m 257
 366 230 l 257
 50 230 l 257
 50 357 l 257
 366 357 l 257
EndSplineSet
Fore
SplineSet
381 372 m 1
 381 215 l 1
 35 215 l 1
 35 372 l 1
 381 372 l 1
EndSplineSet
EndChar

StartChar: i
Encoding: 105 105 138
GlifName: i
Width: 229
VWidth: 0
GlyphClass: 2
Flags: HW
LayerCount: 2
Back
SplineSet
172 630 m 256x38
 172 591 139 558 99 558 c 256
 59 558 26 591 26 630 c 256
 26 670 59 703 99 703 c 256
 139 703 172 670 172 630 c 256x38
161 0 m 257xb4
 39 0 l 257
 39 516 l 257
 161 516 l 257
 161 0 l 257xb4
EndSplineSet
Fore
SplineSet
114 703 m 0
 162 703 202 663 202 615 c 0
 202 568 162 528 114 528 c 0
 66 528 26 568 26 615 c 0
 26 663 66 703 114 703 c 0
191 516 m 1
 191 0 l 1
 39 0 l 1
 39 516 l 1
 191 516 l 1
EndSplineSet
EndChar

StartChar: iacute
Encoding: 237 237 139
GlifName: iacute
Width: 229
VWidth: 0
GlyphClass: 2
Flags: HW
LayerCount: 2
Back
SplineSet
161 0 m 257xb0
 39 0 l 257
 39 516 l 257
 161 516 l 257
 161 0 l 257xb0
144 577 m 257
 54 577 l 257
 90 729 l 257
 218 729 l 257
 144 577 l 257
EndSplineSet
Fore
SplineSet
191 516 m 1
 191 0 l 1
 39 0 l 1
 39 516 l 1
 191 516 l 1
257 729 m 1
 168 547 l 1
 50 547 l 1
 93 729 l 1
 257 729 l 1
EndSplineSet
EndChar

StartChar: idieresis
Encoding: 239 239 141
GlifName: idieresis
Width: 259
VWidth: 0
GlyphClass: 2
Flags: HW
LayerCount: 2
Back
SplineSet
161 0 m 257xb4
 39 0 l 257
 39 516 l 257
 161 516 l 257
 161 0 l 257xb4
109 651 m 256x32
 109 693 142 727 184 727 c 256
 226 727 259 693 259 651 c 256
 259 609 226 576 184 576 c 256
 142 576 109 609 109 651 c 256x32
-61 651 m 256x38
 -61 693 -28 727 14 727 c 256
 56 727 89 693 89 651 c 256
 89 609 56 576 14 576 c 256
 -28 576 -61 609 -61 651 c 256x38
EndSplineSet
Fore
SplineSet
29 546 m 0
 -21 546 -61 586 -61 636 c 0
 -61 686 -21 727 29 727 c 0
 69 727 102 701 114 666 c 1
 126 701 159 727 229 727 c 0
 279 727 319 686 319 636 c 0
 319 586 279 546 229 546 c 0
 159 546 126 571 114 606 c 1
 102 571 69 546 29 546 c 0
221 516 m 1
 221 0 l 1
 39 0 l 1
 39 516 l 1
 221 516 l 1
EndSplineSet
EndChar

StartChar: igrave
Encoding: 236 236 142
GlifName: igrave
Width: 229
VWidth: 0
GlyphClass: 2
Flags: HW
LayerCount: 2
Back
SplineSet
161 0 m 257xb0
 39 0 l 257
 39 516 l 257
 161 516 l 257
 161 0 l 257xb0
54 577 m 257
 -20 729 l 257
 108 729 l 257
 144 577 l 257
 54 577 l 257
EndSplineSet
Fore
SplineSet
200 516 m 1
 200 0 l 1
 48 0 l 1
 48 516 l 1
 200 516 l 1
187 547 m 1
 69 547 l 1
 -20 729 l 1
 144 729 l 1
 187 547 l 1
EndSplineSet
EndChar

StartChar: j
Encoding: 106 106 143
GlifName: j
Width: 224
VWidth: 0
GlyphClass: 2
Flags: HW
LayerCount: 2
Back
SplineSet
159 -38 m 258xe8
 159 -85 109 -181 7 -181 c 258
 -50 -181 l 257
 -23 -64 l 257
 4 -64 l 257
 32 -63 37 -40 37 -38 c 258
 37 516 l 257
 159 516 l 257
 159 -38 l 258xe8
170 628 m 256xf0
 170 588 137 556 97 556 c 256
 57 556 24 588 24 628 c 256
 24 668 57 702 97 702 c 256
 137 702 170 668 170 628 c 256xf0
EndSplineSet
Fore
SplineSet
193 516 m 1
 193 -23 l 2
 193 -77 138 -181 26 -181 c 0
 -50 -181 l 1
 -16 -34 l 1
 23 -34 l 1
 37 -33 40 -25 41 -22 c 1
 41 516 l 1
 193 516 l 1
116 702 m 0
 165 702 204 661 204 613 c 0
 204 564 164 526 116 526 c 0
 68 526 28 564 28 613 c 0
 28 661 67 702 116 702 c 0
EndSplineSet
EndChar

StartChar: k
Encoding: 107 107 144
GlifName: k
Width: 512
VWidth: 0
GlyphClass: 2
Flags: HW
LayerCount: 2
Back
SplineSet
155 0 m 257xb8
 30 0 l 257
 30 698 l 257
 155 698 l 257
 155 0 l 257xb8
296 0 m 257
 183 257 l 257
 295 514 l 257
 428 514 l 257
 313 257 l 257
 428 0 l 257
 296 0 l 257
EndSplineSet
Fore
SplineSet
191 264 m 1
 191 0 l 1
 30 0 l 1
 30 698 l 1
 191 698 l 1
 191 250 l 1
 330 514 l 1
 496 514 l 1
 374 257 l 1
 496 -0 l 1
 331 0 l 1
 191 264 l 1
EndSplineSet
EndChar

StartChar: l
Encoding: 108 108 145
GlifName: l
Width: 214
VWidth: 0
GlyphClass: 2
Flags: HW
HStem: 0 21G<30 191> 678 20G<30 191>
VStem: 30 161<0 698>
LayerCount: 2
Back
SplineSet
161 0 m 257
 30 0 l 257
 30 698 l 257
 161 698 l 257
 161 0 l 257
EndSplineSet
Fore
SplineSet
191 698 m 1
 191 0 l 1
 30 0 l 1
 30 698 l 1
 191 698 l 1
EndSplineSet
EndChar

StartChar: less
Encoding: 60 60 146
GlifName: less
Width: 414
VWidth: 0
GlyphClass: 2
Flags: HW
LayerCount: 2
Back
SplineSet
384 500 m 257
 384 370 l 257
 208 292 l 257
 384 206 l 257
 384 79 l 257
 30 258 l 257
 30 322 l 257
 384 500 l 257
EndSplineSet
Fore
SplineSet
399 524 m 1
 399 360 l 1
 244 291 l 1
 399 215 l 1
 399 55 l 1
 15 249 l 1
 15 331 l 1
 399 524 l 1
EndSplineSet
EndChar

StartChar: logicalnot
Encoding: 172 172 147
GlifName: logicalnot
Width: 502
VWidth: 0
GlyphClass: 2
Flags: HW
LayerCount: 2
Back
SplineSet
476 208 m 257
 358 208 l 257
 358 327 l 257
 26 327 l 257
 26 442 l 257
 476 442 l 257
 476 208 l 257
EndSplineSet
Fore
SplineSet
491 193 m 1
 343 193 l 1
 343 312 l 1
 11 312 l 1
 11 457 l 1
 491 457 l 1
 491 193 l 1
EndSplineSet
EndChar

StartChar: lslash
Encoding: 281 322 148
GlifName: lslash
Width: 484
VWidth: 0
GlyphClass: 2
Flags: HW
LayerCount: 2
Back
SplineSet
326 536 m 257
 398 443 l 257
 98 209 l 257
 26 302 l 257
 326 536 l 257
EndSplineSet
Refer: 145 108 N 1 0 0 1 117 0 2
Fore
SplineSet
26 290 m 1
 380 542 l 1
 470 425 l 1
 116 173 l 1
 26 290 l 1
EndSplineSet
Refer: 145 108 N 1 0 0 1 117 0 2
EndChar

StartChar: m
Encoding: 109 109 149
GlifName: m
Width: 774
VWidth: 0
GlyphClass: 2
Flags: HW
LayerCount: 2
Back
SplineSet
154 372 m 257xbc
 154 0 l 257
 30 0 l 257
 30 377 l 258
 30 425 84 519 189 519 c 258
 195 519 l 257
 195 398 l 257
 189 398 l 258
 159 398 154 374 154 372 c 257xbc
530 372 m 257
 530 375 524 398 494 398 c 258
 488 398 l 257
 488 519 l 257
 494 519 l 258
 600 519 654 422 654 377 c 258
 654 0 l 257
 530 0 l 257
 530 372 l 257
280 0 m 257
 280 372 l 258
 280 375 273 398 243 398 c 258
 237 398 l 257
 237 519 l 257
 243 519 l 258
 285 519 317 505 342 486 c 257
 367 506 399 519 441 519 c 258
 447 519 l 257
 447 398 l 257
 441 398 l 258
 410 398 404 374 404 372 c 257
 404 0 l 257
 280 0 l 257
EndSplineSet
Fore
SplineSet
216 368 m 0
 196 368 192 360 191 357 c 2
 191 0 l 1
 30 0 l 1
 30 371 l 0
 30 424 89 519 216 519 c 0
 242 519 l 1
 242 368 l 1
 216 368 l 0
590 0 m 1
 590 357 l 1
 589 360 585 368 564 368 c 0
 538 368 l 1
 538 519 l 1
 564 519 l 0
 685 519 744 421 744 371 c 0
 744 0 l 1
 590 0 l 1
471 0 m 1
 310 0 l 1
 310 356 l 1
 308 360 303 368 283 368 c 0
 257 368 l 1
 257 519 l 1
 283 519 l 0
 329 519 361 507 387 490 c 1
 413 508 448 519 498 519 c 0
 524 519 l 1
 524 368 l 1
 498 368 l 0
 476 368 472 359 471 356 c 1
 471 0 l 1
EndSplineSet
EndChar

StartChar: mu
Encoding: 181 181 152
GlifName: mu
Width: 468
VWidth: 0
GlyphClass: 2
Flags: HW
LayerCount: 2
Back
SplineSet
26 698 m 257xb5
 150 698 l 257
 150 356 l 257
 150 326 l 258xb3
 150 323 156 300 187 300 c 258
 192 300 l 257
 192 179 l 257xb5
 187 179 l 258
 174 179 162 180 150 183 c 257
 150 0 l 257
 26 0 l 257xb3
 26 321 l 257
 26 356 l 257
 26 698 l 257xb5
276 700 m 257x29
 400 700 l 257x29
 400 698 l 257
 400 328 l 258
 400 325 406 302 437 302 c 258
 442 302 l 257
 442 181 l 257
 437 181 l 258
 397 181 364 194 339 213 c 257
 313 193 280 179 239 179 c 258
 234 179 l 257
 234 300 l 257
 239 300 l 258
 270 300 276 324 276 326 c 258
 276 698 l 257x31
 276 700 l 257x29
EndSplineSet
Fore
SplineSet
11 713 m 1
 165 713 l 1
 165 327 l 1
 166 324 169 315 187 315 c 0
 207 315 l 1
 207 164 l 1
 187 164 l 0
 180 164 172 164 165 165 c 1
 165 -15 l 1
 11 -15 l 1
 11 713 l 1
261 715 m 1
 415 715 l 1
 415 329 l 1
 416 326 419 317 437 317 c 0
 457 317 l 1
 457 166 l 1
 437 166 l 0
 398 166 365 178 339 195 c 1
 311 176 279 164 239 164 c 0
 219 164 l 1
 219 315 l 1
 239 315 l 0
 256 315 260 325 261 328 c 1
 261 715 l 1
EndSplineSet
EndChar

StartChar: multiply
Encoding: 215 215 153
GlifName: multiply
Width: 757
VWidth: 0
GlyphClass: 2
Flags: HW
LayerCount: 2
Back
SplineSet
260 417 m 257
 100 578 l 257
 189 667 l 257
 349 507 l 257
 508 666 l 257
 597 577 l 257
 438 418 l 257
 597 259 l 257
 507 170 l 257
 349 328 l 257
 190 168 l 257
 101 257 l 257
 260 417 l 257
EndSplineSet
Fore
SplineSet
264 417 m 1
 100 567 l 1
 210 678 l 1
 385 528 l 1
 559 677 l 1
 669 566 l 1
 507 418 l 1
 669 270 l 1
 558 160 l 1
 385 307 l 1
 211 157 l 1
 101 268 l 1
 264 417 l 1
EndSplineSet
EndChar

StartChar: n
Encoding: 110 110 154
GlifName: n
Width: 494
VWidth: 0
GlyphClass: 2
Flags: HW
HStem: 0 21G<30 191.143 310 464> 368 151<195.022 243.143 258 304.9>
VStem: 30 161<0 367.844> 310 154<0 367.799>
LayerCount: 2
Back
SplineSet
280 372 m 257
 280 375 273 398 243 398 c 258
 238 398 l 257
 238 519 l 257
 243 519 l 258
 350 519 404 422 404 377 c 258
 404 0 l 257
 280 0 l 257
 280 372 l 257
154 372 m 257
 154 0 l 257
 30 0 l 257
 30 377 l 258
 30 425 84 519 191 519 c 258
 196 519 l 257
 196 398 l 257
 191 398 l 258
 160 398 154 374 154 372 c 257
EndSplineSet
Fore
SplineSet
310 0 m 1
 310 356 l 1
 308 360 303 368 283 368 c 0
 258 368 l 1
 258 519 l 1
 283 519 l 0
 405 519 464 421 464 371 c 0
 464 0 l 1
 310 0 l 1
218 368 m 0
 196 368 192 359 191 356 c 1
 191 0 l 1
 30 0 l 1
 30 371 l 0
 30 424 89 519 218 519 c 0
 243 519 l 1
 243 368 l 1
 218 368 l 0
EndSplineSet
EndChar

StartChar: nine
Encoding: 57 57 155
GlifName: nine
Width: 564
VWidth: 0
GlyphClass: 2
Flags: HW
LayerCount: 2
Back
SplineSet
218 274 m 257
 94 274 26 359 26 485 c 256
 26 610 117 699 218 700 c 257
 218 576 l 257
 183 572 145 540 145 491 c 256
 145 409 198 395 217 390 c 257
 218 274 l 257
142 178 m 257
 164 150 175 132 218 127 c 257
 218 1 l 257
 140 1 76 51 43 115 c 257
 142 178 l 257
272 2 m 257
 272 127 l 257
 344 142 349 248 349 300 c 257
 330 285 302 274 272 274 c 257
 272 392 l 257
 273 392 l 256
 293 397 340 413 340 490 c 256
 340 529 310 571 272 575 c 257
 272 700 l 257
 447 700 478 513 478 341 c 256
 478 224 444 6 272 2 c 257
EndSplineSet
Fore
SplineSet
263 259 m 1
 246 259 l 2
 100 259 26 350 26 478 c 0
 26 606 123 699 246 700 c 0
 263 700 l 1
 263 553 l 1
 248 551 l 0
 216 548 179 522 179 483 c 0
 179 413 229 404 249 400 c 0
 262 397 l 1
 263 259 l 1
160 213 m 1
 169 202 l 2
 192 173 197 161 235 157 c 0
 248 155 l 1
 248 1 l 1
 233 1 l 0
 148 1 80 55 45 123 c 0
 38 135 l 1
 160 213 l 1
299 2 m 0
 279 2 l 1
 279 146 l 1
 295 148 l 0
 357 157 374 220 378 273 c 1
 356 264 334 259 308 259 c 0
 291 259 l 1
 291 407 l 1
 307 407 l 1
 328 412 369 423 369 486 c 0
 369 517 338 550 306 553 c 0
 291 554 l 1
 291 700 l 1
 308 700 l 0
 508 700 538 504 538 341 c 0
 538 231 506 6 299 2 c 0
EndSplineSet
EndChar

StartChar: numbersign
Encoding: 35 35 157
GlifName: numbersign
Width: 888
VWidth: 0
GlyphClass: 2
Flags: HW
LayerCount: 2
Back
SplineSet
335 22 m 257
 214 22 l 257
 241 176 l 257
 101 176 l 257
 126 297 l 257
 263 297 l 257
 281 404 l 257
 135 404 l 257
 157 525 l 257
 303 525 l 257
 330 682 l 257
 451 682 l 257
 423 524 l 257
 529 524 l 257
 556 682 l 257
 677 682 l 257
 649 524 l 257
 787 524 l 257
 768 403 l 257
 628 404 l 257
 609 296 l 257
 752 296 l 257
 734 175 l 257
 588 176 l 257
 561 22 l 257
 441 22 l 257
 467 176 l 257
 362 176 l 257
 335 22 l 257
507 404 m 257
 402 404 l 257
 383 297 l 257
 489 296 l 257
 507 404 l 257
EndSplineSet
Fore
SplineSet
348 7 m 1
 196 7 l 1
 223 161 l 1
 83 161 l 1
 114 312 l 1
 250 312 l 1
 263 389 l 1
 117 389 l 1
 144 540 l 1
 290 540 l 1
 317 697 l 1
 469 697 l 1
 441 539 l 1
 516 539 l 1
 543 697 l 1
 695 697 l 1
 667 539 l 1
 805 539 l 1
 781 388 l 1
 641 389 l 1
 627 311 l 1
 769 311 l 1
 747 160 l 1
 601 161 l 1
 574 7 l 1
 423 7 l 1
 449 161 l 1
 375 161 l 1
 348 7 l 1
489 389 m 1
 415 389 l 1
 401 312 l 1
 476 311 l 1
 489 389 l 1
EndSplineSet
EndChar

StartChar: o
Encoding: 111 111 158
GlifName: o
Width: 480
VWidth: 0
GlyphClass: 2
Flags: HW
HStem: -1 148<189.908 239.48 253.079 300.659> 368 148<190.125 239.48 253.079 300.454>
VStem: 28 211<82.2456 147 368 431.589> 28 157<147.184 367.701> 253 199<81.9768 147 368 434.483> 305 147<147.219 367.926>
LayerCount: 2
Back
SplineSet
28 376 m 258
 28 421 79 516 186 516 c 258
 192 516 l 257
 192 398 l 257
 186 398 l 258
 153 398 148 373 148 363 c 257
 148 154 l 257
 148 135 156 117 186 117 c 258
 192 117 l 257
 192 -1 l 257
 186 -1 l 258
 78 -1 28 97 28 141 c 258
 28 376 l 258
233 398 m 257
 233 516 l 257
 239 516 l 258
 342 516 392 421 392 376 c 258
 392 141 l 258
 392 96 343 -1 239 -1 c 258
 233 -1 l 257
 233 117 l 257
 239 117 l 258
 270 118 275 141 275 152 c 257
 275 363 l 257
 275 380 269 398 239 398 c 258
 233 398 l 257
EndSplineSet
Fore
SplineSet
28 147 m 0xd0
 28 370 l 2
 28 420 85 516 214 516 c 0
 239 516 l 1
 239 368 l 1xe0
 214 368 l 0
 187 368 185 356 185 350 c 0
 185 166 l 0xd0
 185 154 189 147 214 147 c 0
 239 147 l 1
 239 -1 l 1xe0
 214 -1 l 0
 83 -1 28 99 28 147 c 0xd0
279 368 m 0
 253 368 l 1
 253 516 l 1
 279 516 l 0
 397 516 452 419 452 370 c 0xc8
 452 147 l 0xc4
 452 98 398 -1 279 -1 c 0
 253 -1 l 1
 253 147 l 1xc8
 279 147 l 1
 303 148 305 158 305 165 c 0
 305 350 l 0xc4
 305 361 304 368 279 368 c 0
EndSplineSet
EndChar

StartChar: oe
Encoding: 283 339 162
GlifName: oe
Width: 761
VWidth: 0
GlyphClass: 2
Flags: HW
LayerCount: 2
Back
SplineSet
487 402 m 258
 483 402 l 257
 483 516 l 257
 489 516 l 258
 559 516 644 450 644 378 c 258
 644 208 l 257
 395 208 l 257
 395 141 l 258
 395 138 402 109 430 108 c 258
 489 108 l 258
 519 108 541 132 545 153 c 258
 546 157 l 257
 645 120 l 257
 644 118 l 257
 629 54 559 0 489 0 c 258
 430 0 l 258
 390 0 359 14 334 34 c 257
 310 14 277 -1 237 -1 c 258
 231 -1 l 257
 231 113 l 257
 237 113 l 258
 268 114 273 138 273 140 c 258
 273 372 l 258
 273 375 267 398 237 398 c 258
 231 398 l 257
 231 516 l 257
 237 516 l 258
 277 516 309 502 333 482 c 257
 358 502 390 516 429 516 c 258
 434 516 l 257
 434 400 l 257
 431 400 l 258
 402 400 395 380 395 369 c 258
 395 324 l 257
 530 324 l 257
 530 369 l 258
 530 396 507 402 487 402 c 258
26 376 m 258
 26 421 77 516 184 516 c 258
 190 516 l 257
 190 398 l 257
 184 398 l 258
 151 398 146 374 146 373 c 258
 146 142 l 258
 146 139 154 113 184 113 c 258
 190 113 l 257
 190 -1 l 257
 184 -1 l 258
 76 -1 26 97 26 141 c 258
 26 376 l 258
EndSplineSet
Fore
SplineSet
590 367 m 0
 590 380 579 383 556 383 c 2
 533 383 l 1
 533 516 l 1
 558 516 l 0
 641 516 734 449 734 370 c 0
 734 193 l 1
 473 193 l 1
 473 146 l 1
 475 140 485 129 505 128 c 1
 564 128 l 0
 586 128 602 145 605 158 c 0
 605 159 l 1
 611 178 l 1
 741 133 l 1
 733 119 l 0
 699 57 653 0 564 0 c 0
 505 0 l 0
 443 0 404 12 379 30 c 1
 353 11 321 -1 277 -1 c 0
 251 -1 l 1
 251 143 l 1
 277 143 l 1
 298 143 302 153 303 155 c 1
 303 357 l 1
 302 360 298 368 277 368 c 0
 251 368 l 1
 251 516 l 1
 277 516 l 0
 321 516 353 504 378 486 c 1
 404 504 439 516 485 516 c 0
 509 516 l 1
 509 370 l 1
 487 370 l 0
 463 370 462 363 462 359 c 0
 462 339 l 1
 590 339 l 1
 590 367 l 0
26 147 m 0
 26 370 l 2
 26 420 83 516 212 516 c 0
 237 516 l 1
 237 368 l 1
 212 368 l 0
 188 368 184 360 183 358 c 1
 183 157 l 1
 185 153 192 143 212 143 c 0
 237 143 l 1
 237 -1 l 1
 212 -1 l 0
 81 -1 26 99 26 147 c 0
EndSplineSet
EndChar

StartChar: one
Encoding: 49 49 164
GlifName: one
Width: 296
VWidth: 0
GlyphClass: 2
Flags: HW
LayerCount: 2
Back
SplineSet
106 499 m 257xa4
 30 439 l 257
 30 640 l 257xa8
 106 699 l 257
 236 699 l 257
 236 0 l 257
 106 0 l 257
 106 499 l 257xa4
EndSplineSet
Fore
SplineSet
106 0 m 1
 106 463 l 1
 30 406 l 1
 30 635 l 1
 116 699 l 1
 266 699 l 1
 266 0 l 1
 106 0 l 1
EndSplineSet
EndChar

StartChar: onehalf
Encoding: 189 189 165
GlifName: onehalf
Width: 581
VWidth: 0
GlyphClass: 2
Flags: HW
LayerCount: 2
Back
SplineSet
422 288 m 258xe4
 420 287 400 278 400 250 c 258
 400 248 l 257
 337 261 l 257
 338 263 l 257
 343 306 374 347 422 353 c 257
 424 354 l 257
 424 290 l 257
 424 288 l 257
 422 288 l 258xe4
26 -2 m 257
 458 702 l 257
 534 702 l 257
 109 -2 l 257
 26 -2 l 257
551 65 m 257
 551 -1 l 257
 346 -1 l 257
 346 65 l 257
 551 65 l 257
448 288 m 257
 448 354 l 257
 453 354 l 258
 531 354 553 290 554 251 c 256
 554 197 529 180 499 159 c 256
 464 134 445 119 428 93 c 257
 427 92 l 257
 348 92 l 257
 349 94 l 258
 379 156 429 184 444 196 c 256
 467 215 490 220 490 251 c 256
 490 275 476 287 449 288 c 258
 448 288 l 257
114 597 m 257xec
 76 567 l 257
 76 671 l 257xf4
 114 702 l 257
 182 702 l 257
 182 349 l 257
 114 349 l 257
 114 597 l 257xec
EndSplineSet
Fore
SplineSet
99 566 m 1
 61 536 l 1
 61 678 l 1
 109 717 l 1
 197 717 l 1
 197 334 l 1
 99 334 l 1
 99 566 l 1
566 80 m 1
 566 -16 l 1
 331 -16 l 1
 331 77 l 1
 324 77 l 1
 336 101 l 2
 368 167 422 198 435 208 c 0
 463 231 475 230 475 251 c 0
 475 267 470 272 449 273 c 2
 439 273 l 1
 433 273 l 1
 426 273 l 2
 422 270 415 265 415 250 c 2
 415 230 l 1
 315 250 l 1
 323 267 l 1
 330 315 365 360 418 368 c 1
 439 378 l 1
 439 369 l 1
 453 369 l 2
 542 369 568 294 569 251 c 0
 569 190 538 168 508 147 c 0
 473 122 456 109 441 85 c 2
 440 83 l 1
 436 80 l 1
 566 80 l 1
-1 -17 m 1
 450 717 l 1
 561 717 l 1
 117 -17 l 1
 -1 -17 l 1
EndSplineSet
EndChar

StartChar: onequarter
Encoding: 188 188 166
GlifName: onequarter
Width: 560
VWidth: 0
GlyphClass: 2
Flags: HW
LayerCount: 2
Back
SplineSet
113 597 m 257x36
 75 567 l 257
 75 671 l 257x3a
 114 702 l 257
 181 702 l 257
 181 349 l 257
 113 349 l 257
 113 597 l 257x36
488 137 m 257xb3
 488 71 l 257xb3
 461 71 l 257
 461 -1 l 257
 393 -1 l 257xb280
 393 352 l 257xb3
 461 352 l 257
 461 137 l 257xb280
 488 137 l 257xb3
368 137 m 257
 368 71 l 257
 270 71 l 257
 270 137 l 257
 368 305 l 257
 368 175 l 257
 346 137 l 257
 368 137 l 257
26 -2 m 257
 458 702 l 257
 534 702 l 257
 109 -2 l 257
 26 -2 l 257
EndSplineSet
Fore
SplineSet
-1 -17 m 1
 450 717 l 1
 561 717 l 1
 117 -17 l 1
 -1 -17 l 1
503 152 m 1
 503 56 l 1
 476 56 l 1
 476 -16 l 1
 378 -16 l 1
 378 56 l 1
 255 56 l 1
 255 141 l 1
 378 352 l 1
 378 367 l 1
 476 367 l 1
 476 152 l 1
 503 152 l 1
98 566 m 1
 60 536 l 1
 60 678 l 1
 109 717 l 1
 196 717 l 1
 196 334 l 1
 98 334 l 1
 98 566 l 1
378 162 m 1
 372 152 l 1
 378 152 l 1
 378 162 l 1
EndSplineSet
EndChar

StartChar: ordfeminine
Encoding: 170 170 167
GlifName: ordfeminine
Width: 227
VWidth: 0
GlyphClass: 2
Flags: HW
LayerCount: 2
Back
SplineSet
26 430 m 257
 201 430 l 257
 201 362 l 257
 26 362 l 257
 26 430 l 257
96 649 m 258
 87 648 80 643 80 627 c 258
 80 623 l 257
 31 642 l 257
 31 644 l 258
 31 676 65 701 96 701 c 258
 99 701 l 257
 99 649 l 257
 96 649 l 258
116 701 m 257
 119 701 l 258
 165 701 188 659 188 639 c 258
 188 535 l 258
 188 533 189 523 197 523 c 258
 200 523 l 257
 200 471 l 257
 197 471 l 258
 181 471 168 476 159 483 c 257
 148 475 136 471 120 471 c 258
 117 471 l 257
 117 523 l 257
 120 523 l 258
 132 523 134 536 134 537 c 258
 134 569 l 257
 115 559 85 554 79 551 c 256
 77 550 75 547 75 543 c 258
 75 537 l 258
 75 529 78 523 89 523 c 258
 99 523 l 257
 99 471 l 257
 97 471 l 258
 54 471 28 494 28 520 c 258
 28 551 l 258
 28 566 31 575 50 586 c 256
 70 598 134 610 134 626 c 258
 134 631 l 258
 134 641 133 648 119 649 c 258
 116 650 l 257
 116 701 l 257
EndSplineSet
Fore
SplineSet
120 456 m 2
 97 456 l 2
 50 456 13 482 13 520 c 2
 13 551 l 2
 13 569 20 586 42 599 c 0
 49 603 60 607 70 611 c 1
 16 632 l 1
 16 644 l 2
 16 687 59 716 96 716 c 2
 101 716 l 1
 114 716 l 1
 119 716 l 2
 175 716 203 666 203 639 c 2
 203 538 l 1
 215 538 l 1
 215 456 l 1
 197 456 l 2
 182 456 168 460 159 465 c 1
 146 458 135 456 120 456 c 2
99 538 m 2
 119 538 l 1
 119 547 l 1
 107 543 95 539 90 538 c 1
 93 538 96 538 99 538 c 2
97 634 m 2
 96 634 96 634 96 634 c 0
 96 633 95 631 95 627 c 2
 95 619 l 1
 106 623 115 626 119 629 c 1
 119 631 l 2
 119 632 119 634 119 634 c 2
 118 634 119 634 118 634 c 2
 116 634 l 1
 114 635 l 1
 114 634 l 1
 97 634 l 2
11 445 m 1
 216 445 l 1
 216 347 l 1
 11 347 l 1
 11 445 l 1
EndSplineSet
EndChar

StartChar: ordmasculine
Encoding: 186 186 168
GlifName: ordmasculine
Width: 230
VWidth: 0
GlyphClass: 2
Flags: HW
LayerCount: 2
Back
SplineSet
26 432 m 257
 204 432 l 257
 204 361 l 257
 26 361 l 257
 26 432 l 257
123 645 m 257
 123 700 l 257
 127 700 l 258
 173 700 196 658 196 637 c 258
 196 533 l 258
 196 513 174 470 127 470 c 258
 123 470 l 257
 123 523 l 257
 127 523 l 258
 139 523 141 532 141 533 c 258
 141 635 l 258
 141 636 139 645 127 645 c 258
 123 645 l 257
32 637 m 258
 32 658 55 700 103 700 c 258
 108 700 l 257
 108 645 l 257
 103 645 l 258
 90 645 88 636 88 635 c 258
 88 534 l 258
 88 533 91 525 103 525 c 258
 108 525 l 257
 108 470 l 257
 103 470 l 258
 54 470 32 513 32 533 c 258
 32 637 l 258
EndSplineSet
Fore
SplineSet
17 637 m 2
 17 666 45 715 103 715 c 2
 108 715 l 1
 123 715 l 1
 127 715 l 2
 183 715 211 665 211 637 c 2
 211 533 l 2
 211 506 184 455 127 455 c 2
 123 455 l 1
 108 455 l 1
 103 455 l 2
 44 455 17 506 17 533 c 2
 17 637 l 2
11 447 m 1
 219 447 l 1
 219 346 l 1
 11 346 l 1
 11 447 l 1
123 630 m 1
 108 630 l 1
 103 630 l 1
 103 540 l 1
 123 540 l 1
 123 538 l 1
 126 538 l 1
 126 630 l 1
 123 630 l 1
EndSplineSet
EndChar

StartChar: oslash
Encoding: 248 248 169
GlifName: oslash
Width: 558
VWidth: 0
GlyphClass: 2
Flags: HW
LayerCount: 2
Back
SplineSet
445 490 m 257
 498 430 l 257
 431 369 l 257
 431 141 l 258
 431 96 382 -1 278 -1 c 258
 272 -1 l 257
 272 117 l 257
 278 117 l 258
 309 118 314 141 314 152 c 258
 314 261 l 257
 188 145 l 257
 190 130 200 117 225 117 c 258
 231 117 l 257
 231 -1 l 257
 225 -1 l 258
 165 -1 123 29 98 63 c 257
 53 22 l 257
 0 82 l 257
 67 143 l 257
 67 376 l 258
 67 421 118 516 225 516 c 258
 231 516 l 257
 231 398 l 257
 225 398 l 258
 192 398 187 373 187 363 c 258
 187 253 l 257
 314 370 l 257
 312 384 304 398 278 398 c 258
 272 398 l 257
 272 516 l 257
 278 516 l 258
 336 516 378 486 402 451 c 257
 445 490 l 257
EndSplineSet
Fore
SplineSet
455 461 m 1
 497 497 l 1
 570 419 l 1
 497 357 l 1
 497 147 l 0
 497 98 443 -1 325 -1 c 0
 300 -1 l 1
 300 147 l 1
 325 147 l 1
 348 148 350 160 350 167 c 0
 350 242 l 1
 235 155 l 1
 238 151 243 147 260 147 c 0
 286 147 l 1
 286 -1 l 1
 260 -1 l 0
 188 -1 145 24 117 53 c 1
 73 15 l 1
 0 93 l 1
 73 156 l 1
 73 370 l 0
 73 420 129 516 260 516 c 0
 286 516 l 1
 286 368 l 1
 260 368 l 0
 233 368 232 354 232 348 c 0
 232 272 l 1
 348 360 l 1
 346 364 343 368 325 368 c 0
 300 368 l 1
 300 516 l 1
 325 516 l 0
 385 516 428 491 455 461 c 1
EndSplineSet
EndChar

StartChar: p
Encoding: 112 112 171
GlifName: p
Width: 512
VWidth: 0
GlyphClass: 2
Flags: HW
LayerCount: 2
Back
SplineSet
232 0 m 258
 203 0 l 257
 203 118 l 257
 234 118 l 257
 271 119 276 134 276 143 c 258
 276 372 l 257
 276 385 258 398 228 398 c 258
 196 398 l 257
 196 516 l 257
 228 516 l 258
 335 516 396 431 396 375 c 258
 396 139 l 257
 396 86 345 0 232 0 c 258
30 516 m 257
 155 516 l 257
 155 -182 l 257
 30 -182 l 257
 30 516 l 257
EndSplineSet
Fore
SplineSet
486 146 m 0
 486 88 429 0 277 0 c 2
 233 0 l 1
 233 148 l 1
 281 148 l 1
 341 149 336 157 336 157 c 0
 306 358 l 1
 305 359 295 368 265 368 c 0
 206 368 l 1
 206 516 l 1
 265 516 l 0
 388 516 456 430 456 369 c 0
 486 146 l 0
30 -182 m 1
 30 516 l 1
 192 516 l 1
 204 -182 l 1
 30 -182 l 1
EndSplineSet
EndChar

StartChar: paragraph
Encoding: 182 182 172
GlifName: paragraph
Width: 444
VWidth: 0
GlyphClass: 2
Flags: HW
LayerCount: 2
Back
SplineSet
278 705 m 257
 278 -5 l 257
 195 -5 l 257
 195 329 l 257
 91 329 26 403 26 517 c 256
 26 617 93 705 195 705 c 256
 223 705 250 705 278 705 c 257
418 705 m 257
 418 -5 l 257
 335 -5 l 257
 335 705 l 257
 418 705 l 257
EndSplineSet
Fore
SplineSet
293 720 m 1
 293 -20 l 1
 180 -20 l 1
 180 314 l 1
 74 321 11 403 11 517 c 0
 11 623 83 720 195 720 c 0
 293 720 l 1
433 720 m 1
 433 -20 l 1
 320 -20 l 1
 320 720 l 1
 433 720 l 1
EndSplineSet
EndChar

StartChar: parenleft
Encoding: 40 40 173
GlifName: parenleft
Width: 262
VWidth: 0
GlyphClass: 2
Flags: HW
LayerCount: 2
Back
SplineSet
212 735 m 257
 213 648 l 257
 174 625 154 593 153 521 c 258
 153 208 l 258
 153 107.681783775 176.520521452 73.9299579446 213 51 c 261
 213 -37 l 257
 71 22 50 93 50 189 c 257
 50 510 l 257
 50 652 113 696 212 735 c 257
EndSplineSet
Fore
SplineSet
<<<<<<< HEAD
227 757 m 1
 228 639 l 1
 221 635 l 0
 187 615 169 590 168 521 c 1
 168 202 l 0
 168 107 190 83 221 64 c 0
 228 59 l 1
 228 -59 l 1
 207 -51 l 0
 60 10 35 89 35 189 c 0
 35 510 l 0
 35 659 106 709 207 749 c 0
 227 757 l 1
=======
226 757 m 5
 226.098632812 639.490234375 l 5
 187.28515625 616.599609375 169.03976385 595.758835531 168 520.895838356 c 5
 168 202 l 6
 168 100.129233091 190.0390625 81.892578125 226 59.2890625 c 5
 226 -59.4755859375 l 5
 74.2139410602 4.59125731543 35 77.2318938287 35 189 c 6
 35 510 l 6
 35 670.507969169 115.75 717.568359375 226 757 c 5
>>>>>>> origin/master
EndSplineSet
EndChar

StartChar: parenright
Encoding: 41 41 174
GlifName: parenright
Width: 262
VWidth: 0
GlyphClass: 2
Flags: HW
LayerCount: 2
Back
SplineSet
101 746 m 257
 209 706 280 650 280 510 c 257
 280 189 l 257
 280 93 243 9 101 -47 c 257
 101 51 l 257
 136 73 161 104 161 202 c 256
 161 204 161 206 161 208 c 258
 161 521 l 258
 160 593 139 626 100 649 c 257
 101 746 l 257
EndSplineSet
Fore
SplineSet
<<<<<<< HEAD
106 760 m 2
 217 719 295 657 295 510 c 0
 295 189 l 0
 295 88 254 -3 107 -61 c 0
 86 -69 l 1
 86 59 l 1
 93 64 l 0
 124 83 146 107 146 202 c 0
 146 521 l 1
 145 590 126 616 92 636 c 0
 85 640 l 1
 86 767 l 1
 106 760 l 2
=======
89 757 m 1
 88.9013671875 639.490234375 l 1
 127.71484375 616.599609375 145.959960938 595.758789062 147 520.895507812 c 1
 147 202 l 2
 147 100.12890625 124.9609375 81.892578125 89 59.2890625 c 1
 89 -59.4755859375 l 1
 240.786132812 4.5908203125 280 77.2314453125 280 189 c 2
 280 510 l 2
 280 670.5078125 199.25 717.568359375 89 757 c 1
>>>>>>> origin/master
EndSplineSet
EndChar

StartChar: period
Encoding: 46 46 175
GlifName: period
Width: 250
VWidth: 0
GlyphClass: 2
Flags: HW
LayerCount: 2
Back
SplineSet
50 53 m 256
 50 95 83 129 125 129 c 256
 167 129 200 95 200 53 c 256
 200 11 167 -22 125 -22 c 256
 83 -22 50 11 50 53 c 256
EndSplineSet
Fore
SplineSet
35 53 m 0
 35 103 75 144 125 144 c 0
 175 144 215 103 215 53 c 0
 215 3 175 -37 125 -37 c 0
 75 -37 35 3 35 53 c 0
EndSplineSet
EndChar

StartChar: perthousand
Encoding: 284 8240 177
GlifName: perthousand
Width: 897
VWidth: 0
GlyphClass: 2
Flags: HW
LayerCount: 2
Back
SplineSet
67 0 m 257
 497 700 l 257
 570 700 l 257
 147 0 l 257
 67 0 l 257
151 702 m 257
 197 699 246 657 246 528 c 256
 246 378 186 353 152 351 c 257
 150 350 l 257
 150 415 l 257
 151 415 l 257
 177 421 178 476 178 522 c 258
 178 551 l 258
 178 583 176 631 151 637 c 257
 150 637 l 257
 150 703 l 257
 151 702 l 257
122 703 m 257
 122 637 l 257
 121 637 l 257
 96 631 94 583 94 551 c 258
 94 522 l 258
 94 476 95 421 121 415 c 257
 122 415 l 257
 122 350 l 257
 120 351 l 257
 86 353 26 378 26 528 c 256
 26 656 75 699 121 702 c 257
 122 703 l 257
518 352 m 258
 564 349 614 307 614 178 c 256
 614 28 553 2 519 0 c 258
 517 0 l 257
 517 65 l 257
 518 65 l 257
 544 71 546 125 546 171 c 258
 546 201 l 258
 546 233 543 281 518 287 c 257
 516 287 l 257
 516 352 l 257
 518 352 l 258
490 352 m 257
 490 287 l 257
 488 287 l 257
 463 281 461 233 461 201 c 258
 461 171 l 258
 461 125 462 71 488 65 c 257
 489 65 l 257
 489 0 l 257
 487 0 l 258
 453 2 393 28 393 178 c 256
 393 306 442 349 488 352 c 258
 490 352 l 257
776 352 m 258
 822 349 872 307 872 178 c 256
 872 28 811 2 777 0 c 258
 775 0 l 257
 775 65 l 257
 776 65 l 257
 802 71 804 125 804 171 c 258
 804 201 l 258
 804 233 801 281 776 287 c 257
 774 287 l 257
 774 352 l 257
 776 352 l 258
748 352 m 257
 748 287 l 257
 746 287 l 257
 721 281 719 233 719 201 c 258
 719 171 l 258
 719 125 720 71 746 65 c 257
 747 65 l 257
 747 0 l 257
 745 0 l 258
 711 2 651 28 651 178 c 256
 651 306 700 349 746 352 c 258
 748 352 l 257
EndSplineSet
Fore
SplineSet
777 367 m 2
 834 363 887 310 887 178 c 0
 887 24 821 -12 778 -15 c 2
 777 -15 l 1
 762 -15 l 1
 760 -15 l 1
 745 -15 l 1
 744 -15 l 2
 701 -12 636 24 636 178 c 0
 636 309 688 363 745 367 c 2
 746 367 l 1
 759 367 l 1
 763 367 l 1
 776 367 l 1
 777 367 l 2
519 367 m 2
 576 363 629 310 629 178 c 0
 629 24 563 -12 520 -15 c 2
 519 -15 l 1
 504 -15 l 1
 502 -15 l 1
 487 -15 l 1
 486 -15 l 2
 443 -12 378 24 378 178 c 0
 378 309 430 363 487 367 c 2
 488 367 l 1
 501 367 l 1
 505 367 l 1
 518 367 l 1
 519 367 l 2
158 716 m 1
 213 709 261 655 261 528 c 0
 261 377 199 340 156 336 c 1
 137 327 l 1
 137 326 l 1
 136 326 l 1
 135 326 l 1
 135 327 l 1
 116 336 l 1
 72 340 11 378 11 528 c 0
 11 655 60 709 114 716 c 1
 135 737 l 1
 135 739 l 1
 136 738 l 1
 137 739 l 1
 137 737 l 1
 158 716 l 1
40 -15 m 1
 489 715 l 1
 597 715 l 1
 155 -15 l 1
 40 -15 l 1
759 272 m 1
 748 272 l 2
 740 268 734 234 734 201 c 2
 734 171 l 2
 734 123 740 84 748 80 c 1
 760 80 l 1
 762 80 l 1
 774 80 l 1
 783 85 789 124 789 171 c 2
 789 201 l 2
 789 235 782 268 774 272 c 2
 763 272 l 1
 759 272 l 1
501 272 m 1
 490 272 l 2
 482 268 476 234 476 201 c 2
 476 171 l 2
 476 123 482 84 490 80 c 1
 502 80 l 1
 504 80 l 1
 516 80 l 1
 525 85 531 124 531 171 c 2
 531 201 l 2
 531 235 524 268 516 272 c 2
 505 272 l 1
 501 272 l 1
135 622 m 1
 123 622 l 2
 115 618 109 584 109 551 c 2
 109 522 l 2
 109 474 115 434 123 430 c 1
 135 430 l 1
 137 430 l 1
 149 430 l 1
 158 435 163 475 163 522 c 2
 163 551 l 2
 163 585 157 618 149 622 c 2
 137 622 l 1
 135 622 l 1
EndSplineSet
EndChar

StartChar: plus
Encoding: 43 43 178
GlifName: plus
Width: 475
VWidth: 0
GlyphClass: 2
Flags: HW
LayerCount: 2
Back
SplineSet
425 357 m 257
 425 230 l 257
 300 230 l 257
 300 87 l 257
 173 87 l 257
 173 230 l 257
 50 230 l 257
 50 357 l 257
 173 357 l 257
 173 498 l 257
 300 498 l 257
 300 357 l 257
 425 357 l 257
EndSplineSet
Fore
SplineSet
440 372 m 1
 440 215 l 1
 315 215 l 1
 315 72 l 1
 158 72 l 1
 158 215 l 1
 35 215 l 1
 35 372 l 1
 158 372 l 1
 158 513 l 1
 315 513 l 1
 315 372 l 1
 440 372 l 1
EndSplineSet
EndChar

StartChar: plusminus
Encoding: 177 177 179
GlifName: plusminus
Width: 575
VWidth: 0
GlyphClass: 2
Flags: HW
LayerCount: 2
Back
SplineSet
476 167 m 257
 476 40 l 257
 100 40 l 257
 100 167 l 257
 476 167 l 257
EndSplineSet
Refer: 178 43 N 1 0 0 1 0 161 2
Fore
SplineSet
491 182 m 1
 491 25 l 1
 85 25 l 1
 85 182 l 1
 491 182 l 1
EndSplineSet
Refer: 178 43 N 1 0 0 1 0 161 2
EndChar

StartChar: q
Encoding: 113 113 180
GlifName: q
Width: 506
VWidth: 0
GlyphClass: 2
Flags: HW
LayerCount: 2
Back
SplineSet
146 143 m 258
 146 141 150 119 188 118 c 258
 219 118 l 257
 219 0 l 257
 190 0 l 258
 77 0 27 93 26 139 c 257
 26 375 l 258
 26 420 76 516 183 516 c 258
 214 516 l 257
 214 398 l 257
 183 398 l 258
 151 398 146 375 146 373 c 257
 146 143 l 258
385 516 m 257
 386 -182 l 257
 262 -182 l 257
 261 516 l 257
 385 516 l 257
EndSplineSet
Fore
SplineSet
184 358 m 1
 191 158 l 2
 192 156 196 149 232 148 c 1
 279 148 l 1
 279 0 l 1
 235 0 l 0
 83 0 27 94 26 145 c 1
 26 369 l 0
 26 418 81 516 211 516 c 0
 269 516 l 1
 269 368 l 1
 211 368 l 0
 187 368 185 360 184 358 c 1
291 516 m 1
 445 516 l 1
 476 -182 l 1
 322 -182 l 1
 291 516 l 1
EndSplineSet
EndChar

StartChar: question
Encoding: 63 63 181
GlifName: question
Width: 460
VWidth: 0
GlyphClass: 2
Flags: HW
LayerCount: 2
Back
SplineSet
122 53 m 256xf4
 122 95 155 129 197 129 c 256
 239 129 273 95 273 53 c 256
 273 11 239 -22 197 -22 c 256
 155 -22 122 11 122 53 c 256xf4
112 526 m 257
 30 611 l 257
 60 649 110 703 218 703 c 256
 346 703 426 620 430 491 c 256
 430 488 430 484 430 481 c 256
 430 289 263 276 263 276 c 257
 263 166 l 257
 134 166 l 257
 134 386 l 257xec
 251 388 302 400 302 493 c 256
 302 545 257 575 210 575 c 256
 167 575 133 554 112 526 c 257
EndSplineSet
Fore
SplineSet
107 53 m 0
 107 103 147 144 197 144 c 0
 247 144 288 103 288 53 c 0
 288 3 247 -37 197 -37 c 0
 147 -37 107 3 107 53 c 0
113 503 m 1
 10 610 l 1
 18 620 l 0
 49 659 104 718 218 718 c 0
 354 718 441 627 445 491 c 1
 445 481 l 0
 445 311 319 271 278 263 c 1
 278 151 l 1
 119 151 l 1
 119 401 l 1
 134 401 l 0
 252 403 287 412 287 493 c 0
 287 535 251 560 210 560 c 0
 172 560 143 542 124 517 c 0
 113 503 l 1
EndSplineSet
EndChar

StartChar: questiondown
Encoding: 191 191 182
GlifName: questiondown
Width: 460
VWidth: 0
GlyphClass: 2
Flags: HW
LayerCount: 2
Back
SplineSet
112 163 m 257xec
 133 135 167 114 210 114 c 256
 257 114 302 144 302 196 c 256
 302 289 251 301 134 303 c 257
 134 523 l 257
 263 523 l 257
 263 413 l 257
 263 413 430 400 430 208 c 256
 430 72 349 -14 218 -14 c 256
 110 -14 60 40 30 78 c 257
 112 163 l 257xec
122 636 m 256xf4
 122 678 155 711 197 711 c 256
 239 711 273 678 273 636 c 256
 273 594 239 560 197 560 c 256
 155 560 122 594 122 636 c 256xf4
EndSplineSet
Fore
SplineSet
124 172 m 2
 143 147 172 129 210 129 c 0
 251 129 287 155 287 196 c 0
 287 277 252 286 134 288 c 0
 119 288 l 1
 119 538 l 1
 278 538 l 1
 278 426 l 1
 320 418 445 378 445 208 c 0
 445 65 357 -29 218 -29 c 0
 104 -29 49 30 18 69 c 0
 10 79 l 1
 113 186 l 1
 124 172 l 2
107 636 m 0
 107 686 147 726 197 726 c 0
 247 726 288 686 288 636 c 0
 288 586 247 545 197 545 c 0
 147 545 107 586 107 636 c 0
EndSplineSet
EndChar

StartChar: quotedbl
Encoding: 34 34 183
GlifName: quotedbl
Width: 407
VWidth: 0
GlyphClass: 2
Flags: HW
LayerCount: 2
Back
SplineSet
177 465 m 257
 50 465 l 257
 50 736 l 257
 177 736 l 257
 177 465 l 257
357 465 m 257
 230 465 l 257
 230 736 l 257
 357 736 l 257
 357 465 l 257
EndSplineSet
Fore
SplineSet
192 450 m 1
 35 450 l 1
 35 751 l 1
 192 751 l 1
 192 450 l 1
372 450 m 1
 215 450 l 1
 215 751 l 1
 372 751 l 1
 372 450 l 1
EndSplineSet
EndChar

StartChar: quotedbl.alt
Encoding: 285 -1 184
GlifName: quotedbl.alt
Width: 359
VWidth: 0
GlyphClass: 2
Flags: HW
LayerCount: 2
Back
SplineSet
153 476 m 257
 26 476 l 257
 26 700 l 257
 153 700 l 257
 153 476 l 257
333 476 m 257
 206 476 l 257
 206 700 l 257
 333 700 l 257
 333 476 l 257
EndSplineSet
Fore
SplineSet
168 461 m 1
 11 461 l 1
 11 715 l 1
 168 715 l 1
 168 461 l 1
348 461 m 1
 191 461 l 1
 191 715 l 1
 348 715 l 1
 348 461 l 1
EndSplineSet
EndChar

StartChar: quotesingle
Encoding: 39 39 191
GlifName: quotesingle
Width: 227
VWidth: 0
GlyphClass: 2
Flags: HW
LayerCount: 2
Back
SplineSet
177 465 m 257
 50 465 l 257
 50 736 l 257
 177 736 l 257
 177 465 l 257
EndSplineSet
Fore
SplineSet
192 450 m 1
 35 450 l 1
 35 751 l 1
 192 751 l 1
 192 450 l 1
EndSplineSet
EndChar

StartChar: r
Encoding: 114 114 192
GlifName: r
Width: 346
VWidth: 0
GlyphClass: 2
Flags: HW
LayerCount: 2
Back
SplineSet
36 516 m 257xb0
 160 516 l 257
 160 454 l 257
 181 481 229 516 284 516 c 258
 317 516 l 257
 289 395 l 257
 222 394 160 331 160 271 c 258
 160 0 l 257
 36 0 l 257
 36 516 l 257xb0
EndSplineSet
Fore
SplineSet
36 0 m 1
 36 516 l 1
 190 516 l 1
 190 475 l 1
 217 497 255 516 299 516 c 0
 351 516 l 1
 316 373 l 1
 304 373 l 0
 245 372 190 318 190 270 c 0
 190 0 l 1
 36 0 l 1
EndSplineSet
EndChar

StartChar: registered
Encoding: 174 174 193
GlifName: registered
Width: 404
VWidth: 0
GlyphClass: 2
Flags: HW
LayerCount: 2
Back
SplineSet
191 396 m 257
 192 354 l 257
 111 355 30 432 30 523 c 256
 30 524 30 524 30 525 c 256
 30 649 133 703 193 703 c 256
 194 703 194 703 195 703 c 257
 195 662 l 257
 136 662 70 609 70 526 c 256
 71 457 126 399 191 396 c 257
211 396 m 257
 276 399 332 456 334 525 c 256
 334 526 334 526 334 527 c 256
 334 608 270 662 211 662 c 257
 211 703 l 257
 277 702 374 641 374 528 c 256
 374 526 374 525 374 523 c 256
 374 423 288 357 211 354 c 257
 211 396 l 257
206 547 m 257
 210 547 l 258
 227 547 234 557 234 568 c 256
 234 582 224 591 210 591 c 258
 206 591 l 257
 206 628 l 257
 248 628 270 604 270 570 c 256
 270 551 264 538 251 530 c 257
 261 522 269 506 270 492 c 258
 270 431 l 257
 235 431 l 257
 235 481 l 258
 235 504 226 511 206 511 c 257
 206 547 l 257
151 627 m 257
 190 627 l 257
 190 430 l 257
 151 430 l 257
 151 627 l 257
EndSplineSet
Fore
SplineSet
205 496 m 1
 205 415 l 1
 168 415 l 2
 176 413 184 411 192 411 c 2
 201 411 l 1
 210 411 l 2
 219 411 229 413 238 416 c 2
 220 416 l 1
 220 481 l 2
 220 497 220 496 206 496 c 2
 205 496 l 1
191 642 m 1
 191 643 l 1
 206 643 l 2
 255 643 285 612 285 570 c 0
 285 554 281 540 272 529 c 1
 280 517 284 506 285 493 c 2
 285 493 l 1
 285 446 l 1
 305 467 318 494 319 525 c 2
 319 527 l 2
 319 600 261 647 211 647 c 2
 210 647 l 1
 196 647 l 1
 195 647 l 2
 185 647 175 645 165 642 c 2
 191 642 l 1
205 576 m 1
 205 562 l 1
 210 562 l 2
 220 562 219 565 219 568 c 0
 219 573 217 576 210 576 c 2
 205 576 l 1
136 430 m 1
 136 627 l 1
 107 607 85 571 85 526 c 0
 86 487 106 451 136 430 c 1
196 718 m 1
 196 718 l 1
 211 718 l 2
 284 717 389 651 389 528 c 2
 389 523 l 2
 389 414 296 342 212 339 c 2
 207 339 l 2
 207 339 l 1
 207 339 l 2
 196 338 l 1
 196 339 l 1
 192 339 l 2
 102 340 15 424 15 523 c 2
 15 525 l 2
 15 659 126 718 193 718 c 2
 196 718 l 1
EndSplineSet
EndChar

StartChar: ring
Encoding: 292 730 194
GlifName: ring
Width: 244
VWidth: 0
GlyphClass: 2
Flags: HW
LayerCount: 2
Back
SplineSet
90 526 m 256
 90 508 104 494 122 494 c 256
 140 494 154 508 154 526 c 256
 154 544 140 558 122 558 c 256
 104 558 90 544 90 526 c 256
26 526 m 256
 26 579 69 622 122 622 c 256
 175 622 218 579 218 526 c 256
 218 473 175 430 122 430 c 256
 69 430 26 473 26 526 c 256
EndSplineSet
Fore
SplineSet
105 526 m 0
 105 516 112 509 122 509 c 0
 132 509 139 516 139 526 c 0
 139 536 132 543 122 543 c 0
 112 543 105 536 105 526 c 0
11 526 m 0
 11 587 61 637 122 637 c 0
 183 637 233 587 233 526 c 0
 233 465 183 415 122 415 c 0
 61 415 11 465 11 526 c 0
EndSplineSet
EndChar

StartChar: s
Encoding: 115 115 195
GlifName: s
Width: 478
VWidth: 0
GlyphClass: 2
Flags: HW
HStem: -5 136<224.776 238.375 251.799 312.541> 374 143<184.686 233.375 247.605 304.092>
LayerCount: 2
Back
SplineSet
22 134 m 256
 21 136 l 257
 133 157 l 257
 133 154 l 258
 135 135 157 113 181 111 c 256
 184 110 l 257
 184 -5 l 257
 181 -5 l 258
 87 -5 25 70 22 134 c 256
388 376 m 258
 388 374 l 257
 276 355 l 257
 276 358 l 256
 272 399 234 404 226 404 c 258
 223 404 l 257
 224 517 l 257
 227 517 l 258
 321 517 388 440 388 376 c 258
182 406 m 257
 180 406 l 256
 140 402 138 377 138 362 c 256
 138 344 153 323 294 296 c 256
 346 286 397 243 397 160 c 256
 397 57 321 -5 228 -5 c 258
 225 -5 l 257
 225 109 l 257
 228 109 l 258
 243 110 280 120 280 153 c 256
 280 198 168 206 111 232 c 256
 62 256 26 287 26 371 c 256
 26 473 125 517 179 517 c 258
 182 517 l 257
 182 406 l 257
EndSplineSet
Fore
SplineSet
216 -5 m 0
 101 -5 35 75 30 145 c 1
 21 162 l 1
 176 190 l 1
 176 170 l 1
 178 159 198 142 218 141 c 0
 220 141 l 1
 238 136 l 1
 238 -5 l 1
 216 -5 l 0
269 517 m 0
 382 517 455 434 455 361 c 2
 455 346 l 1
 308 322 l 1
 308 342 l 1
 304 371 274 374 267 374 c 0
 246 374 l 1
 248 517 l 1
 269 517 l 0
233 517 m 1
 233 376 l 1
 214 376 l 1
 179 373 182 361 182 349 c 0
 182 346 181 328 349 302 c 0
 407 292 464 246 464 162 c 0
 464 58 381 -5 274 -5 c 0
 252 -5 l 1
 252 131 l 1
 273 131 l 1
 292 132 317 141 317 159 c 0
 317 184 208 190 127 220 c 1
 75 244 33 280 33 365 c 0
 33 472 143 517 212 517 c 0
 233 517 l 1
EndSplineSet
EndChar

StartChar: section
Encoding: 167 167 197
GlifName: section
Width: 547
VWidth: 0
GlyphClass: 2
Flags: HW
LayerCount: 2
Back
SplineSet
363 223 m 257xc8
 373 231 380 243 380 266 c 256
 380 310 343 333 300 351 c 257
 300 498 l 257
 331 485 365 473 393 457 c 256
 454 421 521 374 521 272 c 256xc4
 521 210 493 158 449 124 c 257
 456 104 459 80 459 52 c 256
 459 -87 350 -136 282 -136 c 258
 170 -136 l 257
 170 -4 l 257
 274 -4 l 258
 307 -4 328 17 328 47 c 256
 328 68 317 84 300 97 c 257
 300 252 l 257
 313 247 325 242 336 237 c 256
 345 232 354 228 363 223 c 257xc8
265 759 m 258
 377 759 l 257
 377 627 l 257
 273 627 l 258
 240 627 219 606 219 576 c 256xd0
 219 555 230 540 246 527 c 257
 246 372 l 257
 233 377 221 381 211 386 c 256
 202 391 193 395 184 400 c 257
 174 392 167 380 167 357 c 256
 167 314 204 290 246 272 c 257
 246 125 l 257
 215 138 181 150 154 166 c 256
 93 202 26 249 26 351 c 256xe0
 26 413 54 465 98 499 c 257
 91 519 88 543 88 571 c 256xd0
 88 710 197 759 265 759 c 258
EndSplineSet
Fore
SplineSet
360 242 m 1
 363 247 365 253 365 266 c 0
 365 300 337 319 294 337 c 0
 285 341 l 1
 285 521 l 1
 306 512 l 0
 337 499 371 487 401 470 c 1
 463 434 536 382 536 272 c 0
 536 209 508 155 466 119 c 1
 472 99 474 77 474 52 c 0
 474 -97 356 -151 282 -151 c 0
 155 -151 l 1
 155 11 l 1
 274 11 l 0
 300 11 313 25 313 47 c 0
 313 62 306 74 291 85 c 0
 285 90 l 1
 285 274 l 1
 305 266 l 0
 318 261 331 256 342 251 c 0
 343 250 l 1
 343 250 l 0
 348 247 354 245 360 242 c 1
265 774 m 2
 392 774 l 1
 392 612 l 1
 273 612 l 0
 247 612 234 598 234 576 c 0
 234 561 241 551 255 539 c 0
 261 534 l 1
 261 350 l 1
 241 358 l 0
 228 363 216 367 204 373 c 1
 198 376 193 378 187 381 c 1
 184 376 182 370 182 357 c 0
 182 324 210 304 252 286 c 0
 261 282 l 1
 261 102 l 1
 240 111 l 0
 210 124 175 136 146 153 c 0
 85 189 11 241 11 351 c 0
 11 414 39 468 81 504 c 1
 75 524 73 546 73 571 c 0
 73 720 191 774 265 774 c 2
EndSplineSet
EndChar

StartChar: semicolon
Encoding: 59 59 198
GlifName: semicolon
Width: 291
VWidth: 0
GlyphClass: 2
Flags: HW
LayerCount: 2
Back
SplineSet
91 360 m 256
 91 402 124 436 166 436 c 256
 208 436 241 402 241 360 c 256
 241 318 208 285 166 285 c 256
 124 285 91 318 91 360 c 256
177 -23 m 257
 50 -23 l 257
 87 129 l 257
 214 129 l 257
 177 -23 l 257
EndSplineSet
Fore
SplineSet
76 360 m 0
 76 410 116 451 166 451 c 0
 216 451 256 410 256 360 c 0
 256 310 216 270 166 270 c 0
 116 270 76 310 76 360 c 0
189 -38 m 1
 31 -38 l 1
 75 144 l 1
 233 144 l 1
 189 -38 l 1
EndSplineSet
EndChar

StartChar: seven
Encoding: 55 55 199
GlifName: seven
Width: 495
VWidth: 0
GlyphClass: 2
Flags: HW
LayerCount: 2
Back
SplineSet
20 698 m 257x10
 409 698 l 257x10
 409 573 l 257
 397 562 378 529 371 510 c 257
 236 510 l 257x20
 260 572 l 257
 20 572 l 257
 20 698 l 257x10
223 450 m 257
 356 450 l 257
 317 300 289 154 273 0 c 257
 136 0 l 257x80
 153 158 181 295 223 450 c 257
EndSplineSet
Fore
SplineSet
20 542 m 1
 20 698 l 1
 469 698 l 1
 469 551 l 1
 464 547 l 0
 456 539 436 507 430 490 c 0
 426 480 l 1
 244 480 l 1
 272 542 l 1
 20 542 l 1
237 469 m 0
 241 480 l 1
 420 480 l 1
 416 461 l 0
 377 312 349 166 306 13 c 0
 302 -0 l 1
 134 0 l 1
 136 17 l 0
 153 176 188 313 237 469 c 0
EndSplineSet
EndChar

StartChar: six
Encoding: 54 54 200
GlifName: six
Width: 557
VWidth: 0
GlyphClass: 2
Flags: HW
LayerCount: 2
Back
SplineSet
282 425 m 257
 406 425 471 327 471 209 c 256
 471 84 383 0 282 -1 c 257
 282 123 l 257
 317 127 356 159 356 208 c 256
 356 290 302 304 283 309 c 257
 282 425 l 257
355 537 m 257
 339 559 321 573 293 573 c 256
 289 573 286 573 282 573 c 257
 282 698 l 257
 360 698 415 659 450 600 c 257
 355 537 l 257
228 697 m 257
 228 572 l 257
 165 565 150 448 150 399 c 257
 169 414 198 425 228 425 c 257
 228 307 l 257
 227 307 l 256
 207 302 160 286 160 209 c 256
 160 170 190 128 228 124 c 257
 228 -1 l 257
 53 -1 26 186 26 358 c 256
 26 475 55 675 228 697 c 257
EndSplineSet
Fore
SplineSet
301 440 m 1
 318 440 l 2
 461 440 531 336 531 217 c 0
 531 89 437 0 319 -1 c 0
 301 -1 l 1
 301 146 l 1
 316 148 l 0
 348 151 386 177 386 216 c 0
 386 286 335 294 315 299 c 0
 302 302 l 1
 301 440 l 1
396 502 m 1
 388 513 l 2
 372 533 356 543 331 543 c 0
 301 543 l 1
 301 698 l 1
 318 698 l 0
 410 698 471 656 508 593 c 0
 515 580 l 1
 396 502 l 1
254 697 m 0
 274 699 l 1
 274 552 l 1
 258 551 l 0
 215 547 192 480 186 426 c 1
 207 434 232 440 257 440 c 0
 274 440 l 1
 274 292 l 1
 258 292 l 1
 237 287 196 276 196 213 c 0
 196 182 226 149 258 146 c 0
 274 145 l 1
 274 -1 l 1
 257 -1 l 0
 52 -1 26 196 26 358 c 0
 26 469 54 674 254 697 c 0
EndSplineSet
EndChar

StartChar: slash
Encoding: 47 47 201
GlifName: slash
Width: 401
VWidth: 0
GlyphClass: 2
Flags: HW
LayerCount: 2
Back
SplineSet
50 -23 m 257
 225 716 l 257
 351 716 l 257
 177 -23 l 257
 50 -23 l 257
EndSplineSet
Fore
SplineSet
31 -38 m 1
 213 731 l 1
 370 731 l 1
 189 -38 l 1
 31 -38 l 1
EndSplineSet
EndChar

StartChar: sterling
Encoding: 163 163 203
GlifName: sterling
Width: 520
VWidth: 0
GlyphClass: 2
Flags: HW
LayerCount: 2
Back
SplineSet
371 520 m 257
 361 551 341 584 297 584 c 256
 265 584 239 568 239 517 c 258
 239 396 l 257
 378 396 l 257
 378 289 l 257
 238 289 l 257
 238 108 l 257
 462 108 l 257
 462 0 l 257
 106 0 l 257
 106 288 l 257
 50 288 l 257
 50 395 l 257
 106 395 l 257
 106 514 l 258
 106 617 161 705 291 705 c 256
 292 705 292 705 293 705 c 256
 321 705 345 700 366 691 c 256
 424 668 459 618 470 570 c 257
 371 520 l 257
EndSplineSet
Fore
SplineSet
357 515 m 2
 348 544 331 569 297 569 c 0
 272 569 254 561 254 517 c 0
 254 411 l 1
 393 411 l 1
 393 274 l 1
 253 274 l 1
 253 123 l 1
 477 123 l 1
 477 -15 l 1
 91 -15 l 1
 91 273 l 1
 35 273 l 1
 35 410 l 1
 91 410 l 1
 91 514 l 0
 91 623 152 720 291 720 c 0
 293 720 l 0
 323 720 349 715 372 705 c 1
 435 680 473 625 485 573 c 0
 487 562 l 1
 362 499 l 1
 357 515 l 2
EndSplineSet
EndChar

StartChar: t
Encoding: 116 116 204
GlifName: t
Width: 384
VWidth: 0
GlyphClass: 2
Flags: HW
LayerCount: 2
Back
SplineSet
244 125 m 258
 271 125 l 257
 298 0 l 257
 243 0 l 258
 121 1 89 66 89 168 c 258
 89 398 l 257
 26 398 l 257
 26 516 l 257
 89 516 l 257
 89 700 l 257
 211 700 l 257
 211 516 l 257
 271 516 l 257
 271 398 l 257
 211 398 l 257
 211 159 l 258
 211 145 216 126 244 125 c 258
EndSplineSet
Fore
SplineSet
260 172 m 0
 260 163 262 156 289 155 c 2
 328 155 l 1
 362 0 l 1
 288 0 l 1
 127 1 89 71 89 169 c 0
 89 368 l 1
 26 368 l 1
 26 516 l 1
 89 516 l 1
 89 700 l 1
 260 700 l 1
 260 516 l 1
 331 516 l 1
 331 368 l 1
 260 368 l 1
 260 172 l 0
EndSplineSet
EndChar

StartChar: thorn
Encoding: 254 254 205
GlifName: thorn
Width: 512
VWidth: 0
GlyphClass: 2
Flags: HW
LayerCount: 2
Back
SplineSet
232 0 m 258
 203 0 l 257
 203 118 l 257
 234 118 l 258
 271 119 276 134 276 143 c 258
 276 372 l 258
 276 385 258 398 228 398 c 258
 196 398 l 257
 196 516 l 257
 228 516 l 258
 335 516 396 431 396 375 c 258
 396 139 l 258
 396 86 345 0 232 0 c 258
30 700 m 257
 155 700 l 257
 155 -182 l 257
 30 -182 l 257
 30 700 l 257
EndSplineSet
Fore
SplineSet
486 146 m 0
 486 88 429 0 277 0 c 2
 233 0 l 1
 233 148 l 1
 281 148 l 1
 341 149 336 157 336 157 c 0
 306 358 l 1
 305 359 295 368 265 368 c 0
 206 368 l 1
 206 516 l 1
 265 516 l 0
 388 516 456 430 456 369 c 0
 486 146 l 0
30 -182 m 1
 30 700 l 1
 192 700 l 1
 204 -182 l 1
 30 -182 l 1
EndSplineSet
EndChar

StartChar: three
Encoding: 51 51 206
GlifName: three
Width: 544
VWidth: 0
GlyphClass: 2
Flags: HW
LayerCount: 2
Back
SplineSet
132 537 m 257
 26 600 l 257
 59 656 117 698 195 698 c 257
 195 572 l 257
 166 570 146 558 132 537 c 257
254 122 m 257
 297 122 327 161 327 201 c 256
 327 261 306 286 188 286 c 257
 188 410 l 257
 308 410 327 439 327 499 c 256
 327 553 286 574 256 574 c 260
 255 574 253 574 252 574 c 257
 252 698 l 257
 386 695 453 582 453 508 c 256
 453 411 422 366 391 350 c 257
 419 331 458 284 458 199 c 256
 458 75 337 0 257 0 c 256
 256 0 256 0 255 0 c 257
 254 122 l 257
132 160 m 257
 146 139 166 127 195 125 c 257
 195 -1 l 257
 117 -1 60 30 26 97 c 257
 132 160 l 257
EndSplineSet
Fore
SplineSet
<<<<<<< HEAD
165 514 m 0
 157 502 l 1
 26 580 l 1
 34 593 l 0
 69 653 132 698 216 698 c 0
 231 698 l 1
 231 543 l 1
 217 542 l 0
 192 540 176 531 165 514 c 0
259 152 m 1
 275 152 l 2
 326 152 363 179 363 209 c 0
 363 254 353 271 209 271 c 0
 194 271 l 1
 194 425 l 1
 209 425 l 0
 355 425 363 445 363 491 c 0
 363 530 315 544 277 544 c 0
 258 544 l 1
 258 698 l 1
 273 698 l 0
 446 695 519 579 519 501 c 0
 519 421 497 374 467 349 c 1
 496 323 524 277 524 205 c 0
 524 76 395 0 278 0 c 0
 261 0 l 1
 259 152 l 1
157 195 m 1
 165 183 l 2
 177 166 192 157 217 155 c 0
 231 154 l 1
 231 -1 l 1
 216 -1 l 0
 134 -1 70 33 33 105 c 0
 27 118 l 1
 157 195 l 1
=======
136.08984375 501.828125 m 1
 5 579.740234375 l 1
 47.25 651.438476562 120.971679688 698 225.509765625 698 c 1
 225.509765625 542.999023438 l 1
 183.448242188 540.096679688 154.4765625 529.407226562 136.08984375 501.828125 c 1
254.38671875 152 m 1
 311.551757812 152 341.509765625 172.140625 341.509765625 208.8359375 c 0
 341.509765625 256.418945312 316.642578125 271 172.509765625 271 c 1
 172.509765625 425 l 1
 318.456054688 425 341.509765625 430.170898438 341.509765625 490.716796875 c 0
 341.509765625 525.708007812 300.248046875 544 254.509765625 544 c 1
 254.509765625 698.33984375 l 1
 430.9140625 694.295898438 497.509765625 588.678710938 497.509765625 501.447265625 c 0
 497.509765625 421.200195312 481.129882812 374 445.501953125 349.01953125 c 1
 478.381835938 322.624023438 502.509765625 276.701171875 502.509765625 205.181640625 c 0
 502.509765625 66.35546875 381.698242188 0 254.6328125 0 c 1
 254.38671875 152 l 1
136.08984375 195.171875 m 1
 154.471679688 167.600585938 183.477539062 155.901367188 225.509765625 153.000976562 c 1
 225.509765625 0 l 1
 122.745117188 0 48.298828125 33.939453125 5.7841796875 117.725585938 c 1
 136.08984375 195.171875 l 1
>>>>>>> origin/master
EndSplineSet
EndChar

StartChar: threequarters
Encoding: 190 190 207
GlifName: threequarters
Width: 584
VWidth: 0
GlyphClass: 2
Flags: HW
LayerCount: 2
Back
SplineSet
83 431 m 258x3f
 90 421 99 415 113 414 c 258
 114 414 l 257
 114 348 l 257
 113 348 l 258
 74 348 44 364 27 398 c 257
 26 399 l 257
 82 432 l 257
 83 431 l 258x3f
142 412 m 258
 163 412 177 431 177 450 c 256
 177 479 167 492 108 492 c 257
 108 557 l 257
 109 557 l 258
 169 557 177 571 177 600 c 256
 177 626 157 636 143 636 c 258
 140 636 l 257
 140 701 l 257
 141 700 l 257
 209 698 243 642 243 604 c 256
 243 557 229 534 214 525 c 257
 229 514 245 491 245 450 c 256
 245 387 185 348 144 348 c 258
 141 348 l 257
 141 412 l 257
 142 412 l 258
82 616 m 257
 26 649 l 257
 27 651 l 258
 44 679 74 700 114 700 c 257
 114 635 l 257
 113 635 l 258
 99 634 90 628 83 618 c 258
 82 616 l 257
512 137 m 257xbf80
 512 71 l 257xbf80
 485 71 l 257
 485 -1 l 257
 417 -1 l 257xbf40
 417 352 l 257xbf80
 485 352 l 257
 485 137 l 257xbf40
 512 137 l 257xbf80
392 137 m 257
 392 71 l 257
 294 71 l 257
 294 137 l 257
 392 305 l 257
 392 175 l 257
 370 137 l 257
 392 137 l 257
50 -2 m 257
 482 702 l 257
 558 702 l 257
 133 -2 l 257
 50 -2 l 257
EndSplineSet
Fore
SplineSet
23 -17 m 1
 474 717 l 1
 585 717 l 1
 141 -17 l 1
 23 -17 l 1
527 152 m 1
 527 56 l 1
 500 56 l 1
 500 -16 l 1
 402 -16 l 1
 402 56 l 1
 279 56 l 1
 279 141 l 1
 402 352 l 1
 402 367 l 1
 500 367 l 1
 500 152 l 1
 527 152 l 1
88 595 m 1
 6 643 l 1
 14 658 l 1
 14 659 l 2
 33 691 68 715 114 715 c 2
 125 715 l 1
 125 737 l 1
 148 715 l 1
 222 709 258 648 258 604 c 0
 258 566 249 541 236 525 c 1
 250 508 260 484 260 450 c 0
 260 377 192 333 144 333 c 2
 129 333 l 1
 126 333 l 1
 113 333 l 2
 70 333 35 351 15 389 c 1
 2 402 l 1
 84 451 l 1
 95 441 l 1
 95 440 l 2
 100 433 105 430 114 429 c 2
 129 429 l 1
 129 427 l 1
 142 427 l 2
 153 427 162 437 162 450 c 0
 162 470 165 477 108 477 c 2
 93 477 l 1
 93 572 l 1
 109 572 l 2
 166 572 162 580 162 600 c 0
 162 616 151 621 143 621 c 2
 129 621 l 1
 129 620 l 1
 114 620 l 2
 105 620 100 616 96 610 c 2
 88 595 l 1
402 162 m 1
 396 152 l 1
 402 152 l 1
 402 162 l 1
EndSplineSet
EndChar

StartChar: tilde
Encoding: 294 732 208
GlifName: tilde
Width: 333
VWidth: 0
GlyphClass: 2
Flags: HW
LayerCount: 2
Back
SplineSet
307 114 m 257xa0
 273 93 246 86 223 86 c 256xa0
 170 86 140 126 92 126 c 256
 74 126 52 120 26 104 c 257
 26 206 l 257
 54 222 77 228 96 228 c 256x60
 147 228 176 187 227 187 c 256
 249 187 274 195 307 215 c 257
 307 114 l 257xa0
EndSplineSet
Fore
SplineSet
315 101 m 2
 279 79 249 71 223 71 c 0
 162 71 131 111 92 111 c 0
 77 111 58 106 34 91 c 0
 11 77 l 1
 11 215 l 1
 19 219 l 0
 49 236 74 243 96 243 c 0
 156 243 185 202 227 202 c 0
 245 202 267 209 299 228 c 0
 322 242 l 1
 322 106 l 1
 315 101 l 2
EndSplineSet
EndChar

StartChar: two
Encoding: 50 50 209
GlifName: two
Width: 540
VWidth: 0
GlyphClass: 2
Flags: HW
LayerCount: 2
Back
SplineSet
447 127 m 257
 447 0 l 257
 43 0 l 257
 43 127 l 257
 447 127 l 257
190 699 m 257
 190 573 l 258
 189 573 142 557 142 495 c 257
 24 520 l 257
 33 604 95 687 190 699 c 257
245 574 m 257
 245 700 l 257
 247 700 250 700 252 700 c 256
 406.906418626 700 453 573.197520071 453 494 c 256
 453 390 403 358 342 315 c 256
 271 265 231 232 197 179 c 257
 45 179 l 257
 105 302 205 359 235 384 c 256
 278.45029642 421.387464361 330 433.059480972 330 497 c 256
 330 547 300 572 245 574 c 257
EndSplineSet
Fore
SplineSet
<<<<<<< HEAD
44 157 m 1
 508 157 l 1
 508 0 l 1
 44 0 l 1
 44 157 l 1
214 699 m 0
 234 701 l 1
 234 543 l 1
 219 543 l 1
 209 539 178 524 178 480 c 0
 178 461 l 1
 24 493 l 1
 25 507 l 0
 35 597 101 686 214 699 c 0
279 544 m 0
 263 545 l 1
 263 700 l 1
 288 700 l 0
 463 700 513 563 514 482 c 1
 514 479 l 0
 514 368 458 331 397 288 c 0
 317 238 274 207 237 156 c 0
 232 149 l 1
 37 149 l 1
 48 171 l 0
 110 298 225 357 257 380 c 1
 313 422 360 428 361 480 c 1
 361 482 l 0
 361 523 337 542 279 544 c 0
=======
19.357421875 157 m 1
 482.357421875 157 l 1
 482.357421875 0 l 1
 18.357421875 0 l 1
 19.357421875 157 l 1
225.55859375 701.013671875 m 1
 225.55859375 543 l 1
 202.119140625 543 151.6953125 525.459960938 151.6953125 461.489257812 c 1
 -2 493.1328125 l 1
 10.7548828125 612.201171875 98.2880859375 700.2578125 225.55859375 701.013671875 c 1
254.654296875 544.53515625 m 1
 254.654296875 700 l 1
 280.258789062 700 l 2
 449.4296875 700 490.357421875 544.717773438 490.357421875 486 c 0
 490.357421875 392.293945312 443 346 365.994140625 298.736328125 c 0
 305.710936426 261.736473751 260.482421875 232.3671875 223.995117188 185 c 1
 18.3505859375 185 l 1
 57.9810953617 277.076535158 143.003262884 327.233656168 213.999997733 368.703514306 c 0
 276.637225702 405.290506138 328.357421875 435.115558626 328.357421875 481 c 0
 328.357421875 501.930664062 313.063476562 544.5234375 254.654296875 544.53515625 c 1
>>>>>>> origin/master
EndSplineSet
EndChar

StartChar: u
Encoding: 117 117 210
GlifName: u
Width: 494
VWidth: 0
GlyphClass: 2
Flags: HW
HStem: -5 151<195.022 243.143 258 304.9> 494 20G<30 191.143 310 464>
VStem: 30 161<146.148 514> 310 154<146.156 514>
LayerCount: 2
Back
SplineSet
238 116 m 257
 243 116 l 258
 274 116 280 140 280 142 c 257
 280 514 l 257
 404 514 l 257
 404 137 l 258
 404 92 350 -5 243 -5 c 258
 238 -5 l 257
 238 116 l 257
30 514 m 257
 154 514 l 257
 154 142 l 257
 154 139 160 116 191 116 c 258
 196 116 l 257
 196 -5 l 257
 191 -5 l 258
 84 -5 30 89 30 137 c 258
 30 514 l 257
EndSplineSet
Fore
SplineSet
258 -5 m 1
 258 146 l 1
 283 146 l 0
 305 146 309 155 310 158 c 1
 310 514 l 1
 464 514 l 1
 464 143 l 0
 464 93 405 -5 283 -5 c 0
 258 -5 l 1
30 143 m 0
 30 514 l 1
 191 514 l 1
 191 157 l 1
 192 154 196 146 218 146 c 0
 243 146 l 1
 243 -5 l 1
 218 -5 l 0
 89 -5 30 90 30 143 c 0
EndSplineSet
EndChar

StartChar: underscore
Encoding: 95 95 215
GlifName: underscore
Width: 510
VWidth: 0
GlyphClass: 2
Flags: HW
LayerCount: 2
Back
SplineSet
480 -205 m 257
 30 -205 l 257
 30 -98 l 257
 480 -98 l 257
 480 -205 l 257
EndSplineSet
Fore
SplineSet
495 -220 m 1
 15 -220 l 1
 15 -83 l 1
 495 -83 l 1
 495 -220 l 1
EndSplineSet
EndChar

StartChar: uni00B2
Encoding: 178 178 218
GlifName: uni00B_2
Width: 245
VWidth: 0
GlyphClass: 2
Flags: HW
LayerCount: 2
Back
SplineSet
102 638 m 258
 98 636 85 629 85 608 c 258
 85 604 l 257
 26 616 l 257
 26 619 l 257
 30 657 58 695 101 700 c 257
 105 700 l 257
 105 645 l 257
 105 638 l 257
 102 638 l 258
216 451 m 257
 216 389 l 257
 34 389 l 257
 34 451 l 257
 216 451 l 257
122 639 m 257
 122 700 l 257
 129 700 l 258
 198 700 219 643 219 609 c 256
 219 560 196 546 170 527 c 256
 139 505 123 493 109 471 c 258
 108 469 l 257
 34 469 l 257
 37 475 l 258
 63 529 107 553 119 563 c 256
 139 580 159 584 159 608 c 256
 159 629 148 638 125 639 c 258
 122 639 l 257
EndSplineSet
Fore
SplineSet
231 466 m 1
 231 374 l 1
 19 374 l 1
 19 454 l 1
 10 454 l 1
 24 482 l 2
 52 540 100 566 109 574 c 0
 135 596 144 595 144 608 c 0
 144 621 143 623 125 624 c 2
 120 624 l 1
 120 623 l 1
 106 623 l 2
 103 621 100 618 100 608 c 2
 100 586 l 1
 11 604 l 1
 11 620 l 1
 11 621 l 2
 16 664 47 709 99 715 c 2
 100 715 l 1
 107 715 l 1
 120 715 l 1
 129 715 l 2
 209 715 234 647 234 609 c 0
 234 553 205 534 179 515 c 0
 149 494 135 483 124 466 c 1
 231 466 l 1
EndSplineSet
EndChar

StartChar: uni00B3
Encoding: 179 179 219
GlifName: uni00B_3
Width: 247
VWidth: 0
GlyphClass: 2
Flags: HW
LayerCount: 2
Back
SplineSet
80 467 m 258
 85 459 92 455 104 454 c 258
 107 453 l 257
 107 392 l 257
 104 392 l 258
 69 392 43 406 28 436 c 257
 26 439 l 257
 78 470 l 257
 80 467 l 258
129 452 m 258
 145 452 157 467 157 483 c 256
 157 507 151 516 101 516 c 258
 97 516 l 257
 97 577 l 257
 101 577 l 258
 152 577 157 588 157 612 c 256
 157 633 141 640 130 640 c 258
 125 640 l 257
 125 701 l 257
 128 701 l 258
 188 700 219 650 219 616 c 256
 219 578 208 557 195 547 c 257
 207 537 221 516 221 482 c 256
 221 426 167 392 131 392 c 258
 126 392 l 257
 126 452 l 257
 129 452 l 258
78 623 m 257
 26 654 l 257
 28 657 l 258
 43 682 69 701 104 701 c 258
 107 701 l 257
 107 640 l 257
 104 640 l 258
 92 639 85 634 80 626 c 258
 78 623 l 257
EndSplineSet
Fore
SplineSet
83 603 m 1
 5 649 l 1
 15 665 l 2
 33 694 63 716 104 716 c 2
 110 716 l 1
 122 716 l 1
 128 716 l 2
 197 715 234 657 234 616 c 0
 234 585 227 562 216 547 c 1
 228 531 236 511 236 482 c 0
 236 416 174 377 131 377 c 2
 122 377 l 1
 111 377 l 1
 104 377 l 2
 64 377 32 394 15 428 c 1
 5 444 l 1
 83 490 l 1
 93 475 l 2
 96 471 96 470 105 469 c 2
 107 469 l 1
 112 467 l 1
 129 467 l 2
 135 467 142 474 142 483 c 0
 142 498 149 501 101 501 c 2
 82 501 l 1
 82 592 l 1
 101 592 l 2
 149 592 142 596 142 612 c 0
 142 623 136 625 130 625 c 2
 122 625 l 1
 110 625 l 1
 105 625 l 2
 97 624 96 623 93 618 c 2
 83 603 l 1
EndSplineSet
EndChar

StartChar: uni00B9
Encoding: 185 185 220
GlifName: uni00B_9
Width: 186
VWidth: 0
GlyphClass: 2
Flags: HW
LayerCount: 2
Back
SplineSet
93 610 m 257xa0
 60 584 l 257
 60 673 l 257xc0
 95 700 l 257
 161 700 l 257
 161 391 l 257
 93 391 l 257
 93 610 l 257xa0
EndSplineSet
Fore
SplineSet
78 579 m 1
 45 553 l 1
 45 680 l 1
 90 715 l 1
 176 715 l 1
 176 376 l 1
 78 376 l 1
 78 579 l 1
EndSplineSet
EndChar

StartChar: v
Encoding: 118 118 221
GlifName: v
Width: 460
VWidth: 0
GlyphClass: 2
Flags: HW
LayerCount: 2
Back
SplineSet
174 0 m 257xa0
 16 515 l 257
 151 516 l 257
 286 120 l 257
 243 0 l 257
 174 0 l 257xa0
269 516 m 257
 400 515 l 257
 308 208 l 257
 296 208 l 257
 232 394 l 257
 269 516 l 257
EndSplineSet
Fore
SplineSet
304 -0 m 1
 213 0 l 1
 16 515 l 1
 189 516 l 1
 382 127 l 1
 304 -0 l 1
253 379 m 1
 302 516 l 1
 470 515 l 1
 399 178 l 1
 357 178 l 1
 253 379 l 1
EndSplineSet
EndChar

StartChar: w
Encoding: 119 119 222
GlifName: w
Width: 637
VWidth: 0
GlyphClass: 2
Flags: HW
LayerCount: 2
Back
SplineSet
160 0 m 257xa0
 8 515 l 257
 144 516 l 257
 261 120 l 257
 222 0 l 257
 160 0 l 257xa0
348 0 m 257
 190 515 l 257
 328 516 l 257
 449 120 l 257
 412 0 l 257
 348 0 l 257
443 516 m 257
 569 515 l 257
 471 208 l 257
 463 208 l 257
 407 394 l 257
 443 516 l 257
EndSplineSet
Fore
SplineSet
253 0 m 1
 169 0 l 1
 8 515 l 1
 175 516 l 1
 309 127 l 1
 253 0 l 1
473 -0 m 1
 387 0 l 1
 190 515 l 1
 389 516 l 1
 515 128 l 1
 473 -0 l 1
441 379 m 1
 482 516 l 1
 640 515 l 1
 532 178 l 1
 502 178 l 1
 441 379 l 1
EndSplineSet
EndChar

StartChar: x
Encoding: 120 120 223
GlifName: x
Width: 441
VWidth: 0
GlyphClass: 2
Flags: HW
LayerCount: 2
Back
SplineSet
132 262 m 257xa0
 22 516 l 257
 147 516 l 257
 200 399 l 257
 252 515 l 257
 378 515 l 257
 269 262 l 257
 382 0 l 257
 257 0 l 257
 200 126 l 257
 143 0 l 257
 18 0 l 257
 132 262 l 257xa0
EndSplineSet
Fore
SplineSet
18 0 m 1
 139 262 l 1
 22 516 l 1
 181 516 l 1
 238 421 l 1
 294 515 l 1
 454 515 l 1
 338 262 l 1
 458 0 l 1
 300 0 l 1
 238 105 l 1
 176 0 l 1
 18 0 l 1
EndSplineSet
EndChar

StartChar: y
Encoding: 121 121 224
GlifName: y
Width: 443
VWidth: 0
GlyphClass: 2
Flags: HW
HStem: -182 21G<28.8115 204.583> 495 20G<0 176.148 275.939 452.828>
LayerCount: 2
Back
SplineSet
118 113 m 257
 0 514 l 257
 131 515 l 257
 188 327 l 257
 188 328 189 328 189 329 c 257
 252 111 l 257
 155 -182 l 257
 29 -182 l 257
 118 113 l 257
251 515 m 257
 382 514 l 257
 279 208 l 257
 267 208 l 257
 213 393 l 257
 251 515 l 257
EndSplineSet
Fore
SplineSet
29 -182 m 1
 122 115 l 1
 0 514 l 1
 169 515 l 1
 206 414 l 1
 206 424 l 1
 316 113 l 1
 197 -182 l 1
 29 -182 l 1
233 378 m 1
 283 515 l 1
 453 514 l 1
 340 178 l 1
 302 178 l 1
 233 378 l 1
EndSplineSet
EndChar

StartChar: yen
Encoding: 165 165 227
GlifName: yen
Width: 542
VWidth: 0
GlyphClass: 2
Flags: HW
LayerCount: 2
Back
SplineSet
73 698 m 257xbc
 210 698 l 257
 273 485 l 257
 333 698 l 257
 470 698 l 257
 382 408 l 257
 492 408 l 257
 492 350 l 257
 365 350 l 257
 351 295 l 257
 492 295 l 257
 492 236 l 257
 340 236 l 257
 340 0 l 257
 203 0 l 257
 203 238 l 257
 50 238 l 257
 50 295 l 257
 193 295 l 257
 177 351 l 257
 50 351 l 257
 50 409 l 257
 162 409 l 257
 73 698 l 257xbc
EndSplineSet
Fore
SplineSet
53 713 m 1
 221 713 l 1
 273 539 l 1
 322 713 l 1
 490 713 l 1
 402 423 l 1
 507 423 l 1
 507 335 l 1
 377 335 l 1
 370 310 l 1
 507 310 l 1
 507 221 l 1
 355 221 l 1
 355 -15 l 1
 188 -15 l 1
 188 223 l 1
 35 223 l 1
 35 310 l 1
 173 310 l 1
 166 336 l 1
 35 336 l 1
 35 424 l 1
 142 424 l 1
 53 713 l 1
EndSplineSet
EndChar

StartChar: z
Encoding: 122 122 228
GlifName: z
Width: 378
VWidth: 0
GlyphClass: 2
Flags: HW
HStem: 0 140<209.115 352> 364 150<26 172.302>
VStem: 26 326<0 124.668 388.517 514>
LayerCount: 2
Back
SplineSet
322 400 m 257
 169 118 l 257
 322 117 l 257
 322 0 l 257
 26 0 l 257
 26 116 l 257
 183 394 l 257
 26 394 l 257
 26 514 l 257
 322 514 l 257
 322 400 l 257
EndSplineSet
Fore
SplineSet
352 514 m 1
 352 389 l 1
 209 140 l 1
 352 139 l 1
 352 0 l 1
 26 0 l 1
 26 125 l 1
 172 364 l 1
 26 364 l 1
 26 514 l 1
 352 514 l 1
EndSplineSet
EndChar

StartChar: zero
Encoding: 48 48 230
GlifName: zero
Width: 1100
VWidth: 0
GlyphClass: 2
Flags: HW
LayerCount: 2
Back
SplineSet
404 698 m 257
 404 573 l 257
 351 560 346 461 346 398 c 256
 346 371 346 360 346 339 c 256
 346 248 348 137 403 124 c 257
 403 0 l 257
 337 3 221 60 221 353 c 256
 221 602 315 693 404 698 c 257
464 698 m 257
 553 693 647 602 647 353 c 256
 647 60 531 3 465 0 c 257
 465 124 l 257
 520 137 522 248 522 339 c 256
 522 360 522 371 522 398 c 256
 522 461 517 560 464 573 c 257
 464 698 l 257
EndSplineSet
Fore
SplineSet
<<<<<<< HEAD
430 698 m 0
 449 699 l 1
 449 553 l 1
 436 550 l 0
 393 541 381 461 381 396 c 0
 381 339 l 0
 389 246 399 156 451 147 c 0
 463 145 l 1
 463 -1 l 1
 447 0 l 0
 341 3 221 68 221 353 c 0
 221 594 317 693 430 698 c 0
484 699 m 1
 503 698 l 2
 611 693 707 594 707 353 c 0
 767 68 647 3 541 0 c 0
 525 -1 l 1
 525 145 l 1
 537 147 l 0
 599 156 612 246 552 339 c 0
 552 396 l 0
 552 461 540 541 497 550 c 0
 484 553 l 1
 484 699 l 1
=======
444 698.866210938 m 1
 444 552.510742188 l 1
 500.064453125 541.245117188 511 459 511.88671875 395.98828125 c 0
 511.88671875 339.415039062 l 0
 511 240 508.029296875 159.14453125 444 144.635742188 c 1
 444 -0.697265625 l 1
 550.701171875 4.7900390625 666 56.615234375 666 352.834960938 c 0
 666 607.244140625 560.30859375 692.614257812 444 698.866210938 c 1
416 698.866210938 m 1
 416 552.510742188 l 1
 359.935771516 541.244677435 349 459 348.11328125 395.98828125 c 0
 348.11328125 339.415039062 l 0
 349 240 351.970703125 159.14453125 416 144.635742188 c 1
 416 -0.697265625 l 1
 309.298828125 4.7900390625 194 56.615234375 194 352.834960938 c 0
 194 607.244140625 299.691118481 692.613965134 416 698.866210938 c 1
>>>>>>> origin/master
EndSplineSet
EndChar
